<svg xmlns="http://www.w3.org/2000/svg" xmlns:xlink="http://www.w3.org/1999/xlink" contentStyleType="text/css" height="1443px" preserveAspectRatio="none" style="width:2435px;height:1443px;background:#FFFFFF;" version="1.1" viewBox="0 0 2435 1443" width="2435px" zoomAndPan="magnify"><defs/><g><!--cluster spike_v2--><g id="cluster_spike_v2"><path d="M8.5,6 L72.8486,6 A3.75,3.75 0 0 1 75.3486,8.5 L82.3486,28.4883 L1924.5,28.4883 A2.5,2.5 0 0 1 1927,30.9883 L1927,1434.03 A2.5,2.5 0 0 1 1924.5,1436.53 L8.5,1436.53 A2.5,2.5 0 0 1 6,1434.03 L6,8.5 A2.5,2.5 0 0 1 8.5,6 " fill="none" style="stroke:#000000;stroke-width:1.5;"/><line style="stroke:#000000;stroke-width:1.5;" x1="6" x2="82.3486" y1="28.4883" y2="28.4883"/><text fill="#000000" font-family="sans-serif" font-size="14" font-weight="bold" lengthAdjust="spacing" textLength="63.3486" x="10" y="21.5352">spike_v2</text></g><!--cluster src--><g id="cluster_src"><path d="M32.5,49 L55.2314,49 A3.75,3.75 0 0 1 57.7314,51.5 L64.7314,71.4883 L1900.5,71.4883 A2.5,2.5 0 0 1 1903,73.9883 L1903,1410.03 A2.5,2.5 0 0 1 1900.5,1412.53 L32.5,1412.53 A2.5,2.5 0 0 1 30,1410.03 L30,51.5 A2.5,2.5 0 0 1 32.5,49 " fill="none" style="stroke:#000000;stroke-width:1.5;"/><line style="stroke:#000000;stroke-width:1.5;" x1="30" x2="64.7314" y1="71.4883" y2="71.4883"/><text fill="#000000" font-family="sans-serif" font-size="14" font-weight="bold" lengthAdjust="spacing" textLength="21.7314" x="34" y="64.5352">src</text></g><!--cluster board--><g id="cluster_board"><path d="M56.5,92 L99.5889,92 A3.75,3.75 0 0 1 102.0889,94.5 L109.0889,114.4883 L1876.5,114.4883 A2.5,2.5 0 0 1 1879,116.9883 L1879,1386.03 A2.5,2.5 0 0 1 1876.5,1388.53 L56.5,1388.53 A2.5,2.5 0 0 1 54,1386.03 L54,94.5 A2.5,2.5 0 0 1 56.5,92 " fill="none" style="stroke:#000000;stroke-width:1.5;"/><line style="stroke:#000000;stroke-width:1.5;" x1="54" x2="109.0889" y1="114.4883" y2="114.4883"/><text fill="#000000" font-family="sans-serif" font-size="14" font-weight="bold" lengthAdjust="spacing" textLength="42.0889" x="58" y="107.5352">board</text></g><!--cluster src--><g id="cluster_src"><path d="M80.5,135 L103.2314,135 A3.75,3.75 0 0 1 105.7314,137.5 L112.7314,157.4883 L1852.5,157.4883 A2.5,2.5 0 0 1 1855,159.9883 L1855,1362.03 A2.5,2.5 0 0 1 1852.5,1364.53 L80.5,1364.53 A2.5,2.5 0 0 1 78,1362.03 L78,137.5 A2.5,2.5 0 0 1 80.5,135 " fill="none" style="stroke:#000000;stroke-width:1.5;"/><line style="stroke:#000000;stroke-width:1.5;" x1="78" x2="112.7314" y1="157.4883" y2="157.4883"/><text fill="#000000" font-family="sans-serif" font-size="14" font-weight="bold" lengthAdjust="spacing" textLength="21.7314" x="82" y="150.5352">src</text></g><!--cluster core--><g id="cluster_core"><path d="M104.5,368 L136.46,368 A3.75,3.75 0 0 1 138.96,370.5 L145.96,390.4883 L1828.5,390.4883 A2.5,2.5 0 0 1 1831,392.9883 L1831,1338.03 A2.5,2.5 0 0 1 1828.5,1340.53 L104.5,1340.53 A2.5,2.5 0 0 1 102,1338.03 L102,370.5 A2.5,2.5 0 0 1 104.5,368 " fill="none" style="stroke:#000000;stroke-width:1.5;"/><line style="stroke:#000000;stroke-width:1.5;" x1="102" x2="145.96" y1="390.4883" y2="390.4883"/><text fill="#000000" font-family="sans-serif" font-size="14" font-weight="bold" lengthAdjust="spacing" textLength="30.96" x="106" y="383.5352">core</text></g><!--cluster stack_board_controller.dart--><g id="cluster_stack_board_controller.dart"><path d="M764.5,411 L962.9629,411 A3.75,3.75 0 0 1 965.4629,413.5 L972.4629,433.4883 L1510.5,433.4883 A2.5,2.5 0 0 1 1513,435.9883 L1513,1002.15 A2.5,2.5 0 0 1 1510.5,1004.65 L764.5,1004.65 A2.5,2.5 0 0 1 762,1002.15 L762,413.5 A2.5,2.5 0 0 1 764.5,411 " fill="none" style="stroke:#000000;stroke-width:1.5;"/><line style="stroke:#000000;stroke-width:1.5;" x1="762" x2="972.4629" y1="433.4883" y2="433.4883"/><text fill="#000000" font-family="sans-serif" font-size="14" font-weight="bold" lengthAdjust="spacing" textLength="197.4629" x="766" y="426.5352">stack_board_controller.dart</text></g><!--cluster stack_board_item--><g id="cluster_stack_board_item"><path d="M128.5,499.9 L255.7256,499.9 A3.75,3.75 0 0 1 258.2256,502.4 L265.2256,522.3883 L735.5,522.3883 A2.5,2.5 0 0 1 738,524.8883 L738,1314.03 A2.5,2.5 0 0 1 735.5,1316.53 L128.5,1316.53 A2.5,2.5 0 0 1 126,1314.03 L126,502.4 A2.5,2.5 0 0 1 128.5,499.9 " fill="none" style="stroke:#000000;stroke-width:1.5;"/><line style="stroke:#000000;stroke-width:1.5;" x1="126" x2="265.2256" y1="522.3883" y2="522.3883"/><text fill="#000000" font-family="sans-serif" font-size="14" font-weight="bold" lengthAdjust="spacing" textLength="126.2256" x="130" y="515.4352">stack_board_item</text></g><!--cluster stack_item.dart--><g id="cluster_stack_item.dart"><path d="M152.5,542.9 L263.6406,542.9 A3.75,3.75 0 0 1 266.1406,545.4 L273.1406,565.3883 L417.5,565.3883 A2.5,2.5 0 0 1 420,567.8883 L420,870.24 A2.5,2.5 0 0 1 417.5,872.74 L152.5,872.74 A2.5,2.5 0 0 1 150,870.24 L150,545.4 A2.5,2.5 0 0 1 152.5,542.9 " fill="none" style="stroke:#000000;stroke-width:1.5;"/><line style="stroke:#000000;stroke-width:1.5;" x1="150" x2="273.1406" y1="565.3883" y2="565.3883"/><text fill="#000000" font-family="sans-serif" font-size="14" font-weight="bold" lengthAdjust="spacing" textLength="110.1406" x="154" y="558.4352">stack_item.dart</text></g><!--cluster stack_item_status.dart--><g id="cluster_stack_item_status.dart"><path d="M299.5,1028.65 L462.2451,1028.65 A3.75,3.75 0 0 1 464.7451,1031.15 L471.7451,1051.1383 L570.5,1051.1383 A2.5,2.5 0 0 1 573,1053.6383 L573,1290.03 A2.5,2.5 0 0 1 570.5,1292.53 L299.5,1292.53 A2.5,2.5 0 0 1 297,1290.03 L297,1031.15 A2.5,2.5 0 0 1 299.5,1028.65 " fill="none" style="stroke:#000000;stroke-width:1.5;"/><line style="stroke:#000000;stroke-width:1.5;" x1="297" x2="471.7451" y1="1051.1383" y2="1051.1383"/><text fill="#000000" font-family="sans-serif" font-size="14" font-weight="bold" lengthAdjust="spacing" textLength="161.7451" x="301" y="1044.1852">stack_item_status.dart</text></g><!--cluster stack_item_content.dart--><g id="cluster_stack_item_content.dart"><path d="M446.5,650.08 L618.9727,650.08 A3.75,3.75 0 0 1 621.4727,652.58 L628.4727,672.5683 L711.5,672.5683 A2.5,2.5 0 0 1 714,675.0683 L714,763.07 A2.5,2.5 0 0 1 711.5,765.57 L446.5,765.57 A2.5,2.5 0 0 1 444,763.07 L444,652.58 A2.5,2.5 0 0 1 446.5,650.08 " fill="none" style="stroke:#000000;stroke-width:1.5;"/><line style="stroke:#000000;stroke-width:1.5;" x1="444" x2="628.4727" y1="672.5683" y2="672.5683"/><text fill="#000000" font-family="sans-serif" font-size="14" font-weight="bold" lengthAdjust="spacing" textLength="171.4727" x="448" y="665.6152">stack_item_content.dart</text></g><!--cluster case_style.dart--><g id="cluster_case_style.dart"><path d="M1539.5,567.64 L1646.8125,567.64 A3.75,3.75 0 0 1 1649.3125,570.14 L1656.3125,590.1283 L1804.5,590.1283 A2.5,2.5 0 0 1 1807,592.6283 L1807,845.51 A2.5,2.5 0 0 1 1804.5,848.01 L1539.5,848.01 A2.5,2.5 0 0 1 1537,845.51 L1537,570.14 A2.5,2.5 0 0 1 1539.5,567.64 " fill="none" style="stroke:#000000;stroke-width:1.5;"/><line style="stroke:#000000;stroke-width:1.5;" x1="1537" x2="1656.3125" y1="590.1283" y2="590.1283"/><text fill="#000000" font-family="sans-serif" font-size="14" font-weight="bold" lengthAdjust="spacing" textLength="106.3125" x="1541" y="583.1752">case_style.dart</text></g><!--cluster helpers--><g id="cluster_helpers"><path d="M1189.5,178 L1244.21,178 A3.75,3.75 0 0 1 1246.71,180.5 L1253.71,200.4883 L1416.5,200.4883 A2.5,2.5 0 0 1 1419,202.9883 L1419,341.5 A2.5,2.5 0 0 1 1416.5,344 L1189.5,344 A2.5,2.5 0 0 1 1187,341.5 L1187,180.5 A2.5,2.5 0 0 1 1189.5,178 " fill="none" style="stroke:#000000;stroke-width:1.5;"/><line style="stroke:#000000;stroke-width:1.5;" x1="1187" x2="1253.71" y1="200.4883" y2="200.4883"/><text fill="#000000" font-family="sans-serif" font-size="14" font-weight="bold" lengthAdjust="spacing" textLength="53.71" x="1191" y="193.5352">helpers</text></g><!--cluster safe_value_notifier.dart--><g id="cluster_safe_value_notifier.dart"><path d="M1213.5,221 L1383.4297,221 A3.75,3.75 0 0 1 1385.9297,223.5 L1392.9297,243.4883 L1392.5,243.4883 A2.5,2.5 0 0 1 1395,245.9883 L1395,317.5 A2.5,2.5 0 0 1 1392.5,320 L1213.5,320 A2.5,2.5 0 0 1 1211,317.5 L1211,223.5 A2.5,2.5 0 0 1 1213.5,221 " fill="none" style="stroke:#000000;stroke-width:1.5;"/><line style="stroke:#000000;stroke-width:1.5;" x1="1211" x2="1392.9297" y1="243.4883" y2="243.4883"/><text fill="#000000" font-family="sans-serif" font-size="14" font-weight="bold" lengthAdjust="spacing" textLength="168.9297" x="1215" y="236.5352">safe_value_notifier.dart</text></g><!--cluster dart--><g id="cluster_dart"><path d="M1953.5,1068.09 L1984.0449,1068.09 A3.75,3.75 0 0 1 1986.5449,1070.59 L1993.5449,1090.5783 L2425.5,1090.5783 A2.5,2.5 0 0 1 2428,1093.0783 L2428,1231.59 A2.5,2.5 0 0 1 2425.5,1234.09 L1953.5,1234.09 A2.5,2.5 0 0 1 1951,1231.59 L1951,1070.59 A2.5,2.5 0 0 1 1953.5,1068.09 " fill="none" style="stroke:#000000;stroke-width:1.5;"/><line style="stroke:#000000;stroke-width:1.5;" x1="1951" x2="1993.5449" y1="1090.5783" y2="1090.5783"/><text fill="#000000" font-family="sans-serif" font-size="14" font-weight="bold" lengthAdjust="spacing" textLength="29.5449" x="1955" y="1083.6252">dart</text></g><!--cluster ui--><g id="cluster_ui"><path d="M1977.5,1111.09 L1992.2471,1111.09 A3.75,3.75 0 0 1 1994.7471,1113.59 L2001.7471,1133.5783 L2275.5,1133.5783 A2.5,2.5 0 0 1 2278,1136.0783 L2278,1207.59 A2.5,2.5 0 0 1 2275.5,1210.09 L1977.5,1210.09 A2.5,2.5 0 0 1 1975,1207.59 L1975,1113.59 A2.5,2.5 0 0 1 1977.5,1111.09 " fill="none" style="stroke:#000000;stroke-width:1.5;"/><line style="stroke:#000000;stroke-width:1.5;" x1="1975" x2="2001.7471" y1="1133.5783" y2="1133.5783"/><text fill="#000000" font-family="sans-serif" font-size="14" font-weight="bold" lengthAdjust="spacing" textLength="13.7471" x="1979" y="1126.6252">ui</text></g><!--cluster core--><g id="cluster_core"><path d="M2304.5,1111.09 L2336.46,1111.09 A3.75,3.75 0 0 1 2338.96,1113.59 L2345.96,1133.5783 L2401.5,1133.5783 A2.5,2.5 0 0 1 2404,1136.0783 L2404,1207.59 A2.5,2.5 0 0 1 2401.5,1210.09 L2304.5,1210.09 A2.5,2.5 0 0 1 2302,1207.59 L2302,1113.59 A2.5,2.5 0 0 1 2304.5,1111.09 " fill="none" style="stroke:#000000;stroke-width:1.5;"/><line style="stroke:#000000;stroke-width:1.5;" x1="2302" x2="2345.96" y1="1133.5783" y2="1133.5783"/><text fill="#000000" font-family="sans-serif" font-size="14" font-weight="bold" lengthAdjust="spacing" textLength="30.96" x="2306" y="1126.6252">core</text></g><!--class StackConfig--><g id="elem_StackConfig"><rect codeLine="3" fill="#F1F1F1" height="130.4414" id="StackConfig" rx="2.5" ry="2.5" style="stroke:#181818;stroke-width:0.5;" width="314.2783" x="777.86" y="652.1"/><ellipse cx="890.3693" cy="668.1" fill="#ADD1B2" rx="11" ry="11" style="stroke:#181818;stroke-width:1.0;"/><path d="M892.8424,674.2431 Q892.2614,674.5419 891.6222,674.6913 Q890.983,674.8407 890.2775,674.8407 Q887.7706,674.8407 886.4508,673.1889 Q885.131,671.537 885.131,668.4159 Q885.131,665.2865 886.4508,663.6347 Q887.7706,661.9828 890.2775,661.9828 Q890.983,661.9828 891.6305,662.1322 Q892.278,662.2816 892.8424,662.5805 L892.8424,665.3031 Q892.2116,664.7221 891.6181,664.4523 Q891.0246,664.1825 890.3937,664.1825 Q889.049,664.1825 888.3642,665.2492 Q887.6793,666.3158 887.6793,668.4159 Q887.6793,670.5077 888.3642,671.5744 Q889.049,672.641 890.3937,672.641 Q891.0246,672.641 891.6181,672.3712 Q892.2116,672.1015 892.8424,671.5204 Z " fill="#000000"/><text fill="#000000" font-family="sans-serif" font-size="14" lengthAdjust="spacing" textLength="80.7598" x="910.8693" y="673.391">StackConfig</text><line style="stroke:#181818;stroke-width:0.5;" x1="778.86" x2="1091.1383" y1="684.1" y2="684.1"/><ellipse cx="788.86" cy="697.8441" fill="none" rx="3" ry="3" style="stroke:#038048;stroke-width:1.0;"/><text fill="#000000" font-family="sans-serif" font-size="14" lengthAdjust="spacing" textLength="288.2783" x="797.86" y="701.6352">List&lt;StackItem&lt;StackItemContent&gt;&gt; data</text><ellipse cx="788.86" cy="714.3324" fill="none" rx="3" ry="3" style="stroke:#038048;stroke-width:1.0;"/><text fill="#000000" font-family="sans-serif" font-size="14" lengthAdjust="spacing" textLength="188.624" x="797.86" y="718.1234">Map&lt;String, int&gt; indexMap</text><line style="stroke:#181818;stroke-width:0.5;" x1="778.86" x2="1091.1383" y1="725.0766" y2="725.0766"/><ellipse cx="788.86" cy="738.8207" fill="#84BE84" rx="3" ry="3" style="stroke:#038048;stroke-width:1.0;"/><text fill="#000000" font-family="sans-serif" font-size="14" lengthAdjust="spacing" textLength="230.8359" x="797.86" y="742.6117">StackItem&lt;StackItemContent&gt; []()</text><ellipse cx="788.86" cy="755.309" fill="#84BE84" rx="3" ry="3" style="stroke:#038048;stroke-width:1.0;"/><text fill="#000000" font-family="sans-serif" font-size="14" lengthAdjust="spacing" textLength="156.1396" x="797.86" y="759.1">StackConfig copyWith()</text><ellipse cx="788.86" cy="771.7973" fill="#84BE84" rx="3" ry="3" style="stroke:#038048;stroke-width:1.0;"/><text fill="#000000" font-family="sans-serif" font-size="14" lengthAdjust="spacing" textLength="107.3105" x="797.86" y="775.5883">String toString()</text></g><!--class StackBoardController--><g id="elem_StackBoardController"><rect codeLine="11" fill="#F1F1F1" height="542.6484" id="StackBoardController" rx="2.5" ry="2.5" style="stroke:#181818;stroke-width:0.5;" width="351.0693" x="1127.47" y="446"/><ellipse cx="1227.2815" cy="462" fill="#ADD1B2" rx="11" ry="11" style="stroke:#181818;stroke-width:1.0;"/><path d="M1229.7547,468.1431 Q1229.1736,468.4419 1228.5345,468.5913 Q1227.8953,468.7407 1227.1897,468.7407 Q1224.6829,468.7407 1223.3631,467.0889 Q1222.0432,465.437 1222.0432,462.3159 Q1222.0432,459.1865 1223.3631,457.5347 Q1224.6829,455.8828 1227.1897,455.8828 Q1227.8953,455.8828 1228.5428,456.0322 Q1229.1902,456.1816 1229.7547,456.4805 L1229.7547,459.2031 Q1229.1238,458.6221 1228.5303,458.3523 Q1227.9368,458.0825 1227.3059,458.0825 Q1225.9612,458.0825 1225.2764,459.1492 Q1224.5916,460.2158 1224.5916,462.3159 Q1224.5916,464.4077 1225.2764,465.4744 Q1225.9612,466.541 1227.3059,466.541 Q1227.9368,466.541 1228.5303,466.2712 Q1229.1238,466.0015 1229.7547,465.4204 Z " fill="#000000"/><text fill="#000000" font-family="sans-serif" font-size="14" lengthAdjust="spacing" textLength="142.9463" x="1247.7815" y="467.291">StackBoardController</text><line style="stroke:#181818;stroke-width:0.5;" x1="1128.47" x2="1477.5393" y1="478" y2="478"/><rect fill="none" height="6" style="stroke:#C82930;stroke-width:1.0;" width="6" x="1135.47" y="488.7441"/><text fill="#000000" font-family="sans-serif" font-size="14" lengthAdjust="spacing" textLength="79.0029" x="1147.47" y="495.5352">String? _tag</text><rect fill="none" height="6" style="stroke:#C82930;stroke-width:1.0;" width="6" x="1135.47" y="505.2324"/><text fill="#000000" font-family="sans-serif" font-size="14" lengthAdjust="spacing" textLength="111.8428" x="1147.47" y="512.0234">Size? _boardSize</text><rect fill="none" height="6" style="stroke:#C82930;stroke-width:1.0;" width="6" x="1135.47" y="521.7207"/><text fill="#000000" font-family="sans-serif" font-size="14" lengthAdjust="spacing" textLength="195.624" x="1147.47" y="528.5117">Map&lt;String, int&gt; _indexMap</text><rect fill="none" height="6" style="stroke:#C82930;stroke-width:1.0;" width="6" x="1135.47" y="538.209"/><text fill="#000000" font-family="sans-serif" font-size="14" lengthAdjust="spacing" text-decoration="underline" textLength="269.999" x="1147.47" y="545">StackBoardController _defaultController</text><ellipse cx="1138.47" cy="557.6973" fill="none" rx="3" ry="3" style="stroke:#038048;stroke-width:1.0;"/><text fill="#000000" font-family="sans-serif" font-size="14" lengthAdjust="spacing" textLength="218.4219" x="1147.47" y="561.4883">Map&lt;String, dynamic&gt; innerApi</text><ellipse cx="1138.47" cy="574.1855" fill="none" rx="3" ry="3" style="stroke:#038048;stroke-width:1.0;"/><text fill="#000000" font-family="sans-serif" font-size="14" lengthAdjust="spacing" textLength="104.8428" x="1147.47" y="577.9766">Size? boardSize</text><ellipse cx="1138.47" cy="590.6738" fill="none" rx="3" ry="3" style="stroke:#038048;stroke-width:1.0;"/><text fill="#000000" font-family="sans-serif" font-size="14" lengthAdjust="spacing" textLength="324.9053" x="1147.47" y="594.4648">List&lt;StackItem&lt;StackItemContent&gt;&gt; innerData</text><rect fill="none" height="6" style="stroke:#C82930;stroke-width:1.0;" width="6" x="1135.47" y="604.1621"/><text fill="#000000" font-family="sans-serif" font-size="14" lengthAdjust="spacing" textLength="222.8857" x="1147.47" y="610.9531">Map&lt;String, int&gt; _newIndexMap</text><ellipse cx="1138.47" cy="623.6504" fill="none" rx="3" ry="3" style="stroke:#038048;stroke-width:1.0;"/><text fill="#000000" font-family="sans-serif" font-size="14" lengthAdjust="spacing" textLength="89.5439" x="1147.47" y="627.4414">int hashCode</text><line style="stroke:#181818;stroke-width:0.5;" x1="1128.47" x2="1477.5393" y1="634.3945" y2="634.3945"/><ellipse cx="1138.47" cy="648.1387" fill="#84BE84" rx="3" ry="3" style="stroke:#038048;stroke-width:1.0;"/><text fill="#000000" font-family="sans-serif" font-size="14" lengthAdjust="spacing" textLength="277.6143" x="1147.47" y="651.9297">StackItem&lt;StackItemContent&gt;? getById()</text><ellipse cx="1138.47" cy="664.627" fill="#84BE84" rx="3" ry="3" style="stroke:#038048;stroke-width:1.0;"/><text fill="#000000" font-family="sans-serif" font-size="14" lengthAdjust="spacing" textLength="119.4033" x="1147.47" y="668.418">int getIndexById()</text><rect fill="#F24D5C" height="6" style="stroke:#C82930;stroke-width:1.0;" width="6" x="1135.47" y="678.1152"/><text fill="#000000" font-family="sans-serif" font-size="14" lengthAdjust="spacing" textLength="325.0693" x="1147.47" y="684.9063">List&lt;StackItem&lt;StackItemContent&gt;&gt; _reorder()</text><ellipse cx="1138.47" cy="697.6035" fill="#84BE84" rx="3" ry="3" style="stroke:#038048;stroke-width:1.0;"/><text fill="#000000" font-family="sans-serif" font-size="14" lengthAdjust="spacing" textLength="97.7334" x="1147.47" y="701.3945">void addItem()</text><ellipse cx="1138.47" cy="714.0918" fill="#84BE84" rx="3" ry="3" style="stroke:#038048;stroke-width:1.0;"/><text fill="#000000" font-family="sans-serif" font-size="14" lengthAdjust="spacing" textLength="122.623" x="1147.47" y="717.8828">void removeItem()</text><ellipse cx="1138.47" cy="730.5801" fill="#84BE84" rx="3" ry="3" style="stroke:#038048;stroke-width:1.0;"/><text fill="#000000" font-family="sans-serif" font-size="14" lengthAdjust="spacing" textLength="120.6953" x="1147.47" y="734.3711">void removeById()</text><ellipse cx="1138.47" cy="747.0684" fill="#84BE84" rx="3" ry="3" style="stroke:#038048;stroke-width:1.0;"/><text fill="#000000" font-family="sans-serif" font-size="14" lengthAdjust="spacing" textLength="108.7939" x="1147.47" y="750.8594">void selectOne()</text><ellipse cx="1138.47" cy="763.5566" fill="#84BE84" rx="3" ry="3" style="stroke:#038048;stroke-width:1.0;"/><text fill="#000000" font-family="sans-serif" font-size="14" lengthAdjust="spacing" textLength="128.748" x="1147.47" y="767.3477">void setBoardSize()</text><ellipse cx="1138.47" cy="780.0449" fill="#84BE84" rx="3" ry="3" style="stroke:#038048;stroke-width:1.0;"/><text fill="#000000" font-family="sans-serif" font-size="14" lengthAdjust="spacing" textLength="134.1211" x="1147.47" y="783.8359">void setItemStatus()</text><ellipse cx="1138.47" cy="796.5332" fill="#84BE84" rx="3" ry="3" style="stroke:#038048;stroke-width:1.0;"/><text fill="#000000" font-family="sans-serif" font-size="14" lengthAdjust="spacing" textLength="166.8105" x="1147.47" y="800.3242">void setAllItemStatuses()</text><ellipse cx="1138.47" cy="813.0215" fill="#84BE84" rx="3" ry="3" style="stroke:#038048;stroke-width:1.0;"/><text fill="#000000" font-family="sans-serif" font-size="14" lengthAdjust="spacing" textLength="154.9229" x="1147.47" y="816.8125">void moveItemOnTop()</text><ellipse cx="1138.47" cy="829.5098" fill="#84BE84" rx="3" ry="3" style="stroke:#038048;stroke-width:1.0;"/><text fill="#000000" font-family="sans-serif" font-size="14" lengthAdjust="spacing" textLength="116.9629" x="1147.47" y="833.3008">void unSelectAll()</text><ellipse cx="1138.47" cy="845.998" fill="#84BE84" rx="3" ry="3" style="stroke:#038048;stroke-width:1.0;"/><text fill="#000000" font-family="sans-serif" font-size="14" lengthAdjust="spacing" textLength="123.457" x="1147.47" y="849.7891">void updateBasic()</text><ellipse cx="1138.47" cy="862.4863" fill="#84BE84" rx="3" ry="3" style="stroke:#038048;stroke-width:1.0;"/><text fill="#000000" font-family="sans-serif" font-size="14" lengthAdjust="spacing" textLength="119.458" x="1147.47" y="866.2773">void updateItem()</text><ellipse cx="1138.47" cy="878.9746" fill="#84BE84" rx="3" ry="3" style="stroke:#038048;stroke-width:1.0;"/><text fill="#000000" font-family="sans-serif" font-size="14" lengthAdjust="spacing" textLength="74.7168" x="1147.47" y="882.7656">void clear()</text><ellipse cx="1138.47" cy="895.4629" fill="#84BE84" rx="3" ry="3" style="stroke:#038048;stroke-width:1.0;"/><text fill="#000000" font-family="sans-serif" font-size="14" lengthAdjust="spacing" textLength="285.1201" x="1147.47" y="899.2539">Map&lt;String, dynamic&gt;? getSelectedData()</text><ellipse cx="1138.47" cy="911.9512" fill="#84BE84" rx="3" ry="3" style="stroke:#038048;stroke-width:1.0;"/><text fill="#000000" font-family="sans-serif" font-size="14" lengthAdjust="spacing" textLength="257.127" x="1147.47" y="915.7422">Map&lt;String, dynamic&gt;? getDataById()</text><ellipse cx="1138.47" cy="928.4395" fill="#84BE84" rx="3" ry="3" style="stroke:#038048;stroke-width:1.0;"/><text fill="#000000" font-family="sans-serif" font-size="14" lengthAdjust="spacing" textLength="301.9297" x="1147.47" y="932.2305">List&lt;Map&lt;String, dynamic&gt;&gt; getTypeData()</text><ellipse cx="1138.47" cy="944.9277" fill="#84BE84" rx="3" ry="3" style="stroke:#038048;stroke-width:1.0;"/><text fill="#000000" font-family="sans-serif" font-size="14" lengthAdjust="spacing" textLength="286.9043" x="1147.47" y="948.7188">List&lt;Map&lt;String, dynamic&gt;&gt; getAllData()</text><ellipse cx="1138.47" cy="961.416" fill="#84BE84" rx="3" ry="3" style="stroke:#038048;stroke-width:1.0;"/><text fill="#000000" font-family="sans-serif" font-size="14" lengthAdjust="spacing" textLength="65.8506" x="1147.47" y="965.207">bool ==()</text><ellipse cx="1138.47" cy="977.9043" fill="#84BE84" rx="3" ry="3" style="stroke:#038048;stroke-width:1.0;"/><text fill="#000000" font-family="sans-serif" font-size="14" lengthAdjust="spacing" textLength="94.582" x="1147.47" y="981.6953">void dispose()</text></g><!--class StackItem--><g id="elem_StackItem"><rect codeLine="48" fill="#F1F1F1" height="278.8359" id="StackItem" rx="2.5" ry="2.5" style="stroke:#181818;stroke-width:0.5;" width="238.6729" x="165.66" y="577.9"/><ellipse cx="247.7459" cy="593.9" fill="#A9DCDF" rx="11" ry="11" style="stroke:#181818;stroke-width:1.0;"/><path d="M247.6092,589.2481 L246.4554,594.3199 L248.7713,594.3199 Z M246.1151,587.0069 L249.1117,587.0069 L252.4569,599.4 L250.0081,599.4 L249.2445,596.337 L245.9657,596.337 L245.2186,599.4 L242.7699,599.4 Z " fill="#000000"/><text fill="#000000" font-family="sans-serif" font-size="14" font-style="italic" lengthAdjust="spacing" textLength="66.001" x="268.2459" y="599.191">StackItem</text><line style="stroke:#181818;stroke-width:0.5;" x1="166.66" x2="403.3329" y1="609.9" y2="609.9"/><ellipse cx="176.66" cy="623.6441" fill="none" rx="3" ry="3" style="stroke:#038048;stroke-width:1.0;"/><text fill="#000000" font-family="sans-serif" font-size="14" lengthAdjust="spacing" textLength="96.9268" x="185.66" y="627.4352">String boardId</text><ellipse cx="176.66" cy="640.1324" fill="none" rx="3" ry="3" style="stroke:#038048;stroke-width:1.0;"/><text fill="#000000" font-family="sans-serif" font-size="14" lengthAdjust="spacing" textLength="57.2578" x="185.66" y="643.9234">String id</text><ellipse cx="176.66" cy="656.6207" fill="none" rx="3" ry="3" style="stroke:#038048;stroke-width:1.0;"/><text fill="#000000" font-family="sans-serif" font-size="14" lengthAdjust="spacing" textLength="58.8506" x="185.66" y="660.4117">Size size</text><ellipse cx="176.66" cy="673.109" fill="none" rx="3" ry="3" style="stroke:#038048;stroke-width:1.0;"/><text fill="#000000" font-family="sans-serif" font-size="14" lengthAdjust="spacing" textLength="84.8408" x="185.66" y="676.9">Offset offset</text><ellipse cx="176.66" cy="689.5973" fill="none" rx="3" ry="3" style="stroke:#038048;stroke-width:1.0;"/><text fill="#000000" font-family="sans-serif" font-size="14" lengthAdjust="spacing" textLength="88.1836" x="185.66" y="693.3883">double angle</text><ellipse cx="176.66" cy="706.0855" fill="none" rx="3" ry="3" style="stroke:#038048;stroke-width:1.0;"/><text fill="#000000" font-family="sans-serif" font-size="14" lengthAdjust="spacing" textLength="153.166" x="185.66" y="709.8766">StackItemStatus status</text><ellipse cx="176.66" cy="722.5738" fill="none" rx="3" ry="3" style="stroke:#038048;stroke-width:1.0;"/><text fill="#000000" font-family="sans-serif" font-size="14" lengthAdjust="spacing" textLength="109.8945" x="185.66" y="726.3648">bool lockZOrder</text><ellipse cx="176.66" cy="739.0621" fill="none" rx="3" ry="3" style="stroke:#038048;stroke-width:1.0;"/><text fill="#000000" font-family="sans-serif" font-size="14" lengthAdjust="spacing" textLength="67.252" x="185.66" y="742.8531">bool dock</text><ellipse cx="176.66" cy="755.5504" fill="none" rx="3" ry="3" style="stroke:#038048;stroke-width:1.0;"/><text fill="#000000" font-family="sans-serif" font-size="14" lengthAdjust="spacing" textLength="70.6084" x="185.66" y="759.3414">T? content</text><ellipse cx="176.66" cy="772.0387" fill="none" rx="3" ry="3" style="stroke:#038048;stroke-width:1.0;"/><text fill="#000000" font-family="sans-serif" font-size="14" lengthAdjust="spacing" textLength="89.5439" x="185.66" y="775.8297">int hashCode</text><line style="stroke:#181818;stroke-width:0.5;" x1="166.66" x2="403.3329" y1="782.7828" y2="782.7828"/><ellipse cx="176.66" cy="796.527" fill="#84BE84" rx="3" ry="3" style="stroke:#038048;stroke-width:1.0;"/><text fill="#000000" font-family="sans-serif" font-size="14" lengthAdjust="spacing" textLength="172.4912" x="185.66" y="800.318">StackItem&lt;T&gt; copyWith()</text><ellipse cx="176.66" cy="813.0152" fill="#84BE84" rx="3" ry="3" style="stroke:#038048;stroke-width:1.0;"/><text fill="#000000" font-family="sans-serif" font-size="14" lengthAdjust="spacing" textLength="212.6729" x="185.66" y="816.8063">Map&lt;String, dynamic&gt; toJson()</text><ellipse cx="176.66" cy="829.5035" fill="#84BE84" rx="3" ry="3" style="stroke:#038048;stroke-width:1.0;"/><text fill="#000000" font-family="sans-serif" font-size="14" lengthAdjust="spacing" textLength="107.3105" x="185.66" y="833.2945">String toString()</text><ellipse cx="176.66" cy="845.9918" fill="#84BE84" rx="3" ry="3" style="stroke:#038048;stroke-width:1.0;"/><text fill="#000000" font-family="sans-serif" font-size="14" lengthAdjust="spacing" textLength="65.8506" x="185.66" y="849.7828">bool ==()</text></g><!--class StackItemStatus--><g id="elem_StackItemStatus"><rect codeLine="69" fill="#F1F1F1" height="212.8828" id="StackItemStatus" rx="2.5" ry="2.5" style="stroke:#181818;stroke-width:0.5;" width="226.792" x="312.6" y="1063.65"/><ellipse cx="367.9608" cy="1079.65" fill="#ADD1B2" rx="11" ry="11" style="stroke:#181818;stroke-width:1.0;"/><path d="M370.434,1085.7931 Q369.8529,1086.0919 369.2138,1086.2413 Q368.5746,1086.3907 367.869,1086.3907 Q365.3622,1086.3907 364.0424,1084.7389 Q362.7226,1083.087 362.7226,1079.9659 Q362.7226,1076.8365 364.0424,1075.1847 Q365.3622,1073.5328 367.869,1073.5328 Q368.5746,1073.5328 369.2221,1073.6822 Q369.8695,1073.8316 370.434,1074.1305 L370.434,1076.8531 Q369.8031,1076.2721 369.2096,1076.0023 Q368.6161,1075.7325 367.9853,1075.7325 Q366.6405,1075.7325 365.9557,1076.7992 Q365.2709,1077.8658 365.2709,1079.9659 Q365.2709,1082.0577 365.9557,1083.1244 Q366.6405,1084.191 367.9853,1084.191 Q368.6161,1084.191 369.2096,1083.9212 Q369.8031,1083.6515 370.434,1083.0704 Z " fill="#000000"/><text fill="#000000" font-family="sans-serif" font-size="14" lengthAdjust="spacing" textLength="107.5703" x="388.4608" y="1084.941">StackItemStatus</text><line style="stroke:#181818;stroke-width:0.5;" x1="313.6" x2="538.392" y1="1095.65" y2="1095.65"/><ellipse cx="323.6" cy="1109.3941" fill="none" rx="3" ry="3" style="stroke:#038048;stroke-width:1.0;"/><text fill="#000000" font-family="sans-serif" font-size="14" lengthAdjust="spacing" textLength="60.334" x="332.6" y="1113.1852">int index</text><ellipse cx="323.6" cy="1125.8824" fill="none" rx="3" ry="3" style="stroke:#038048;stroke-width:1.0;"/><text fill="#000000" font-family="sans-serif" font-size="14" lengthAdjust="spacing" text-decoration="underline" textLength="200.792" x="332.6" y="1129.6734">List&lt;StackItemStatus&gt; values</text><ellipse cx="323.6" cy="1142.3707" fill="none" rx="3" ry="3" style="stroke:#038048;stroke-width:1.0;"/><text fill="#000000" font-family="sans-serif" font-size="14" lengthAdjust="spacing" text-decoration="underline" textLength="159.3594" x="332.6" y="1146.1617">StackItemStatus editing</text><ellipse cx="323.6" cy="1158.859" fill="none" rx="3" ry="3" style="stroke:#038048;stroke-width:1.0;"/><text fill="#000000" font-family="sans-serif" font-size="14" lengthAdjust="spacing" text-decoration="underline" textLength="162.3809" x="332.6" y="1162.65">StackItemStatus moving</text><ellipse cx="323.6" cy="1175.3473" fill="none" rx="3" ry="3" style="stroke:#038048;stroke-width:1.0;"/><text fill="#000000" font-family="sans-serif" font-size="14" lengthAdjust="spacing" text-decoration="underline" textLength="159.5508" x="332.6" y="1179.1383">StackItemStatus scaling</text><ellipse cx="323.6" cy="1191.8355" fill="none" rx="3" ry="3" style="stroke:#038048;stroke-width:1.0;"/><text fill="#000000" font-family="sans-serif" font-size="14" lengthAdjust="spacing" text-decoration="underline" textLength="166.2021" x="332.6" y="1195.6266">StackItemStatus resizing</text><ellipse cx="323.6" cy="1208.3238" fill="none" rx="3" ry="3" style="stroke:#038048;stroke-width:1.0;"/><text fill="#000000" font-family="sans-serif" font-size="14" lengthAdjust="spacing" text-decoration="underline" textLength="160.7607" x="332.6" y="1212.1148">StackItemStatus roating</text><ellipse cx="323.6" cy="1224.8121" fill="none" rx="3" ry="3" style="stroke:#038048;stroke-width:1.0;"/><text fill="#000000" font-family="sans-serif" font-size="14" lengthAdjust="spacing" text-decoration="underline" textLength="167.8018" x="332.6" y="1228.6031">StackItemStatus selected</text><ellipse cx="323.6" cy="1241.3004" fill="none" rx="3" ry="3" style="stroke:#038048;stroke-width:1.0;"/><text fill="#000000" font-family="sans-serif" font-size="14" lengthAdjust="spacing" text-decoration="underline" textLength="136.7051" x="332.6" y="1245.0914">StackItemStatus idle</text><ellipse cx="323.6" cy="1257.7887" fill="none" rx="3" ry="3" style="stroke:#038048;stroke-width:1.0;"/><text fill="#000000" font-family="sans-serif" font-size="14" lengthAdjust="spacing" text-decoration="underline" textLength="156.6113" x="332.6" y="1261.5797">StackItemStatus locked</text><line style="stroke:#181818;stroke-width:0.5;" x1="313.6" x2="538.392" y1="1268.5328" y2="1268.5328"/></g><!--class StackItemContent--><g id="elem_StackItemContent"><rect codeLine="85" fill="#F1F1F1" height="64.4883" id="StackItemContent" rx="2.5" ry="2.5" style="stroke:#181818;stroke-width:0.5;" width="238.6729" x="459.66" y="685.08"/><ellipse cx="514.7782" cy="701.08" fill="#A9DCDF" rx="11" ry="11" style="stroke:#181818;stroke-width:1.0;"/><path d="M514.6414,696.4281 L513.4876,701.4999 L515.8036,701.4999 Z M513.1473,694.1869 L516.1439,694.1869 L519.4891,706.58 L517.0404,706.58 L516.2767,703.517 L512.9979,703.517 L512.2508,706.58 L509.8021,706.58 Z " fill="#000000"/><text fill="#000000" font-family="sans-serif" font-size="14" font-style="italic" lengthAdjust="spacing" textLength="119.9365" x="535.2782" y="706.371">StackItemContent</text><line style="stroke:#181818;stroke-width:0.5;" x1="460.66" x2="697.3329" y1="717.08" y2="717.08"/><line style="stroke:#181818;stroke-width:0.5;" x1="460.66" x2="697.3329" y1="725.08" y2="725.08"/><ellipse cx="470.66" cy="738.8241" fill="#84BE84" rx="3" ry="3" style="stroke:#038048;stroke-width:1.0;"/><text fill="#000000" font-family="sans-serif" font-size="14" lengthAdjust="spacing" textLength="212.6729" x="479.66" y="742.6152">Map&lt;String, dynamic&gt; toJson()</text></g><!--class CaseStyle--><g id="elem_CaseStyle"><rect codeLine="89" fill="#F1F1F1" height="229.3711" id="CaseStyle" rx="2.5" ry="2.5" style="stroke:#181818;stroke-width:0.5;" width="238.6729" x="1552.66" y="602.64"/><ellipse cx="1635.6004" cy="618.64" fill="#ADD1B2" rx="11" ry="11" style="stroke:#181818;stroke-width:1.0;"/><path d="M1638.0736,624.7831 Q1637.4925,625.0819 1636.8534,625.2313 Q1636.2142,625.3807 1635.5086,625.3807 Q1633.0018,625.3807 1631.682,623.7289 Q1630.3621,622.077 1630.3621,618.9559 Q1630.3621,615.8265 1631.682,614.1747 Q1633.0018,612.5228 1635.5086,612.5228 Q1636.2142,612.5228 1636.8617,612.6722 Q1637.5091,612.8216 1638.0736,613.1205 L1638.0736,615.8431 Q1637.4427,615.2621 1636.8492,614.9923 Q1636.2557,614.7225 1635.6248,614.7225 Q1634.2801,614.7225 1633.5953,615.7892 Q1632.9105,616.8558 1632.9105,618.9559 Q1632.9105,621.0477 1633.5953,622.1144 Q1634.2801,623.181 1635.6248,623.181 Q1636.2557,623.181 1636.8492,622.9112 Q1637.4427,622.6415 1638.0736,622.0604 Z " fill="#000000"/><text fill="#000000" font-family="sans-serif" font-size="14" lengthAdjust="spacing" textLength="64.292" x="1656.1004" y="623.931">CaseStyle</text><line style="stroke:#181818;stroke-width:0.5;" x1="1553.66" x2="1790.3329" y1="634.64" y2="634.64"/><ellipse cx="1563.66" cy="648.3841" fill="none" rx="3" ry="3" style="stroke:#038048;stroke-width:1.0;"/><text fill="#000000" font-family="sans-serif" font-size="14" lengthAdjust="spacing" textLength="139.7949" x="1572.66" y="652.1752">Color buttonBgColor</text><ellipse cx="1563.66" cy="664.8724" fill="none" rx="3" ry="3" style="stroke:#038048;stroke-width:1.0;"/><text fill="#000000" font-family="sans-serif" font-size="14" lengthAdjust="spacing" textLength="167.7334" x="1572.66" y="668.6634">Color buttonBorderColor</text><ellipse cx="1563.66" cy="681.3607" fill="none" rx="3" ry="3" style="stroke:#038048;stroke-width:1.0;"/><text fill="#000000" font-family="sans-serif" font-size="14" lengthAdjust="spacing" textLength="179.9287" x="1572.66" y="685.1517">double buttonBorderWidth</text><ellipse cx="1563.66" cy="697.849" fill="none" rx="3" ry="3" style="stroke:#038048;stroke-width:1.0;"/><text fill="#000000" font-family="sans-serif" font-size="14" lengthAdjust="spacing" textLength="151.5049" x="1572.66" y="701.64">Color buttonIconColor</text><ellipse cx="1563.66" cy="714.3373" fill="none" rx="3" ry="3" style="stroke:#038048;stroke-width:1.0;"/><text fill="#000000" font-family="sans-serif" font-size="14" lengthAdjust="spacing" textLength="123.8604" x="1572.66" y="718.1283">double buttonSize</text><ellipse cx="1563.66" cy="730.8255" fill="none" rx="3" ry="3" style="stroke:#038048;stroke-width:1.0;"/><text fill="#000000" font-family="sans-serif" font-size="14" lengthAdjust="spacing" textLength="161.9502" x="1572.66" y="734.6166">Color frameBorderColor</text><ellipse cx="1563.66" cy="747.3138" fill="none" rx="3" ry="3" style="stroke:#038048;stroke-width:1.0;"/><text fill="#000000" font-family="sans-serif" font-size="14" lengthAdjust="spacing" textLength="174.1455" x="1572.66" y="751.1048">double frameBorderWidth</text><ellipse cx="1563.66" cy="763.8021" fill="none" rx="3" ry="3" style="stroke:#038048;stroke-width:1.0;"/><text fill="#000000" font-family="sans-serif" font-size="14" lengthAdjust="spacing" textLength="163.3721" x="1572.66" y="767.5931">double? boxAspectRatio</text><ellipse cx="1563.66" cy="780.2904" fill="none" rx="3" ry="3" style="stroke:#038048;stroke-width:1.0;"/><text fill="#000000" font-family="sans-serif" font-size="14" lengthAdjust="spacing" textLength="89.5439" x="1572.66" y="784.0814">int hashCode</text><line style="stroke:#181818;stroke-width:0.5;" x1="1553.66" x2="1790.3329" y1="791.0345" y2="791.0345"/><ellipse cx="1563.66" cy="804.7787" fill="#84BE84" rx="3" ry="3" style="stroke:#038048;stroke-width:1.0;"/><text fill="#000000" font-family="sans-serif" font-size="14" lengthAdjust="spacing" textLength="212.6729" x="1572.66" y="808.5697">Map&lt;String, dynamic&gt; toJson()</text><ellipse cx="1563.66" cy="821.267" fill="#84BE84" rx="3" ry="3" style="stroke:#038048;stroke-width:1.0;"/><text fill="#000000" font-family="sans-serif" font-size="14" lengthAdjust="spacing" textLength="65.8506" x="1572.66" y="825.058">bool ==()</text></g><!--class SafeValueNotifier--><g id="elem_SafeValueNotifier"><rect fill="#F1F1F1" height="48" id="SafeValueNotifier" rx="2.5" ry="2.5" style="stroke:#181818;stroke-width:0.5;" width="148.5869" x="1228.71" y="256"/><ellipse cx="1243.71" cy="272" fill="#ADD1B2" rx="11" ry="11" style="stroke:#181818;stroke-width:1.0;"/><path d="M1246.1831,278.1431 Q1245.6021,278.4419 1244.9629,278.5913 Q1244.3238,278.7407 1243.6182,278.7407 Q1241.1114,278.7407 1239.7915,277.0889 Q1238.4717,275.437 1238.4717,272.3159 Q1238.4717,269.1865 1239.7915,267.5347 Q1241.1114,265.8828 1243.6182,265.8828 Q1244.3238,265.8828 1244.9712,266.0322 Q1245.6187,266.1816 1246.1831,266.4805 L1246.1831,269.2031 Q1245.5523,268.6221 1244.9588,268.3523 Q1244.3653,268.0825 1243.7344,268.0825 Q1242.3897,268.0825 1241.7049,269.1492 Q1241.0201,270.2158 1241.0201,272.3159 Q1241.0201,274.4077 1241.7049,275.4744 Q1242.3897,276.541 1243.7344,276.541 Q1244.3653,276.541 1244.9588,276.2712 Q1245.5523,276.0015 1246.1831,275.4204 Z " fill="#000000"/><text fill="#000000" font-family="sans-serif" font-size="14" lengthAdjust="spacing" textLength="116.5869" x="1257.71" y="277.291">SafeValueNotifier</text><line style="stroke:#181818;stroke-width:0.5;" x1="1229.71" x2="1376.2969" y1="288" y2="288"/><line style="stroke:#181818;stroke-width:0.5;" x1="1229.71" x2="1376.2969" y1="296" y2="296"/></g><!--class Size--><g id="elem_Size"><rect fill="#F1F1F1" height="48" id="Size" rx="2.5" ry="2.5" style="stroke:#181818;stroke-width:0.5;" width="59.4121" x="2099.29" y="1146.09"/><ellipse cx="2114.29" cy="1162.09" fill="#ADD1B2" rx="11" ry="11" style="stroke:#181818;stroke-width:1.0;"/><path d="M2116.7631,1168.2331 Q2116.1821,1168.5319 2115.5429,1168.6813 Q2114.9038,1168.8307 2114.1982,1168.8307 Q2111.6914,1168.8307 2110.3715,1167.1789 Q2109.0517,1165.527 2109.0517,1162.4059 Q2109.0517,1159.2765 2110.3715,1157.6247 Q2111.6914,1155.9728 2114.1982,1155.9728 Q2114.9038,1155.9728 2115.5512,1156.1222 Q2116.1987,1156.2716 2116.7631,1156.5705 L2116.7631,1159.2931 Q2116.1323,1158.7121 2115.5388,1158.4423 Q2114.9453,1158.1725 2114.3144,1158.1725 Q2112.9697,1158.1725 2112.2849,1159.2392 Q2111.6001,1160.3058 2111.6001,1162.4059 Q2111.6001,1164.4977 2112.2849,1165.5644 Q2112.9697,1166.631 2114.3144,1166.631 Q2114.9453,1166.631 2115.5388,1166.3612 Q2116.1323,1166.0915 2116.7631,1165.5104 Z " fill="#000000"/><text fill="#000000" font-family="sans-serif" font-size="14" lengthAdjust="spacing" textLength="27.4121" x="2128.29" y="1167.381">Size</text><line style="stroke:#181818;stroke-width:0.5;" x1="2100.29" x2="2157.7021" y1="1178.09" y2="1178.09"/><line style="stroke:#181818;stroke-width:0.5;" x1="2100.29" x2="2157.7021" y1="1186.09" y2="1186.09"/></g><!--class Offset--><g id="elem_Offset"><rect fill="#F1F1F1" height="48" id="Offset" rx="2.5" ry="2.5" style="stroke:#181818;stroke-width:0.5;" width="73.3438" x="1991.33" y="1146.09"/><ellipse cx="2006.33" cy="1162.09" fill="#ADD1B2" rx="11" ry="11" style="stroke:#181818;stroke-width:1.0;"/><path d="M2008.8031,1168.2331 Q2008.2221,1168.5319 2007.5829,1168.6813 Q2006.9438,1168.8307 2006.2382,1168.8307 Q2003.7314,1168.8307 2002.4115,1167.1789 Q2001.0917,1165.527 2001.0917,1162.4059 Q2001.0917,1159.2765 2002.4115,1157.6247 Q2003.7314,1155.9728 2006.2382,1155.9728 Q2006.9438,1155.9728 2007.5912,1156.1222 Q2008.2387,1156.2716 2008.8031,1156.5705 L2008.8031,1159.2931 Q2008.1723,1158.7121 2007.5788,1158.4423 Q2006.9853,1158.1725 2006.3544,1158.1725 Q2005.0097,1158.1725 2004.3249,1159.2392 Q2003.6401,1160.3058 2003.6401,1162.4059 Q2003.6401,1164.4977 2004.3249,1165.5644 Q2005.0097,1166.631 2006.3544,1166.631 Q2006.9853,1166.631 2007.5788,1166.3612 Q2008.1723,1166.0915 2008.8031,1165.5104 Z " fill="#000000"/><text fill="#000000" font-family="sans-serif" font-size="14" lengthAdjust="spacing" textLength="41.3438" x="2020.33" y="1167.381">Offset</text><line style="stroke:#181818;stroke-width:0.5;" x1="1992.33" x2="2063.6738" y1="1178.09" y2="1178.09"/><line style="stroke:#181818;stroke-width:0.5;" x1="1992.33" x2="2063.6738" y1="1186.09" y2="1186.09"/></g><!--class Color--><g id="elem_Color"><rect fill="#F1F1F1" height="48" id="Color" rx="2.5" ry="2.5" style="stroke:#181818;stroke-width:0.5;" width="68.6611" x="2193.67" y="1146.09"/><ellipse cx="2208.67" cy="1162.09" fill="#ADD1B2" rx="11" ry="11" style="stroke:#181818;stroke-width:1.0;"/><path d="M2211.1431,1168.2331 Q2210.5621,1168.5319 2209.9229,1168.6813 Q2209.2838,1168.8307 2208.5782,1168.8307 Q2206.0714,1168.8307 2204.7515,1167.1789 Q2203.4317,1165.527 2203.4317,1162.4059 Q2203.4317,1159.2765 2204.7515,1157.6247 Q2206.0714,1155.9728 2208.5782,1155.9728 Q2209.2838,1155.9728 2209.9312,1156.1222 Q2210.5787,1156.2716 2211.1431,1156.5705 L2211.1431,1159.2931 Q2210.5123,1158.7121 2209.9188,1158.4423 Q2209.3253,1158.1725 2208.6944,1158.1725 Q2207.3497,1158.1725 2206.6649,1159.2392 Q2205.9801,1160.3058 2205.9801,1162.4059 Q2205.9801,1164.4977 2206.6649,1165.5644 Q2207.3497,1166.631 2208.6944,1166.631 Q2209.3253,1166.631 2209.9188,1166.3612 Q2210.5123,1166.0915 2211.1431,1165.5104 Z " fill="#000000"/><text fill="#000000" font-family="sans-serif" font-size="14" lengthAdjust="spacing" textLength="36.6611" x="2222.67" y="1167.381">Color</text><line style="stroke:#181818;stroke-width:0.5;" x1="2194.67" x2="2261.3311" y1="1178.09" y2="1178.09"/><line style="stroke:#181818;stroke-width:0.5;" x1="2194.67" x2="2261.3311" y1="1186.09" y2="1186.09"/></g><!--class Enum--><g id="elem_Enum"><rect fill="#F1F1F1" height="48" id="Enum" rx="2.5" ry="2.5" style="stroke:#181818;stroke-width:0.5;" width="70.0352" x="2317.98" y="1146.09"/><ellipse cx="2332.98" cy="1162.09" fill="#ADD1B2" rx="11" ry="11" style="stroke:#181818;stroke-width:1.0;"/><path d="M2335.4531,1168.2331 Q2334.8721,1168.5319 2334.2329,1168.6813 Q2333.5938,1168.8307 2332.8882,1168.8307 Q2330.3814,1168.8307 2329.0615,1167.1789 Q2327.7417,1165.527 2327.7417,1162.4059 Q2327.7417,1159.2765 2329.0615,1157.6247 Q2330.3814,1155.9728 2332.8882,1155.9728 Q2333.5938,1155.9728 2334.2412,1156.1222 Q2334.8887,1156.2716 2335.4531,1156.5705 L2335.4531,1159.2931 Q2334.8223,1158.7121 2334.2288,1158.4423 Q2333.6353,1158.1725 2333.0044,1158.1725 Q2331.6597,1158.1725 2330.9749,1159.2392 Q2330.2901,1160.3058 2330.2901,1162.4059 Q2330.2901,1164.4977 2330.9749,1165.5644 Q2331.6597,1166.631 2333.0044,1166.631 Q2333.6353,1166.631 2334.2288,1166.3612 Q2334.8223,1166.0915 2335.4531,1165.5104 Z " fill="#000000"/><text fill="#000000" font-family="sans-serif" font-size="14" lengthAdjust="spacing" textLength="38.0352" x="2346.98" y="1167.381">Enum</text><line style="stroke:#181818;stroke-width:0.5;" x1="2318.98" x2="2387.0152" y1="1178.09" y2="1178.09"/><line style="stroke:#181818;stroke-width:0.5;" x1="2318.98" x2="2387.0152" y1="1186.09" y2="1186.09"/></g><!--reverse link StackBoardController to Size--><g id="link_StackBoardController_Size"><path codeLine="44" d="M1488.1498,982.3837 C1506.2498,997.1437 1516.35,1002.5 1537,1012.65 C1564.18,1026.01 2057.7,1002.58 2082,1020.65 C2121.26,1049.84 2128.5,1111.96 2129.37,1145.85 " fill="none" id="StackBoardController-backto-Size" style="stroke:#181818;stroke-width:1.0;"/><polygon fill="none" points="1478.85,974.8,1480.972,981.6918,1488.1498,982.3837,1486.0278,975.4919,1478.85,974.8" style="stroke:#181818;stroke-width:1.0;"/></g><!--reverse link StackBoardController to StackBoardController--><g id="link_StackBoardController_StackBoardController"><path codeLine="45" d="M1489.0831,653.1113 C1510.0731,665.9213 1513.53,683.16 1513.53,717.32 C1513.53,751.49 1499.83,774.98 1478.84,787.79 " fill="none" id="StackBoardController-backto-StackBoardController" style="stroke:#181818;stroke-width:1.0;"/><polygon fill="none" points="1478.84,646.86,1481.8778,653.4,1489.0831,653.1113,1486.0453,646.5713,1478.84,646.86" style="stroke:#181818;stroke-width:1.0;"/></g><!--reverse link SafeValueNotifier to StackBoardController--><g id="link_SafeValueNotifier_StackBoardController"><path codeLine="46" d="M1303,322.4 C1303,351.59 1303,386.84 1303,445.59 " fill="none" id="SafeValueNotifier-backto-StackBoardController" style="stroke:#181818;stroke-width:1.0;"/><polygon fill="none" points="1303,304.4,1297,322.4,1309,322.4,1303,304.4" style="stroke:#181818;stroke-width:1.0;"/></g><!--reverse link StackItem to Size--><g id="link_StackItem_Size"><path codeLine="65" d="M329.2001,868.0333 C353.5801,926.7733 386.85,978.37 444,1012.65 C463.51,1024.35 2063.68,1007.16 2082,1020.65 C2121.4,1049.65 2128.58,1111.85 2129.41,1145.8 " fill="none" id="StackItem-backto-Size" style="stroke:#181818;stroke-width:1.0;"/><polygon fill="none" points="324.6,856.95,323.2056,864.025,329.2001,868.0333,330.5945,860.9583,324.6,856.95" style="stroke:#181818;stroke-width:1.0;"/></g><!--reverse link StackItem to Offset--><g id="link_StackItem_Offset"><path codeLine="66" d="M330.844,868.0481 C355.434,926.0481 388.34,977.07 444,1012.65 C456.1,1020.38 558.69,1019.47 573,1020.65 C1138.6,1067.02 1825.63,1145.56 1990.95,1164.76 " fill="none" id="StackItem-backto-Offset" style="stroke:#181818;stroke-width:1.0;"/><polygon fill="none" points="326.16,857,324.8193,864.0854,330.844,868.0481,332.1847,860.9627,326.16,857" style="stroke:#181818;stroke-width:1.0;"/></g><!--reverse link StackItem to StackItemStatus--><g id="link_StackItem_StackItemStatus"><path codeLine="67" d="M331.9427,868.3927 C352.7427,934.8827 373.68,1001.82 392.94,1063.41 " fill="none" id="StackItem-backto-StackItemStatus" style="stroke:#181818;stroke-width:1.0;"/><polygon fill="none" points="328.36,856.94,326.3338,863.8606,331.9427,868.3927,333.9689,861.4721,328.36,856.94" style="stroke:#181818;stroke-width:1.0;"/></g><!--reverse link StackItemStatus to StackItemStatus--><g id="link_StackItemStatus_StackItemStatus"><path codeLine="82" d="M550.5454,1095.631 C570.8754,1106.021 574.4,1127.2 574.4,1170.09 C574.4,1212.98 560.19,1239.62 539.86,1250 " fill="none" id="StackItemStatus-backto-StackItemStatus" style="stroke:#181818;stroke-width:1.0;"/><polygon fill="none" points="539.86,1090.17,543.3824,1096.4623,550.5454,1095.631,547.023,1089.3387,539.86,1090.17" style="stroke:#181818;stroke-width:1.0;"/></g><!--reverse link Enum to StackItemStatus--><g id="link_Enum_StackItemStatus"><path codeLine="83" d="M2343.1761,1128.3726 C2334.5261,1094.9026 2318.66,1052.54 2278,1020.65 C2271.72,1015.72 2268.43,1017.54 2260.5,1016.65 C2201.32,1009.97 2051.98,1013.74 1992.5,1016.65 C1446.62,1043.32 797.56,1121.97 539.72,1155.1 " fill="none" id="Enum-backto-StackItemStatus" style="stroke:#181818;stroke-width:1.0;"/><polygon fill="none" points="2347.68,1145.8,2348.9852,1126.8713,2337.3669,1129.8739,2347.68,1145.8" style="stroke:#181818;stroke-width:1.0;"/></g><!--reverse link CaseStyle to Color--><g id="link_CaseStyle_Color"><path codeLine="103" d="M1802.7982,766.7623 C1916.5982,814.1423 2074,895.47 2176,1020.65 C2206.44,1058.01 2219.63,1114.41 2224.88,1145.84 " fill="none" id="CaseStyle-backto-Color" style="stroke:#181818;stroke-width:1.0;"/><polygon fill="none" points="1791.72,762.15,1795.7216,768.1489,1802.7982,766.7623,1798.7965,760.7634,1791.72,762.15" style="stroke:#181818;stroke-width:1.0;"/></g><!--SRC=[jLVVRzem47xlNs7nj6bZ3tkCMgh2zi2q3McWLTeqHSO-mAgn8zlfohh-xplRWOIG9gCjBs1_z_dkxFjXnu8ZYgx1PfJ1539ggDE69CdP6PFKMjApcRY1zFPzabZ3acIkgU75c6a3E7IKtQG1JvbMpcWfmRpZrBWacNhXIAk5MFR8_HaXRpuBwyu3F7QmBaT8Sg3SO40uTTGplz0CnKQevLiYK88_7EuGzS8M3UJdhrUlTvned32TRQw5MsqbNYrnEWuGV7Z93G-zRBGJnPttewrBaZgw37Fn1t0M5Fcnnmxsd5OsVO-MdM0FNjMX5P9oMD1SkXAgdoBVOAm5yoUfm5nb8fn5SAFgnN_4A2Zu40FLuBI2t-DAi10aAsfN8ysX8tYNP0bkk1dp62Y_4e6WR8Vsk_rB3MZ3mKGjjrfmGZdtd0fYOArleH4iFGYW1GdCJHJiOMwuFRHzs6j4drnkz_4hAKiHL8LRFoPgfhCAdgjfi8mhgsY69G93QWKxG6kxOH9eSGXDYH1EEve0xiFPGVMKycX269gu0y-TRJ8eLRPpSNybTQwr91SNbLrmOJDj8PRfIGfKz_ka5mcvG1B6j7T2IoTGtEhj2cG6nkACBf12PGwfqauiHAaK9T-zu6k1zyZvtrFvUaRdrXdA77bAqnMOurl4ZwkcVFuNDqtHvCEQCQyWWc_x7h55nvii5bYWH8S_3t2TpoKGgfPolsN5wYKs_EtILMfsysFYEyuEuWZvoUoIiDYNsblXR52xf1exjzEVh5QFtM9xrNDqhNIVwmkKoT56OcXEPEPPEjEO17NLCKDwJtjG76SZ9hhFgV1CgBuHQfTuN30WeVRj7h6Usi25mtHgvU25rKMnZCekZW4im4wIfft-sE8EQoK97chvSOAlOjJnxCBf2Dh9Cw-edgZdeyhNJ-hbnwRxY_RqjEYPTMl54w_8_FOMUSIRdb4BkB-DXCBW286fdnUMHbhYTz4yTqwhuJBC3k3mujo9YXkaAhiMtAtgoyQuq-P5s-TuP2yCVgSrswY8TYQYo3_ixwviXiNn3PDUDrr1dVVCaLTAsrdMUdlO2AREFm00]--></g></svg>