<svg xmlns="http://www.w3.org/2000/svg" xmlns:xlink="http://www.w3.org/1999/xlink" contentStyleType="text/css" height="949px" preserveAspectRatio="none" style="width:2732px;height:949px;background:#FFFFFF;" version="1.1" viewBox="0 0 2732 949" width="2732px" zoomAndPan="magnify"><defs/><g><!--cluster spike_v2--><g id="cluster_spike_v2"><path d="M8.5,6 L72.8486,6 A3.75,3.75 0 0 1 75.3486,8.5 L82.3486,28.4883 L1377.5,28.4883 A2.5,2.5 0 0 1 1380,30.9883 L1380,940.43 A2.5,2.5 0 0 1 1377.5,942.93 L8.5,942.93 A2.5,2.5 0 0 1 6,940.43 L6,8.5 A2.5,2.5 0 0 1 8.5,6 " fill="none" style="stroke:#000000;stroke-width:1.5;"/><line style="stroke:#000000;stroke-width:1.5;" x1="6" x2="82.3486" y1="28.4883" y2="28.4883"/><text fill="#000000" font-family="sans-serif" font-size="14" font-weight="bold" lengthAdjust="spacing" textLength="63.3486" x="10" y="21.5352">spike_v2</text></g><!--cluster src--><g id="cluster_src"><path d="M32.5,49 L55.2314,49 A3.75,3.75 0 0 1 57.7314,51.5 L64.7314,71.4883 L1353.5,71.4883 A2.5,2.5 0 0 1 1356,73.9883 L1356,916.43 A2.5,2.5 0 0 1 1353.5,918.93 L32.5,918.93 A2.5,2.5 0 0 1 30,916.43 L30,51.5 A2.5,2.5 0 0 1 32.5,49 " fill="none" style="stroke:#000000;stroke-width:1.5;"/><line style="stroke:#000000;stroke-width:1.5;" x1="30" x2="64.7314" y1="71.4883" y2="71.4883"/><text fill="#000000" font-family="sans-serif" font-size="14" font-weight="bold" lengthAdjust="spacing" textLength="21.7314" x="34" y="64.5352">src</text></g><!--cluster board--><g id="cluster_board"><path d="M56.5,92 L99.5889,92 A3.75,3.75 0 0 1 102.0889,94.5 L109.0889,114.4883 L1329.5,114.4883 A2.5,2.5 0 0 1 1332,116.9883 L1332,892.43 A2.5,2.5 0 0 1 1329.5,894.93 L56.5,894.93 A2.5,2.5 0 0 1 54,892.43 L54,94.5 A2.5,2.5 0 0 1 56.5,92 " fill="none" style="stroke:#000000;stroke-width:1.5;"/><line style="stroke:#000000;stroke-width:1.5;" x1="54" x2="109.0889" y1="114.4883" y2="114.4883"/><text fill="#000000" font-family="sans-serif" font-size="14" font-weight="bold" lengthAdjust="spacing" textLength="42.0889" x="58" y="107.5352">board</text></g><!--cluster src--><g id="cluster_src"><path d="M80.5,135 L103.2314,135 A3.75,3.75 0 0 1 105.7314,137.5 L112.7314,157.4883 L1305.5,157.4883 A2.5,2.5 0 0 1 1308,159.9883 L1308,868.43 A2.5,2.5 0 0 1 1305.5,870.93 L80.5,870.93 A2.5,2.5 0 0 1 78,868.43 L78,137.5 A2.5,2.5 0 0 1 80.5,135 " fill="none" style="stroke:#000000;stroke-width:1.5;"/><line style="stroke:#000000;stroke-width:1.5;" x1="78" x2="112.7314" y1="157.4883" y2="157.4883"/><text fill="#000000" font-family="sans-serif" font-size="14" font-weight="bold" lengthAdjust="spacing" textLength="21.7314" x="82" y="150.5352">src</text></g><!--cluster widgets--><g id="cluster_widgets"><path d="M104.5,416 L162.4365,416 A3.75,3.75 0 0 1 164.9365,418.5 L171.9365,438.4883 L1281.5,438.4883 A2.5,2.5 0 0 1 1284,440.9883 L1284,844.43 A2.5,2.5 0 0 1 1281.5,846.93 L104.5,846.93 A2.5,2.5 0 0 1 102,844.43 L102,418.5 A2.5,2.5 0 0 1 104.5,416 " fill="none" style="stroke:#000000;stroke-width:1.5;"/><line style="stroke:#000000;stroke-width:1.5;" x1="102" x2="171.9365" y1="438.4883" y2="438.4883"/><text fill="#000000" font-family="sans-serif" font-size="14" font-weight="bold" lengthAdjust="spacing" textLength="56.9365" x="106" y="431.5352">widgets</text></g><!--cluster get_size.dart--><g id="cluster_get_size.dart"><path d="M128.5,483.73 L221.5596,483.73 A3.75,3.75 0 0 1 224.0596,486.23 L231.0596,506.2183 L682.5,506.2183 A2.5,2.5 0 0 1 685,508.7183 L685,820.43 A2.5,2.5 0 0 1 682.5,822.93 L128.5,822.93 A2.5,2.5 0 0 1 126,820.43 L126,486.23 A2.5,2.5 0 0 1 128.5,483.73 " fill="none" style="stroke:#000000;stroke-width:1.5;"/><line style="stroke:#000000;stroke-width:1.5;" x1="126" x2="231.0596" y1="506.2183" y2="506.2183"/><text fill="#000000" font-family="sans-serif" font-size="14" font-weight="bold" lengthAdjust="spacing" textLength="92.0596" x="130" y="499.2652">get_size.dart</text></g><!--cluster ex_builder.dart--><g id="cluster_ex_builder.dart"><path d="M711.5,459 L820.3984,459 A3.75,3.75 0 0 1 822.8984,461.5 L829.8984,481.4883 L1257.5,481.4883 A2.5,2.5 0 0 1 1260,483.9883 L1260,654.43 A2.5,2.5 0 0 1 1257.5,656.93 L711.5,656.93 A2.5,2.5 0 0 1 709,654.43 L709,461.5 A2.5,2.5 0 0 1 711.5,459 " fill="none" style="stroke:#000000;stroke-width:1.5;"/><line style="stroke:#000000;stroke-width:1.5;" x1="709" x2="829.8984" y1="481.4883" y2="481.4883"/><text fill="#000000" font-family="sans-serif" font-size="14" font-weight="bold" lengthAdjust="spacing" textLength="107.8984" x="713" y="474.5352">ex_builder.dart</text></g><!--cluster helpers--><g id="cluster_helpers"><path d="M732.5,178 L787.21,178 A3.75,3.75 0 0 1 789.71,180.5 L796.71,200.4883 L901.5,200.4883 A2.5,2.5 0 0 1 904,202.9883 L904,341.5 A2.5,2.5 0 0 1 901.5,344 L732.5,344 A2.5,2.5 0 0 1 730,341.5 L730,180.5 A2.5,2.5 0 0 1 732.5,178 " fill="none" style="stroke:#000000;stroke-width:1.5;"/><line style="stroke:#000000;stroke-width:1.5;" x1="730" x2="796.71" y1="200.4883" y2="200.4883"/><text fill="#000000" font-family="sans-serif" font-size="14" font-weight="bold" lengthAdjust="spacing" textLength="53.71" x="734" y="193.5352">helpers</text></g><!--cluster safe_state.dart--><g id="cluster_safe_state.dart"><path d="M756.5,221 L863.3545,221 A3.75,3.75 0 0 1 865.8545,223.5 L872.8545,243.4883 L877.5,243.4883 A2.5,2.5 0 0 1 880,245.9883 L880,317.5 A2.5,2.5 0 0 1 877.5,320 L756.5,320 A2.5,2.5 0 0 1 754,317.5 L754,223.5 A2.5,2.5 0 0 1 756.5,221 " fill="none" style="stroke:#000000;stroke-width:1.5;"/><line style="stroke:#000000;stroke-width:1.5;" x1="754" x2="872.8545" y1="243.4883" y2="243.4883"/><text fill="#000000" font-family="sans-serif" font-size="14" font-weight="bold" lengthAdjust="spacing" textLength="105.8545" x="758" y="236.5352">safe_state.dart</text></g><!--cluster dart--><g id="cluster_dart"><path d="M1406.5,680.93 L1437.0449,680.93 A3.75,3.75 0 0 1 1439.5449,683.43 L1446.5449,703.4183 L1541.5,703.4183 A2.5,2.5 0 0 1 1544,705.9183 L1544,844.43 A2.5,2.5 0 0 1 1541.5,846.93 L1406.5,846.93 A2.5,2.5 0 0 1 1404,844.43 L1404,683.43 A2.5,2.5 0 0 1 1406.5,680.93 " fill="none" style="stroke:#000000;stroke-width:1.5;"/><line style="stroke:#000000;stroke-width:1.5;" x1="1404" x2="1446.5449" y1="703.4183" y2="703.4183"/><text fill="#000000" font-family="sans-serif" font-size="14" font-weight="bold" lengthAdjust="spacing" textLength="29.5449" x="1408" y="696.4652">dart</text></g><!--cluster ui--><g id="cluster_ui"><path d="M1430.5,723.93 L1445.2471,723.93 A3.75,3.75 0 0 1 1447.7471,726.43 L1454.7471,746.4183 L1517.5,746.4183 A2.5,2.5 0 0 1 1520,748.9183 L1520,820.43 A2.5,2.5 0 0 1 1517.5,822.93 L1430.5,822.93 A2.5,2.5 0 0 1 1428,820.43 L1428,726.43 A2.5,2.5 0 0 1 1430.5,723.93 " fill="none" style="stroke:#000000;stroke-width:1.5;"/><line style="stroke:#000000;stroke-width:1.5;" x1="1428" x2="1454.7471" y1="746.4183" y2="746.4183"/><text fill="#000000" font-family="sans-serif" font-size="14" font-weight="bold" lengthAdjust="spacing" textLength="13.7471" x="1432" y="739.4652">ui</text></g><!--cluster flutter--><g id="cluster_flutter"><path d="M1406.5,92 L1452.9658,92 A3.75,3.75 0 0 1 1455.4658,94.5 L1462.4658,114.4883 L2722.5,114.4883 A2.5,2.5 0 0 1 2725,116.9883 L2725,389.5 A2.5,2.5 0 0 1 2722.5,392 L1406.5,392 A2.5,2.5 0 0 1 1404,389.5 L1404,94.5 A2.5,2.5 0 0 1 1406.5,92 " fill="none" style="stroke:#000000;stroke-width:1.5;"/><line style="stroke:#000000;stroke-width:1.5;" x1="1404" x2="1462.4658" y1="114.4883" y2="114.4883"/><text fill="#000000" font-family="sans-serif" font-size="14" font-weight="bold" lengthAdjust="spacing" textLength="45.4658" x="1408" y="107.5352">flutter</text></g><!--cluster src--><g id="cluster_src"><path d="M1430.5,135 L1453.2314,135 A3.75,3.75 0 0 1 1455.7314,137.5 L1462.7314,157.4883 L2698.5,157.4883 A2.5,2.5 0 0 1 2701,159.9883 L2701,365.5 A2.5,2.5 0 0 1 2698.5,368 L1430.5,368 A2.5,2.5 0 0 1 1428,365.5 L1428,137.5 A2.5,2.5 0 0 1 1430.5,135 " fill="none" style="stroke:#000000;stroke-width:1.5;"/><line style="stroke:#000000;stroke-width:1.5;" x1="1428" x2="1462.7314" y1="157.4883" y2="157.4883"/><text fill="#000000" font-family="sans-serif" font-size="14" font-weight="bold" lengthAdjust="spacing" textLength="21.7314" x="1432" y="150.5352">src</text></g><!--cluster rendering--><g id="cluster_rendering"><path d="M1454.5,178 L1526.0879,178 A3.75,3.75 0 0 1 1528.5879,180.5 L1535.5879,200.4883 L1671.5,200.4883 A2.5,2.5 0 0 1 1674,202.9883 L1674,341.5 A2.5,2.5 0 0 1 1671.5,344 L1454.5,344 A2.5,2.5 0 0 1 1452,341.5 L1452,180.5 A2.5,2.5 0 0 1 1454.5,178 " fill="none" style="stroke:#000000;stroke-width:1.5;"/><line style="stroke:#000000;stroke-width:1.5;" x1="1452" x2="1535.5879" y1="200.4883" y2="200.4883"/><text fill="#000000" font-family="sans-serif" font-size="14" font-weight="bold" lengthAdjust="spacing" textLength="70.5879" x="1456" y="193.5352">rendering</text></g><!--cluster proxy_box.dart--><g id="cluster_proxy_box.dart"><path d="M1478.5,221 L1587.0088,221 A3.75,3.75 0 0 1 1589.5088,223.5 L1596.5088,243.4883 L1647.5,243.4883 A2.5,2.5 0 0 1 1650,245.9883 L1650,317.5 A2.5,2.5 0 0 1 1647.5,320 L1478.5,320 A2.5,2.5 0 0 1 1476,317.5 L1476,223.5 A2.5,2.5 0 0 1 1478.5,221 " fill="none" style="stroke:#000000;stroke-width:1.5;"/><line style="stroke:#000000;stroke-width:1.5;" x1="1476" x2="1596.5088" y1="243.4883" y2="243.4883"/><text fill="#000000" font-family="sans-serif" font-size="14" font-weight="bold" lengthAdjust="spacing" textLength="107.5088" x="1480" y="236.5352">proxy_box.dart</text></g><!--cluster widgets--><g id="cluster_widgets"><path d="M1700.5,178 L1758.4365,178 A3.75,3.75 0 0 1 1760.9365,180.5 L1767.9365,200.4883 L2400.5,200.4883 A2.5,2.5 0 0 1 2403,202.9883 L2403,341.5 A2.5,2.5 0 0 1 2400.5,344 L1700.5,344 A2.5,2.5 0 0 1 1698,341.5 L1698,180.5 A2.5,2.5 0 0 1 1700.5,178 " fill="none" style="stroke:#000000;stroke-width:1.5;"/><line style="stroke:#000000;stroke-width:1.5;" x1="1698" x2="1767.9365" y1="200.4883" y2="200.4883"/><text fill="#000000" font-family="sans-serif" font-size="14" font-weight="bold" lengthAdjust="spacing" textLength="56.9365" x="1702" y="193.5352">widgets</text></g><!--cluster framework.dart--><g id="cluster_framework.dart"><path d="M1724.5,221 L1836.9258,221 A3.75,3.75 0 0 1 1839.4258,223.5 L1846.4258,243.4883 L2376.5,243.4883 A2.5,2.5 0 0 1 2379,245.9883 L2379,317.5 A2.5,2.5 0 0 1 2376.5,320 L1724.5,320 A2.5,2.5 0 0 1 1722,317.5 L1722,223.5 A2.5,2.5 0 0 1 1724.5,221 " fill="none" style="stroke:#000000;stroke-width:1.5;"/><line style="stroke:#000000;stroke-width:1.5;" x1="1722" x2="1846.4258" y1="243.4883" y2="243.4883"/><text fill="#000000" font-family="sans-serif" font-size="14" font-weight="bold" lengthAdjust="spacing" textLength="111.4258" x="1726" y="236.5352">framework.dart</text></g><!--cluster foundation--><g id="cluster_foundation"><path d="M2429.5,178 L2509.5029,178 A3.75,3.75 0 0 1 2512.0029,180.5 L2519.0029,200.4883 L2674.5,200.4883 A2.5,2.5 0 0 1 2677,202.9883 L2677,341.5 A2.5,2.5 0 0 1 2674.5,344 L2429.5,344 A2.5,2.5 0 0 1 2427,341.5 L2427,180.5 A2.5,2.5 0 0 1 2429.5,178 " fill="none" style="stroke:#000000;stroke-width:1.5;"/><line style="stroke:#000000;stroke-width:1.5;" x1="2427" x2="2519.0029" y1="200.4883" y2="200.4883"/><text fill="#000000" font-family="sans-serif" font-size="14" font-weight="bold" lengthAdjust="spacing" textLength="79.0029" x="2431" y="193.5352">foundation</text></g><!--cluster change_notifier.dart--><g id="cluster_change_notifier.dart"><path d="M2453.5,221 L2599.2988,221 A3.75,3.75 0 0 1 2601.7988,223.5 L2608.7988,243.4883 L2650.5,243.4883 A2.5,2.5 0 0 1 2653,245.9883 L2653,317.5 A2.5,2.5 0 0 1 2650.5,320 L2453.5,320 A2.5,2.5 0 0 1 2451,317.5 L2451,223.5 A2.5,2.5 0 0 1 2453.5,221 " fill="none" style="stroke:#000000;stroke-width:1.5;"/><line style="stroke:#000000;stroke-width:1.5;" x1="2451" x2="2608.7988" y1="243.4883" y2="243.4883"/><text fill="#000000" font-family="sans-serif" font-size="14" font-weight="bold" lengthAdjust="spacing" textLength="144.7988" x="2455" y="236.5352">change_notifier.dart</text></g><!--cluster null--><g id="cluster_null"><path d="M1570.5,723.93 L1598.9941,723.93 A3.75,3.75 0 0 1 1601.4941,726.43 L1608.4941,746.4183 L2203.5,746.4183 A2.5,2.5 0 0 1 2206,748.9183 L2206,820.43 A2.5,2.5 0 0 1 2203.5,822.93 L1570.5,822.93 A2.5,2.5 0 0 1 1568,820.43 L1568,726.43 A2.5,2.5 0 0 1 1570.5,723.93 " fill="none" style="stroke:#000000;stroke-width:1.5;"/><line style="stroke:#000000;stroke-width:1.5;" x1="1568" x2="1608.4941" y1="746.4183" y2="746.4183"/><text fill="#000000" font-family="sans-serif" font-size="14" font-weight="bold" lengthAdjust="spacing" textLength="27.4941" x="1572" y="739.4652">null</text></g><!--class _MeasureSizeRenderObject--><g id="elem__MeasureSizeRenderObject"><rect codeLine="3" fill="#F1F1F1" height="97.4648" id="_MeasureSizeRenderObject" rx="2.5" ry="2.5" style="stroke:#181818;stroke-width:0.5;" width="227.3184" x="142.34" y="518.73"/><ellipse cx="162.798" cy="534.73" fill="#ADD1B2" rx="11" ry="11" style="stroke:#181818;stroke-width:1.0;"/><path d="M165.2712,540.8731 Q164.6901,541.1719 164.0509,541.3213 Q163.4118,541.4707 162.7062,541.4707 Q160.1994,541.4707 158.8796,539.8189 Q157.5597,538.167 157.5597,535.0459 Q157.5597,531.9165 158.8796,530.2647 Q160.1994,528.6128 162.7062,528.6128 Q163.4118,528.6128 164.0592,528.7622 Q164.7067,528.9116 165.2712,529.2105 L165.2712,531.9331 Q164.6403,531.3521 164.0468,531.0823 Q163.4533,530.8125 162.8224,530.8125 Q161.4777,530.8125 160.7929,531.8792 Q160.1081,532.9458 160.1081,535.0459 Q160.1081,537.1377 160.7929,538.2044 Q161.4777,539.271 162.8224,539.271 Q163.4533,539.271 164.0468,539.0012 Q164.6403,538.7315 165.2712,538.1504 Z " fill="#000000"/><text fill="#000000" font-family="sans-serif" font-size="14" lengthAdjust="spacing" textLength="183.1895" x="178.0109" y="540.021">_MeasureSizeRenderObject</text><line style="stroke:#181818;stroke-width:0.5;" x1="143.34" x2="368.6584" y1="550.73" y2="550.73"/><ellipse cx="153.34" cy="564.4741" fill="none" rx="3" ry="3" style="stroke:#038048;stroke-width:1.0;"/><text fill="#000000" font-family="sans-serif" font-size="14" lengthAdjust="spacing" textLength="86.6182" x="162.34" y="568.2652">Size? oldSize</text><line style="stroke:#181818;stroke-width:0.5;" x1="143.34" x2="368.6584" y1="575.2183" y2="575.2183"/><ellipse cx="153.34" cy="588.9624" fill="#84BE84" rx="3" ry="3" style="stroke:#038048;stroke-width:1.0;"/><text fill="#000000" font-family="sans-serif" font-size="14" lengthAdjust="spacing" textLength="201.3184" x="162.34" y="592.7534">void Function(Size) onChange</text><ellipse cx="153.34" cy="605.4507" fill="#84BE84" rx="3" ry="3" style="stroke:#038048;stroke-width:1.0;"/><text fill="#000000" font-family="sans-serif" font-size="14" lengthAdjust="spacing" textLength="142.1602" x="162.34" y="609.2417">void performLayout()</text></g><!--class void Function(Size)--><g id="elem_void Function(Size)"><rect fill="#F1F1F1" height="48" id="void Function(Size)" rx="2.5" ry="2.5" style="stroke:#181818;stroke-width:0.5;" width="160.2764" x="315.86" y="758.93"/><ellipse cx="330.86" cy="774.93" fill="#ADD1B2" rx="11" ry="11" style="stroke:#181818;stroke-width:1.0;"/><path d="M333.3331,781.0731 Q332.7521,781.3719 332.1129,781.5213 Q331.4738,781.6707 330.7682,781.6707 Q328.2614,781.6707 326.9415,780.0189 Q325.6217,778.367 325.6217,775.2459 Q325.6217,772.1165 326.9415,770.4647 Q328.2614,768.8128 330.7682,768.8128 Q331.4738,768.8128 332.1212,768.9622 Q332.7687,769.1116 333.3331,769.4105 L333.3331,772.1331 Q332.7023,771.5521 332.1088,771.2823 Q331.5153,771.0125 330.8844,771.0125 Q329.5397,771.0125 328.8549,772.0792 Q328.1701,773.1458 328.1701,775.2459 Q328.1701,777.3377 328.8549,778.4044 Q329.5397,779.471 330.8844,779.471 Q331.5153,779.471 332.1088,779.2012 Q332.7023,778.9315 333.3331,778.3504 Z " fill="#000000"/><text fill="#000000" font-family="sans-serif" font-size="14" lengthAdjust="spacing" textLength="128.2764" x="344.86" y="780.221">void Function(Size)</text><line style="stroke:#181818;stroke-width:0.5;" x1="316.86" x2="475.1364" y1="790.93" y2="790.93"/><line style="stroke:#181818;stroke-width:0.5;" x1="316.86" x2="475.1364" y1="798.93" y2="798.93"/></g><!--class GetSize--><g id="elem_GetSize"><rect codeLine="13" fill="#F1F1F1" height="80.9766" id="GetSize" rx="2.5" ry="2.5" style="stroke:#181818;stroke-width:0.5;" width="264.6699" x="404.67" y="526.98"/><ellipse cx="507.4722" cy="542.98" fill="#ADD1B2" rx="11" ry="11" style="stroke:#181818;stroke-width:1.0;"/><path d="M509.9454,549.1231 Q509.3643,549.4219 508.7252,549.5713 Q508.086,549.7207 507.3804,549.7207 Q504.8736,549.7207 503.5538,548.0689 Q502.234,546.417 502.234,543.2959 Q502.234,540.1665 503.5538,538.5147 Q504.8736,536.8628 507.3804,536.8628 Q508.086,536.8628 508.7335,537.0122 Q509.3809,537.1616 509.9454,537.4605 L509.9454,540.1831 Q509.3145,539.6021 508.721,539.3323 Q508.1275,539.0625 507.4967,539.0625 Q506.1519,539.0625 505.4671,540.1292 Q504.7823,541.1958 504.7823,543.2959 Q504.7823,545.3877 505.4671,546.4544 Q506.1519,547.521 507.4967,547.521 Q508.1275,547.521 508.721,547.2512 Q509.3145,546.9815 509.9454,546.4004 Z " fill="#000000"/><text fill="#000000" font-family="sans-serif" font-size="14" lengthAdjust="spacing" textLength="50.5654" x="527.9722" y="548.271">GetSize</text><line style="stroke:#181818;stroke-width:0.5;" x1="405.67" x2="668.3399" y1="558.98" y2="558.98"/><line style="stroke:#181818;stroke-width:0.5;" x1="405.67" x2="668.3399" y1="566.98" y2="566.98"/><ellipse cx="415.67" cy="580.7241" fill="#84BE84" rx="3" ry="3" style="stroke:#038048;stroke-width:1.0;"/><text fill="#000000" font-family="sans-serif" font-size="14" lengthAdjust="spacing" textLength="210.1299" x="424.67" y="584.5152">void Function(Size) onChanged</text><ellipse cx="415.67" cy="597.2124" fill="#84BE84" rx="3" ry="3" style="stroke:#038048;stroke-width:1.0;"/><text fill="#000000" font-family="sans-serif" font-size="14" lengthAdjust="spacing" textLength="238.6699" x="424.67" y="601.0034">RenderObject createRenderObject()</text></g><!--class ExBuilder--><g id="elem_ExBuilder"><rect codeLine="21" fill="#F1F1F1" height="146.9297" id="ExBuilder" rx="2.5" ry="2.5" style="stroke:#181818;stroke-width:0.5;" width="299.3486" x="944.33" y="494"/><ellipse cx="1058.08" cy="510" fill="#ADD1B2" rx="11" ry="11" style="stroke:#181818;stroke-width:1.0;"/><path d="M1060.5531,516.1431 Q1059.9721,516.4419 1059.3329,516.5913 Q1058.6938,516.7407 1057.9882,516.7407 Q1055.4814,516.7407 1054.1615,515.0889 Q1052.8417,513.437 1052.8417,510.3159 Q1052.8417,507.1865 1054.1615,505.5347 Q1055.4814,503.8828 1057.9882,503.8828 Q1058.6938,503.8828 1059.3412,504.0322 Q1059.9887,504.1816 1060.5531,504.4805 L1060.5531,507.2031 Q1059.9223,506.6221 1059.3288,506.3523 Q1058.7353,506.0825 1058.1044,506.0825 Q1056.7597,506.0825 1056.0749,507.1492 Q1055.3901,508.2158 1055.3901,510.3159 Q1055.3901,512.4077 1056.0749,513.4744 Q1056.7597,514.541 1058.1044,514.541 Q1058.7353,514.541 1059.3288,514.2712 Q1059.9223,514.0015 1060.5531,513.4204 Z " fill="#000000"/><text fill="#000000" font-family="sans-serif" font-size="14" lengthAdjust="spacing" textLength="63.3486" x="1078.58" y="515.291">ExBuilder</text><line style="stroke:#181818;stroke-width:0.5;" x1="945.33" x2="1242.6786" y1="526" y2="526"/><ellipse cx="955.33" cy="539.7441" fill="none" rx="3" ry="3" style="stroke:#038048;stroke-width:1.0;"/><text fill="#000000" font-family="sans-serif" font-size="14" lengthAdjust="spacing" textLength="245.998" x="964.33" y="543.5352">ValueListenable&lt;T&gt; valueListenable</text><ellipse cx="955.33" cy="556.2324" fill="none" rx="3" ry="3" style="stroke:#038048;stroke-width:1.0;"/><text fill="#000000" font-family="sans-serif" font-size="14" lengthAdjust="spacing" textLength="89.7012" x="964.33" y="560.0234">Widget? child</text><line style="stroke:#181818;stroke-width:0.5;" x1="945.33" x2="1242.6786" y1="566.9766" y2="566.9766"/><ellipse cx="955.33" cy="580.7207" fill="#84BE84" rx="3" ry="3" style="stroke:#038048;stroke-width:1.0;"/><text fill="#000000" font-family="sans-serif" font-size="14" lengthAdjust="spacing" textLength="185.8828" x="964.33" y="584.5117">Widget Function(T)? builder</text><ellipse cx="955.33" cy="597.209" fill="#84BE84" rx="3" ry="3" style="stroke:#038048;stroke-width:1.0;"/><text fill="#000000" font-family="sans-serif" font-size="14" lengthAdjust="spacing" textLength="273.3486" x="964.33" y="601">Widget Function(T, Widget)? childBuilder</text><ellipse cx="955.33" cy="613.6973" fill="#84BE84" rx="3" ry="3" style="stroke:#038048;stroke-width:1.0;"/><text fill="#000000" font-family="sans-serif" font-size="14" lengthAdjust="spacing" textLength="236.1475" x="964.33" y="617.4883">bool Function(T, T)? shouldRebuild</text><ellipse cx="955.33" cy="630.1855" fill="#84BE84" rx="3" ry="3" style="stroke:#038048;stroke-width:1.0;"/><text fill="#000000" font-family="sans-serif" font-size="14" lengthAdjust="spacing" textLength="242.375" x="964.33" y="633.9766">State&lt;StatefulWidget&gt; createState()</text></g><!--class _ExBuilderState--><g id="elem__ExBuilderState"><rect codeLine="37" fill="#F1F1F1" height="146.9297" id="_ExBuilderState" rx="2.5" ry="2.5" style="stroke:#181818;stroke-width:0.5;" width="184.6006" x="724.7" y="494"/><ellipse cx="761.6186" cy="510" fill="#ADD1B2" rx="11" ry="11" style="stroke:#181818;stroke-width:1.0;"/><path d="M764.0917,516.1431 Q763.5107,516.4419 762.8715,516.5913 Q762.2324,516.7407 761.5268,516.7407 Q759.02,516.7407 757.7001,515.0889 Q756.3803,513.437 756.3803,510.3159 Q756.3803,507.1865 757.7001,505.5347 Q759.02,503.8828 761.5268,503.8828 Q762.2324,503.8828 762.8798,504.0322 Q763.5273,504.1816 764.0917,504.4805 L764.0917,507.2031 Q763.4609,506.6221 762.8674,506.3523 Q762.2739,506.0825 761.643,506.0825 Q760.2983,506.0825 759.6135,507.1492 Q758.9287,508.2158 758.9287,510.3159 Q758.9287,512.4077 759.6135,513.4744 Q760.2983,514.541 761.643,514.541 Q762.2739,514.541 762.8674,514.2712 Q763.4609,514.0015 764.0917,513.4204 Z " fill="#000000"/><text fill="#000000" font-family="sans-serif" font-size="14" lengthAdjust="spacing" textLength="103.8926" x="780.4894" y="515.291">_ExBuilderState</text><line style="stroke:#181818;stroke-width:0.5;" x1="725.7" x2="908.3006" y1="526" y2="526"/><rect fill="none" height="6" style="stroke:#C82930;stroke-width:1.0;" width="6" x="732.7" y="536.7441"/><text fill="#000000" font-family="sans-serif" font-size="14" lengthAdjust="spacing" textLength="55.7949" x="744.7" y="543.5352">T _value</text><line style="stroke:#181818;stroke-width:0.5;" x1="725.7" x2="908.3006" y1="550.4883" y2="550.4883"/><ellipse cx="735.7" cy="564.2324" fill="#84BE84" rx="3" ry="3" style="stroke:#038048;stroke-width:1.0;"/><text fill="#000000" font-family="sans-serif" font-size="14" lengthAdjust="spacing" textLength="97.8018" x="744.7" y="568.0234">void initState()</text><ellipse cx="735.7" cy="580.7207" fill="#84BE84" rx="3" ry="3" style="stroke:#038048;stroke-width:1.0;"/><text fill="#000000" font-family="sans-serif" font-size="14" lengthAdjust="spacing" textLength="158.6006" x="744.7" y="584.5117">void didUpdateWidget()</text><ellipse cx="735.7" cy="597.209" fill="#84BE84" rx="3" ry="3" style="stroke:#038048;stroke-width:1.0;"/><text fill="#000000" font-family="sans-serif" font-size="14" lengthAdjust="spacing" textLength="94.582" x="744.7" y="601">void dispose()</text><rect fill="#F24D5C" height="6" style="stroke:#C82930;stroke-width:1.0;" width="6" x="732.7" y="610.6973"/><text fill="#000000" font-family="sans-serif" font-size="14" lengthAdjust="spacing" textLength="144.8877" x="744.7" y="617.4883">void _valueChanged()</text><ellipse cx="735.7" cy="630.1855" fill="#84BE84" rx="3" ry="3" style="stroke:#038048;stroke-width:1.0;"/><text fill="#000000" font-family="sans-serif" font-size="14" lengthAdjust="spacing" textLength="94.541" x="744.7" y="633.9766">Widget build()</text></g><!--class SafeState--><g id="elem_SafeState"><rect fill="#F1F1F1" height="48" id="SafeState" rx="2.5" ry="2.5" style="stroke:#181818;stroke-width:0.5;" width="93.7627" x="770.12" y="256"/><ellipse cx="785.12" cy="272" fill="#ADD1B2" rx="11" ry="11" style="stroke:#181818;stroke-width:1.0;"/><path d="M787.5931,278.1431 Q787.0121,278.4419 786.3729,278.5913 Q785.7338,278.7407 785.0282,278.7407 Q782.5214,278.7407 781.2015,277.0889 Q779.8817,275.437 779.8817,272.3159 Q779.8817,269.1865 781.2015,267.5347 Q782.5214,265.8828 785.0282,265.8828 Q785.7338,265.8828 786.3812,266.0322 Q787.0287,266.1816 787.5931,266.4805 L787.5931,269.2031 Q786.9623,268.6221 786.3688,268.3523 Q785.7753,268.0825 785.1444,268.0825 Q783.7997,268.0825 783.1149,269.1492 Q782.4301,270.2158 782.4301,272.3159 Q782.4301,274.4077 783.1149,275.4744 Q783.7997,276.541 785.1444,276.541 Q785.7753,276.541 786.3688,276.2712 Q786.9623,276.0015 787.5931,275.4204 Z " fill="#000000"/><text fill="#000000" font-family="sans-serif" font-size="14" lengthAdjust="spacing" textLength="61.7627" x="799.12" y="277.291">SafeState</text><line style="stroke:#181818;stroke-width:0.5;" x1="771.12" x2="862.8827" y1="288" y2="288"/><line style="stroke:#181818;stroke-width:0.5;" x1="771.12" x2="862.8827" y1="296" y2="296"/></g><!--class Size--><g id="elem_Size"><rect fill="#F1F1F1" height="48" id="Size" rx="2.5" ry="2.5" style="stroke:#181818;stroke-width:0.5;" width="59.4121" x="1444.29" y="758.93"/><ellipse cx="1459.29" cy="774.93" fill="#ADD1B2" rx="11" ry="11" style="stroke:#181818;stroke-width:1.0;"/><path d="M1461.7631,781.0731 Q1461.1821,781.3719 1460.5429,781.5213 Q1459.9038,781.6707 1459.1982,781.6707 Q1456.6914,781.6707 1455.3715,780.0189 Q1454.0517,778.367 1454.0517,775.2459 Q1454.0517,772.1165 1455.3715,770.4647 Q1456.6914,768.8128 1459.1982,768.8128 Q1459.9038,768.8128 1460.5512,768.9622 Q1461.1987,769.1116 1461.7631,769.4105 L1461.7631,772.1331 Q1461.1323,771.5521 1460.5388,771.2823 Q1459.9453,771.0125 1459.3144,771.0125 Q1457.9697,771.0125 1457.2849,772.0792 Q1456.6001,773.1458 1456.6001,775.2459 Q1456.6001,777.3377 1457.2849,778.4044 Q1457.9697,779.471 1459.3144,779.471 Q1459.9453,779.471 1460.5388,779.2012 Q1461.1323,778.9315 1461.7631,778.3504 Z " fill="#000000"/><text fill="#000000" font-family="sans-serif" font-size="14" lengthAdjust="spacing" textLength="27.4121" x="1473.29" y="780.221">Size</text><line style="stroke:#181818;stroke-width:0.5;" x1="1445.29" x2="1502.7021" y1="790.93" y2="790.93"/><line style="stroke:#181818;stroke-width:0.5;" x1="1445.29" x2="1502.7021" y1="798.93" y2="798.93"/></g><!--class RenderProxyBox--><g id="elem_RenderProxyBox"><rect fill="#F1F1F1" height="48" id="RenderProxyBox" rx="2.5" ry="2.5" style="stroke:#181818;stroke-width:0.5;" width="142.8857" x="1491.56" y="256"/><ellipse cx="1506.56" cy="272" fill="#ADD1B2" rx="11" ry="11" style="stroke:#181818;stroke-width:1.0;"/><path d="M1509.0331,278.1431 Q1508.4521,278.4419 1507.8129,278.5913 Q1507.1738,278.7407 1506.4682,278.7407 Q1503.9614,278.7407 1502.6415,277.0889 Q1501.3217,275.437 1501.3217,272.3159 Q1501.3217,269.1865 1502.6415,267.5347 Q1503.9614,265.8828 1506.4682,265.8828 Q1507.1738,265.8828 1507.8212,266.0322 Q1508.4687,266.1816 1509.0331,266.4805 L1509.0331,269.2031 Q1508.4023,268.6221 1507.8088,268.3523 Q1507.2153,268.0825 1506.5844,268.0825 Q1505.2397,268.0825 1504.5549,269.1492 Q1503.8701,270.2158 1503.8701,272.3159 Q1503.8701,274.4077 1504.5549,275.4744 Q1505.2397,276.541 1506.5844,276.541 Q1507.2153,276.541 1507.8088,276.2712 Q1508.4023,276.0015 1509.0331,275.4204 Z " fill="#000000"/><text fill="#000000" font-family="sans-serif" font-size="14" lengthAdjust="spacing" textLength="110.8857" x="1520.56" y="277.291">RenderProxyBox</text><line style="stroke:#181818;stroke-width:0.5;" x1="1492.56" x2="1633.4457" y1="288" y2="288"/><line style="stroke:#181818;stroke-width:0.5;" x1="1492.56" x2="1633.4457" y1="296" y2="296"/></g><!--class SingleChildRenderObjectWidget--><g id="elem_SingleChildRenderObjectWidget"><rect fill="#F1F1F1" height="48" id="SingleChildRenderObjectWidget" rx="2.5" ry="2.5" style="stroke:#181818;stroke-width:0.5;" width="246.5664" x="1737.72" y="256"/><ellipse cx="1752.72" cy="272" fill="#ADD1B2" rx="11" ry="11" style="stroke:#181818;stroke-width:1.0;"/><path d="M1755.1931,278.1431 Q1754.6121,278.4419 1753.9729,278.5913 Q1753.3338,278.7407 1752.6282,278.7407 Q1750.1214,278.7407 1748.8015,277.0889 Q1747.4817,275.437 1747.4817,272.3159 Q1747.4817,269.1865 1748.8015,267.5347 Q1750.1214,265.8828 1752.6282,265.8828 Q1753.3338,265.8828 1753.9812,266.0322 Q1754.6287,266.1816 1755.1931,266.4805 L1755.1931,269.2031 Q1754.5623,268.6221 1753.9688,268.3523 Q1753.3753,268.0825 1752.7444,268.0825 Q1751.3997,268.0825 1750.7149,269.1492 Q1750.0301,270.2158 1750.0301,272.3159 Q1750.0301,274.4077 1750.7149,275.4744 Q1751.3997,276.541 1752.7444,276.541 Q1753.3753,276.541 1753.9688,276.2712 Q1754.5623,276.0015 1755.1931,275.4204 Z " fill="#000000"/><text fill="#000000" font-family="sans-serif" font-size="14" lengthAdjust="spacing" textLength="214.5664" x="1766.72" y="277.291">SingleChildRenderObjectWidget</text><line style="stroke:#181818;stroke-width:0.5;" x1="1738.72" x2="1983.2864" y1="288" y2="288"/><line style="stroke:#181818;stroke-width:0.5;" x1="1738.72" x2="1983.2864" y1="296" y2="296"/></g><!--class Widget--><g id="elem_Widget"><rect fill="#F1F1F1" height="48" id="Widget" rx="2.5" ry="2.5" style="stroke:#181818;stroke-width:0.5;" width="78.6006" x="2119.7" y="256"/><ellipse cx="2134.7" cy="272" fill="#ADD1B2" rx="11" ry="11" style="stroke:#181818;stroke-width:1.0;"/><path d="M2137.1731,278.1431 Q2136.5921,278.4419 2135.9529,278.5913 Q2135.3138,278.7407 2134.6082,278.7407 Q2132.1014,278.7407 2130.7815,277.0889 Q2129.4617,275.437 2129.4617,272.3159 Q2129.4617,269.1865 2130.7815,267.5347 Q2132.1014,265.8828 2134.6082,265.8828 Q2135.3138,265.8828 2135.9612,266.0322 Q2136.6087,266.1816 2137.1731,266.4805 L2137.1731,269.2031 Q2136.5423,268.6221 2135.9488,268.3523 Q2135.3553,268.0825 2134.7244,268.0825 Q2133.3797,268.0825 2132.6949,269.1492 Q2132.0101,270.2158 2132.0101,272.3159 Q2132.0101,274.4077 2132.6949,275.4744 Q2133.3797,276.541 2134.7244,276.541 Q2135.3553,276.541 2135.9488,276.2712 Q2136.5423,276.0015 2137.1731,275.4204 Z " fill="#000000"/><text fill="#000000" font-family="sans-serif" font-size="14" lengthAdjust="spacing" textLength="46.6006" x="2148.7" y="277.291">Widget</text><line style="stroke:#181818;stroke-width:0.5;" x1="2120.7" x2="2197.3006" y1="288" y2="288"/><line style="stroke:#181818;stroke-width:0.5;" x1="2120.7" x2="2197.3006" y1="296" y2="296"/></g><!--class StatefulWidget--><g id="elem_StatefulWidget"><rect fill="#F1F1F1" height="48" id="StatefulWidget" rx="2.5" ry="2.5" style="stroke:#181818;stroke-width:0.5;" width="130.0273" x="2232.99" y="256"/><ellipse cx="2247.99" cy="272" fill="#ADD1B2" rx="11" ry="11" style="stroke:#181818;stroke-width:1.0;"/><path d="M2250.4631,278.1431 Q2249.8821,278.4419 2249.2429,278.5913 Q2248.6038,278.7407 2247.8982,278.7407 Q2245.3914,278.7407 2244.0715,277.0889 Q2242.7517,275.437 2242.7517,272.3159 Q2242.7517,269.1865 2244.0715,267.5347 Q2245.3914,265.8828 2247.8982,265.8828 Q2248.6038,265.8828 2249.2512,266.0322 Q2249.8987,266.1816 2250.4631,266.4805 L2250.4631,269.2031 Q2249.8323,268.6221 2249.2388,268.3523 Q2248.6453,268.0825 2248.0144,268.0825 Q2246.6697,268.0825 2245.9849,269.1492 Q2245.3001,270.2158 2245.3001,272.3159 Q2245.3001,274.4077 2245.9849,275.4744 Q2246.6697,276.541 2248.0144,276.541 Q2248.6453,276.541 2249.2388,276.2712 Q2249.8323,276.0015 2250.4631,275.4204 Z " fill="#000000"/><text fill="#000000" font-family="sans-serif" font-size="14" lengthAdjust="spacing" textLength="98.0273" x="2261.99" y="277.291">StatefulWidget</text><line style="stroke:#181818;stroke-width:0.5;" x1="2233.99" x2="2362.0173" y1="288" y2="288"/><line style="stroke:#181818;stroke-width:0.5;" x1="2233.99" x2="2362.0173" y1="296" y2="296"/></g><!--class State--><g id="elem_State"><rect fill="#F1F1F1" height="48" id="State" rx="2.5" ry="2.5" style="stroke:#181818;stroke-width:0.5;" width="65.5439" x="2019.23" y="256"/><ellipse cx="2034.23" cy="272" fill="#ADD1B2" rx="11" ry="11" style="stroke:#181818;stroke-width:1.0;"/><path d="M2036.7031,278.1431 Q2036.1221,278.4419 2035.4829,278.5913 Q2034.8438,278.7407 2034.1382,278.7407 Q2031.6314,278.7407 2030.3115,277.0889 Q2028.9917,275.437 2028.9917,272.3159 Q2028.9917,269.1865 2030.3115,267.5347 Q2031.6314,265.8828 2034.1382,265.8828 Q2034.8438,265.8828 2035.4912,266.0322 Q2036.1387,266.1816 2036.7031,266.4805 L2036.7031,269.2031 Q2036.0723,268.6221 2035.4788,268.3523 Q2034.8853,268.0825 2034.2544,268.0825 Q2032.9097,268.0825 2032.2249,269.1492 Q2031.5401,270.2158 2031.5401,272.3159 Q2031.5401,274.4077 2032.2249,275.4744 Q2032.9097,276.541 2034.2544,276.541 Q2034.8853,276.541 2035.4788,276.2712 Q2036.0723,276.0015 2036.7031,275.4204 Z " fill="#000000"/><text fill="#000000" font-family="sans-serif" font-size="14" lengthAdjust="spacing" textLength="33.5439" x="2048.23" y="277.291">State</text><line style="stroke:#181818;stroke-width:0.5;" x1="2020.23" x2="2083.7739" y1="288" y2="288"/><line style="stroke:#181818;stroke-width:0.5;" x1="2020.23" x2="2083.7739" y1="296" y2="296"/></g><!--class ValueListenable<T>--><g id="elem_ValueListenable&lt;T&gt;"><rect fill="#F1F1F1" height="48" id="ValueListenable&lt;T&gt;" rx="2.5" ry="2.5" style="stroke:#181818;stroke-width:0.5;" width="169.293" x="2467.35" y="256"/><ellipse cx="2482.35" cy="272" fill="#ADD1B2" rx="11" ry="11" style="stroke:#181818;stroke-width:1.0;"/><path d="M2484.8231,278.1431 Q2484.2421,278.4419 2483.6029,278.5913 Q2482.9638,278.7407 2482.2582,278.7407 Q2479.7514,278.7407 2478.4315,277.0889 Q2477.1117,275.437 2477.1117,272.3159 Q2477.1117,269.1865 2478.4315,267.5347 Q2479.7514,265.8828 2482.2582,265.8828 Q2482.9638,265.8828 2483.6112,266.0322 Q2484.2587,266.1816 2484.8231,266.4805 L2484.8231,269.2031 Q2484.1923,268.6221 2483.5988,268.3523 Q2483.0053,268.0825 2482.3744,268.0825 Q2481.0297,268.0825 2480.3449,269.1492 Q2479.6601,270.2158 2479.6601,272.3159 Q2479.6601,274.4077 2480.3449,275.4744 Q2481.0297,276.541 2482.3744,276.541 Q2483.0053,276.541 2483.5988,276.2712 Q2484.1923,276.0015 2484.8231,275.4204 Z " fill="#000000"/><text fill="#000000" font-family="sans-serif" font-size="14" lengthAdjust="spacing" textLength="137.293" x="2496.35" y="277.291">ValueListenable&lt;T&gt;</text><line style="stroke:#181818;stroke-width:0.5;" x1="2468.35" x2="2635.643" y1="288" y2="288"/><line style="stroke:#181818;stroke-width:0.5;" x1="2468.35" x2="2635.643" y1="296" y2="296"/></g><!--class Widget Function(T)--><g id="elem_Widget Function(T)"><rect fill="#F1F1F1" height="48" id="Widget Function(T)" rx="2.5" ry="2.5" style="stroke:#181818;stroke-width:0.5;" width="159.6133" x="2030.19" y="758.93"/><ellipse cx="2045.19" cy="774.93" fill="#ADD1B2" rx="11" ry="11" style="stroke:#181818;stroke-width:1.0;"/><path d="M2047.6631,781.0731 Q2047.0821,781.3719 2046.4429,781.5213 Q2045.8038,781.6707 2045.0982,781.6707 Q2042.5914,781.6707 2041.2715,780.0189 Q2039.9517,778.367 2039.9517,775.2459 Q2039.9517,772.1165 2041.2715,770.4647 Q2042.5914,768.8128 2045.0982,768.8128 Q2045.8038,768.8128 2046.4512,768.9622 Q2047.0987,769.1116 2047.6631,769.4105 L2047.6631,772.1331 Q2047.0323,771.5521 2046.4388,771.2823 Q2045.8453,771.0125 2045.2144,771.0125 Q2043.8697,771.0125 2043.1849,772.0792 Q2042.5001,773.1458 2042.5001,775.2459 Q2042.5001,777.3377 2043.1849,778.4044 Q2043.8697,779.471 2045.2144,779.471 Q2045.8453,779.471 2046.4388,779.2012 Q2047.0323,778.9315 2047.6631,778.3504 Z " fill="#000000"/><text fill="#000000" font-family="sans-serif" font-size="14" lengthAdjust="spacing" textLength="127.6133" x="2059.19" y="780.221">Widget Function(T)</text><line style="stroke:#181818;stroke-width:0.5;" x1="2031.19" x2="2188.8033" y1="790.93" y2="790.93"/><line style="stroke:#181818;stroke-width:0.5;" x1="2031.19" x2="2188.8033" y1="798.93" y2="798.93"/></g><!--class Widget Function(T, Widget)--><g id="elem_Widget Function(T, Widget)"><rect fill="#F1F1F1" height="48" id="Widget Function(T, Widget)" rx="2.5" ry="2.5" style="stroke:#181818;stroke-width:0.5;" width="215.0732" x="1584.46" y="758.93"/><ellipse cx="1599.46" cy="774.93" fill="#ADD1B2" rx="11" ry="11" style="stroke:#181818;stroke-width:1.0;"/><path d="M1601.9331,781.0731 Q1601.3521,781.3719 1600.7129,781.5213 Q1600.0738,781.6707 1599.3682,781.6707 Q1596.8614,781.6707 1595.5415,780.0189 Q1594.2217,778.367 1594.2217,775.2459 Q1594.2217,772.1165 1595.5415,770.4647 Q1596.8614,768.8128 1599.3682,768.8128 Q1600.0738,768.8128 1600.7212,768.9622 Q1601.3687,769.1116 1601.9331,769.4105 L1601.9331,772.1331 Q1601.3023,771.5521 1600.7088,771.2823 Q1600.1153,771.0125 1599.4844,771.0125 Q1598.1397,771.0125 1597.4549,772.0792 Q1596.7701,773.1458 1596.7701,775.2459 Q1596.7701,777.3377 1597.4549,778.4044 Q1598.1397,779.471 1599.4844,779.471 Q1600.1153,779.471 1600.7088,779.2012 Q1601.3023,778.9315 1601.9331,778.3504 Z " fill="#000000"/><text fill="#000000" font-family="sans-serif" font-size="14" lengthAdjust="spacing" textLength="183.0732" x="1613.46" y="780.221">Widget Function(T, Widget)</text><line style="stroke:#181818;stroke-width:0.5;" x1="1585.46" x2="1798.5332" y1="790.93" y2="790.93"/><line style="stroke:#181818;stroke-width:0.5;" x1="1585.46" x2="1798.5332" y1="798.93" y2="798.93"/></g><!--class bool Function(T, T)--><g id="elem_bool Function(T, T)"><rect fill="#F1F1F1" height="48" id="bool Function(T, T)" rx="2.5" ry="2.5" style="stroke:#181818;stroke-width:0.5;" width="160.7822" x="1834.61" y="758.93"/><ellipse cx="1849.61" cy="774.93" fill="#ADD1B2" rx="11" ry="11" style="stroke:#181818;stroke-width:1.0;"/><path d="M1852.0831,781.0731 Q1851.5021,781.3719 1850.8629,781.5213 Q1850.2238,781.6707 1849.5182,781.6707 Q1847.0114,781.6707 1845.6915,780.0189 Q1844.3717,778.367 1844.3717,775.2459 Q1844.3717,772.1165 1845.6915,770.4647 Q1847.0114,768.8128 1849.5182,768.8128 Q1850.2238,768.8128 1850.8712,768.9622 Q1851.5187,769.1116 1852.0831,769.4105 L1852.0831,772.1331 Q1851.4523,771.5521 1850.8588,771.2823 Q1850.2653,771.0125 1849.6344,771.0125 Q1848.2897,771.0125 1847.6049,772.0792 Q1846.9201,773.1458 1846.9201,775.2459 Q1846.9201,777.3377 1847.6049,778.4044 Q1848.2897,779.471 1849.6344,779.471 Q1850.2653,779.471 1850.8588,779.2012 Q1851.4523,778.9315 1852.0831,778.3504 Z " fill="#000000"/><text fill="#000000" font-family="sans-serif" font-size="14" lengthAdjust="spacing" textLength="128.7822" x="1863.61" y="780.221">bool Function(T, T)</text><line style="stroke:#181818;stroke-width:0.5;" x1="1835.61" x2="1994.3922" y1="790.93" y2="790.93"/><line style="stroke:#181818;stroke-width:0.5;" x1="1835.61" x2="1994.3922" y1="798.93" y2="798.93"/></g><!--reverse link _MeasureSizeRenderObject to Size--><g id="link__MeasureSizeRenderObject_Size"><path codeLine="9" d="M315.1947,624.0766 C338.0447,642.8866 357.35,654.75 387,664.93 C418.33,675.69 651.99,670.21 685,672.93 C982.68,697.41 1339.73,758.18 1444.03,776.57 " fill="none" id="_MeasureSizeRenderObject-backto-Size" style="stroke:#181818;stroke-width:1.0;"/><polygon fill="none" points="305.93,616.45,308.0201,623.3515,315.1947,624.0766,313.1046,617.1751,305.93,616.45" style="stroke:#181818;stroke-width:1.0;"/></g><!--reverse link _MeasureSizeRenderObject to void Function(Size)--><g id="link__MeasureSizeRenderObject_void Function(Size)"><path codeLine="10" d="M294.1719,626.6738 C323.2119,670.9438 358.43,724.64 380.69,758.58 " fill="none" id="_MeasureSizeRenderObject-backto-void Function(Size)" style="stroke:#181818;stroke-width:1.0;"/><polygon fill="none" points="287.59,616.64,287.5364,623.8509,294.1719,626.6738,294.2256,619.4629,287.59,616.64" style="stroke:#181818;stroke-width:1.0;"/></g><!--reverse link RenderProxyBox to _MeasureSizeRenderObject--><g id="link_RenderProxyBox__MeasureSizeRenderObject"><path codeLine="11" d="M1473.6423,301.1962 C1349.7523,328.5162 1104.98,378.71 880,400 C852.73,402.58 411.69,396.13 387,408 C339.23,430.97 302.8,480.61 280.63,518.25 " fill="none" id="RenderProxyBox-backto-_MeasureSizeRenderObject" style="stroke:#181818;stroke-width:1.0;"/><polygon fill="none" points="1491.22,297.32,1472.3502,295.337,1474.9344,307.0554,1491.22,297.32" style="stroke:#181818;stroke-width:1.0;"/></g><!--reverse link GetSize to void Function(Size)--><g id="link_GetSize_void Function(Size)"><path codeLine="18" d="M504.0259,618.3827 C474.7759,662.6627 435.17,722.63 411.34,758.71 " fill="none" id="GetSize-backto-void Function(Size)" style="stroke:#181818;stroke-width:1.0;"/><polygon fill="none" points="510.64,608.37,503.9954,611.1717,504.0259,618.3827,510.6705,615.581,510.64,608.37" style="stroke:#181818;stroke-width:1.0;"/></g><!--reverse link SingleChildRenderObjectWidget to GetSize--><g id="link_SingleChildRenderObjectWidget_GetSize"><path codeLine="19" d="M1816.5529,315.2235 C1777.4829,344.2035 1720.29,381.22 1650,400 C1599.49,413.49 757.62,388.78 709,408 C648.4,431.96 596.18,488.16 565.65,526.76 " fill="none" id="SingleChildRenderObjectWidget-backto-GetSize" style="stroke:#181818;stroke-width:1.0;"/><polygon fill="none" points="1831.01,304.5,1812.9784,310.4044,1820.1274,320.0425,1831.01,304.5" style="stroke:#181818;stroke-width:1.0;"/></g><!--reverse link ExBuilder to ValueListenable<T>--><g id="link_ExBuilder_ValueListenable&lt;T&gt;"><path codeLine="30" d="M1256.0262,555.0094 C1549.0062,532.9594 2174.37,478.35 2379,400 C2437.22,377.71 2494.85,332.1 2526.7,304.27 " fill="none" id="ExBuilder-backto-ValueListenable&lt;T&gt;" style="stroke:#181818;stroke-width:1.0;"/><polygon fill="none" points="1244.06,555.91,1250.3433,559.4484,1256.0262,555.0094,1249.7429,551.471,1244.06,555.91" style="stroke:#181818;stroke-width:1.0;"/></g><!--reverse link ExBuilder to Widget--><g id="link_ExBuilder_Widget"><path codeLine="31" d="M1255.7954,557.7317 C1502.7054,541.8917 1969.1,499.76 2102,400 C2133.15,376.62 2148.06,331.82 2154.57,304.35 " fill="none" id="ExBuilder-backto-Widget" style="stroke:#181818;stroke-width:1.0;"/><polygon fill="none" points="1243.82,558.5,1250.0638,562.1077,1255.7954,557.7317,1249.5516,554.1241,1243.82,558.5" style="stroke:#181818;stroke-width:1.0;"/></g><!--reverse link ExBuilder to Widget Function(T)--><g id="link_ExBuilder_Widget Function(T)"><path codeLine="32" d="M1255.7417,573.0456 C1480.9917,581.4156 1882.57,605.29 2013,672.93 C2050.55,692.4 2080.39,732.86 2096.6,758.63 " fill="none" id="ExBuilder-backto-Widget Function(T)" style="stroke:#181818;stroke-width:1.0;"/><polygon fill="none" points="1243.75,572.6,1249.5973,576.82,1255.7417,573.0456,1249.8944,568.8256,1243.75,572.6" style="stroke:#181818;stroke-width:1.0;"/></g><!--reverse link ExBuilder to Widget Function(T, Widget)--><g id="link_ExBuilder_Widget Function(T, Widget)"><path codeLine="33" d="M1255.4691,595.1725 C1338.9191,611.7825 1431.73,635.33 1520,672.93 C1573.34,695.65 1628.93,733.99 1661.99,758.62 " fill="none" id="ExBuilder-backto-Widget Function(T, Widget)" style="stroke:#181818;stroke-width:1.0;"/><polygon fill="none" points="1243.7,592.83,1248.8037,597.9243,1255.4691,595.1725,1250.3654,590.0782,1243.7,592.83" style="stroke:#181818;stroke-width:1.0;"/></g><!--reverse link ExBuilder to bool Function(T, T)--><g id="link_ExBuilder_bool Function(T, T)"><path codeLine="34" d="M1255.7559,579.004 C1437.7659,592.754 1720.54,621.35 1817,672.93 C1854.48,692.97 1884.76,733.25 1901.29,758.83 " fill="none" id="ExBuilder-backto-bool Function(T, T)" style="stroke:#181818;stroke-width:1.0;"/><polygon fill="none" points="1243.79,578.1,1249.4716,582.5406,1255.7559,579.004,1250.0743,574.5633,1243.79,578.1" style="stroke:#181818;stroke-width:1.0;"/></g><!--reverse link StatefulWidget to ExBuilder--><g id="link_StatefulWidget_ExBuilder"><path codeLine="35" d="M2281.6875,320.623 C2269.5375,348.313 2252.41,377.31 2216,400 C2056.51,499.41 1511.1,543.12 1243.93,558.93 " fill="none" id="StatefulWidget-backto-ExBuilder" style="stroke:#181818;stroke-width:1.0;"/><polygon fill="none" points="2288.92,304.14,2276.1931,318.2122,2287.1818,323.0339,2288.92,304.14" style="stroke:#181818;stroke-width:1.0;"/></g><!--reverse link State to _ExBuilderState--><g id="link_State__ExBuilderState"><path codeLine="46" d="M2047.1064,321.9078 C2042.9664,350.0078 2034.02,378.55 2002,400 C1977.19,416.62 953.41,394.06 927,408 C892.2,426.37 866.17,461.26 848.2,493.64 " fill="none" id="State-backto-_ExBuilderState" style="stroke:#181818;stroke-width:1.0;"/><polygon fill="none" points="2049.73,304.1,2041.1704,321.0332,2053.0423,322.7823,2049.73,304.1" style="stroke:#181818;stroke-width:1.0;"/></g><!--reverse link SafeState to _ExBuilderState--><g id="link_SafeState__ExBuilderState"><path codeLine="47" d="M817,322.36 C817,363.24 817,431.33 817,493.72 " fill="none" id="SafeState-backto-_ExBuilderState" style="stroke:#181818;stroke-width:1.0;"/><polygon fill="none" points="817,304.36,811,322.36,823,322.36,817,304.36" style="stroke:#181818;stroke-width:1.0;"/></g><!--SRC=[jLR9Rjim4BthAmYTOhJkeKV2Y047RIyfMjHkUnGeSMIpOKY1YwDq-VToasorZW4lkWZIuonlPjuGqc2G88-W6rB14XgYY94AOPnb5ITQermtx06AxLkCjQemBYLHDBq_CRe6ep5spqApd_264cKmBZu2qLR1qa5VG51GdyeVK9aS_SeGUkNXEPAS-XSFR2MZwBqLbM5It7XqWgIusn2ntfqte6gf7k_9ixJcPfBzoRBhSfFJASgZaMKOUuDyZ1HdH3pG84UjvjOOKCbNXKnCh35kb6oVYrAsoJsI-EpHXMnpDFjz9eyNAxj4BH_0X5v7SHpJ0lK6-tbHfO2O0PNpbT7p67DAlM-jtDOzIVMGd9TkSXpkDepJ_NA-1_iBHjPLTTA4e2rAwvY0Ib7UjOludQRqZN0BzqmR4AJaC5lTekqGybQH_1nLlgeTiElHQZ97AT71uzSeGfCKOx6pBQNa0qiVIs-azVqBCSDLOvmyPk5PMnw3tIRL1FG4kHnhIf3CSDArj88IpmxZAiYt4DAmclN-_pSn7uN9YvfBuhfIKc4vxsBkZtZa-Br6hfldWBvEMEQ1u4xPtYFiBjlWeWyKoCKzdgvG4VQsltcPOAPRZ0wZZ7vjd9GXbZCuqOtKqNOQa1WkNTVHCaqiq4dhTaeRB-hUlrKVbSW6kFl9S64qgQ7Gtg4Zue0Ho6H_0G00]--></g></svg>