<svg xmlns="http://www.w3.org/2000/svg" xmlns:xlink="http://www.w3.org/1999/xlink" contentStyleType="text/css" height="1621px" preserveAspectRatio="none" style="width:4774px;height:1621px;background:#FFFFFF;" version="1.1" viewBox="0 0 4774 1621" width="4774px" zoomAndPan="magnify"><defs/><g><!--cluster spike_v2--><g id="cluster_spike_v2"><path d="M8.5,330 L72.8486,330 A3.75,3.75 0 0 1 75.3486,332.5 L82.3486,352.4883 L1687.5,352.4883 A2.5,2.5 0 0 1 1690,354.9883 L1690,1612.08 A2.5,2.5 0 0 1 1687.5,1614.58 L8.5,1614.58 A2.5,2.5 0 0 1 6,1612.08 L6,332.5 A2.5,2.5 0 0 1 8.5,330 " fill="none" style="stroke:#000000;stroke-width:1.5;"/><line style="stroke:#000000;stroke-width:1.5;" x1="6" x2="82.3486" y1="352.4883" y2="352.4883"/><text fill="#000000" font-family="sans-serif" font-size="14" font-weight="bold" lengthAdjust="spacing" textLength="63.3486" x="10" y="345.5352">spike_v2</text></g><!--cluster src--><g id="cluster_src"><path d="M32.5,373 L55.2314,373 A3.75,3.75 0 0 1 57.7314,375.5 L64.7314,395.4883 L1663.5,395.4883 A2.5,2.5 0 0 1 1666,397.9883 L1666,1588.08 A2.5,2.5 0 0 1 1663.5,1590.58 L32.5,1590.58 A2.5,2.5 0 0 1 30,1588.08 L30,375.5 A2.5,2.5 0 0 1 32.5,373 " fill="none" style="stroke:#000000;stroke-width:1.5;"/><line style="stroke:#000000;stroke-width:1.5;" x1="30" x2="64.7314" y1="395.4883" y2="395.4883"/><text fill="#000000" font-family="sans-serif" font-size="14" font-weight="bold" lengthAdjust="spacing" textLength="21.7314" x="34" y="388.5352">src</text></g><!--cluster board--><g id="cluster_board"><path d="M56.5,416 L99.5889,416 A3.75,3.75 0 0 1 102.0889,418.5 L109.0889,438.4883 L1429.5,438.4883 A2.5,2.5 0 0 1 1432,440.9883 L1432,1564.08 A2.5,2.5 0 0 1 1429.5,1566.58 L56.5,1566.58 A2.5,2.5 0 0 1 54,1564.08 L54,418.5 A2.5,2.5 0 0 1 56.5,416 " fill="none" style="stroke:#000000;stroke-width:1.5;"/><line style="stroke:#000000;stroke-width:1.5;" x1="54" x2="109.0889" y1="438.4883" y2="438.4883"/><text fill="#000000" font-family="sans-serif" font-size="14" font-weight="bold" lengthAdjust="spacing" textLength="42.0889" x="58" y="431.5352">board</text></g><!--cluster src--><g id="cluster_src"><path d="M80.5,459 L103.2314,459 A3.75,3.75 0 0 1 105.7314,461.5 L112.7314,481.4883 L1405.5,481.4883 A2.5,2.5 0 0 1 1408,483.9883 L1408,1540.08 A2.5,2.5 0 0 1 1405.5,1542.58 L80.5,1542.58 A2.5,2.5 0 0 1 78,1540.08 L78,461.5 A2.5,2.5 0 0 1 80.5,459 " fill="none" style="stroke:#000000;stroke-width:1.5;"/><line style="stroke:#000000;stroke-width:1.5;" x1="78" x2="112.7314" y1="481.4883" y2="481.4883"/><text fill="#000000" font-family="sans-serif" font-size="14" font-weight="bold" lengthAdjust="spacing" textLength="21.7314" x="82" y="474.5352">src</text></g><!--cluster stack_item_case--><g id="cluster_stack_item_case"><path d="M104.5,502 L221.4375,502 A3.75,3.75 0 0 1 223.9375,504.5 L230.9375,524.4883 L1381.5,524.4883 A2.5,2.5 0 0 1 1384,526.9883 L1384,1259.08 A2.5,2.5 0 0 1 1381.5,1261.58 L104.5,1261.58 A2.5,2.5 0 0 1 102,1259.08 L102,504.5 A2.5,2.5 0 0 1 104.5,502 " fill="none" style="stroke:#000000;stroke-width:1.5;"/><line style="stroke:#000000;stroke-width:1.5;" x1="102" x2="230.9375" y1="524.4883" y2="524.4883"/><text fill="#000000" font-family="sans-serif" font-size="14" font-weight="bold" lengthAdjust="spacing" textLength="115.9375" x="106" y="517.5352">stack_item_case</text></g><!--cluster config_builder.dart--><g id="cluster_config_builder.dart"><path d="M924.5,800.57 L1062.1025,800.57 A3.75,3.75 0 0 1 1064.6025,803.07 L1071.6025,823.0583 L1357.5,823.0583 A2.5,2.5 0 0 1 1360,825.5583 L1360,979.51 A2.5,2.5 0 0 1 1357.5,982.01 L924.5,982.01 A2.5,2.5 0 0 1 922,979.51 L922,803.07 A2.5,2.5 0 0 1 924.5,800.57 " fill="none" style="stroke:#000000;stroke-width:1.5;"/><line style="stroke:#000000;stroke-width:1.5;" x1="922" x2="1071.6025" y1="823.0583" y2="823.0583"/><text fill="#000000" font-family="sans-serif" font-size="14" font-weight="bold" lengthAdjust="spacing" textLength="136.6025" x="926" y="816.1052">config_builder.dart</text></g><!--cluster stack_item_case.dart--><g id="cluster_stack_item_case.dart"><path d="M128.5,545 L278.4414,545 A3.75,3.75 0 0 1 280.9414,547.5 L287.9414,567.4883 L895.5,567.4883 A2.5,2.5 0 0 1 898,569.9883 L898,1235.08 A2.5,2.5 0 0 1 895.5,1237.58 L128.5,1237.58 A2.5,2.5 0 0 1 126,1235.08 L126,547.5 A2.5,2.5 0 0 1 128.5,545 " fill="none" style="stroke:#000000;stroke-width:1.5;"/><line style="stroke:#000000;stroke-width:1.5;" x1="126" x2="287.9414" y1="567.4883" y2="567.4883"/><text fill="#000000" font-family="sans-serif" font-size="14" font-weight="bold" lengthAdjust="spacing" textLength="148.9414" x="130" y="560.5352">stack_item_case.dart</text></g><!--cluster core--><g id="cluster_core"><path d="M144.5,1285.58 L176.46,1285.58 A3.75,3.75 0 0 1 178.96,1288.08 L185.96,1308.0683 L659.5,1308.0683 A2.5,2.5 0 0 1 662,1310.5683 L662,1516.08 A2.5,2.5 0 0 1 659.5,1518.58 L144.5,1518.58 A2.5,2.5 0 0 1 142,1516.08 L142,1288.08 A2.5,2.5 0 0 1 144.5,1285.58 " fill="none" style="stroke:#000000;stroke-width:1.5;"/><line style="stroke:#000000;stroke-width:1.5;" x1="142" x2="185.96" y1="1308.0683" y2="1308.0683"/><text fill="#000000" font-family="sans-serif" font-size="14" font-weight="bold" lengthAdjust="spacing" textLength="30.96" x="146" y="1301.1152">core</text></g><!--cluster stack_board_item--><g id="cluster_stack_board_item"><path d="M168.5,1328.58 L295.7256,1328.58 A3.75,3.75 0 0 1 298.2256,1331.08 L305.2256,1351.0683 L483.5,1351.0683 A2.5,2.5 0 0 1 486,1353.5683 L486,1492.08 A2.5,2.5 0 0 1 483.5,1494.58 L168.5,1494.58 A2.5,2.5 0 0 1 166,1492.08 L166,1331.08 A2.5,2.5 0 0 1 168.5,1328.58 " fill="none" style="stroke:#000000;stroke-width:1.5;"/><line style="stroke:#000000;stroke-width:1.5;" x1="166" x2="305.2256" y1="1351.0683" y2="1351.0683"/><text fill="#000000" font-family="sans-serif" font-size="14" font-weight="bold" lengthAdjust="spacing" textLength="126.2256" x="170" y="1344.1152">stack_board_item</text></g><!--cluster stack_item.dart--><g id="cluster_stack_item.dart"><path d="M192.5,1371.58 L303.6406,1371.58 A3.75,3.75 0 0 1 306.1406,1374.08 L313.1406,1394.0683 L459.5,1394.0683 A2.5,2.5 0 0 1 462,1396.5683 L462,1468.08 A2.5,2.5 0 0 1 459.5,1470.58 L192.5,1470.58 A2.5,2.5 0 0 1 190,1468.08 L190,1374.08 A2.5,2.5 0 0 1 192.5,1371.58 " fill="none" style="stroke:#000000;stroke-width:1.5;"/><line style="stroke:#000000;stroke-width:1.5;" x1="190" x2="313.1406" y1="1394.0683" y2="1394.0683"/><text fill="#000000" font-family="sans-serif" font-size="14" font-weight="bold" lengthAdjust="spacing" textLength="110.1406" x="194" y="1387.1152">stack_item.dart</text></g><!--cluster case_style.dart--><g id="cluster_case_style.dart"><path d="M512.5,1371.58 L619.8125,1371.58 A3.75,3.75 0 0 1 622.3125,1374.08 L629.3125,1394.0683 L635.5,1394.0683 A2.5,2.5 0 0 1 638,1396.5683 L638,1468.08 A2.5,2.5 0 0 1 635.5,1470.58 L512.5,1470.58 A2.5,2.5 0 0 1 510,1468.08 L510,1374.08 A2.5,2.5 0 0 1 512.5,1371.58 " fill="none" style="stroke:#000000;stroke-width:1.5;"/><line style="stroke:#000000;stroke-width:1.5;" x1="510" x2="629.3125" y1="1394.0683" y2="1394.0683"/><text fill="#000000" font-family="sans-serif" font-size="14" font-weight="bold" lengthAdjust="spacing" textLength="106.3125" x="514" y="1387.1152">case_style.dart</text></g><!--cluster repo--><g id="cluster_repo"><path d="M1458.5,1328.58 L1492.2852,1328.58 A3.75,3.75 0 0 1 1494.7852,1331.08 L1501.7852,1351.0683 L1639.5,1351.0683 A2.5,2.5 0 0 1 1642,1353.5683 L1642,1492.08 A2.5,2.5 0 0 1 1639.5,1494.58 L1458.5,1494.58 A2.5,2.5 0 0 1 1456,1492.08 L1456,1331.08 A2.5,2.5 0 0 1 1458.5,1328.58 " fill="none" style="stroke:#000000;stroke-width:1.5;"/><line style="stroke:#000000;stroke-width:1.5;" x1="1456" x2="1501.7852" y1="1351.0683" y2="1351.0683"/><text fill="#000000" font-family="sans-serif" font-size="14" font-weight="bold" lengthAdjust="spacing" textLength="32.7852" x="1460" y="1344.1152">repo</text></g><!--cluster home_repo.dart--><g id="cluster_home_repo.dart"><path d="M1482.5,1371.58 L1596.2041,1371.58 A3.75,3.75 0 0 1 1598.7041,1374.08 L1605.7041,1394.0683 L1615.5,1394.0683 A2.5,2.5 0 0 1 1618,1396.5683 L1618,1468.08 A2.5,2.5 0 0 1 1615.5,1470.58 L1482.5,1470.58 A2.5,2.5 0 0 1 1480,1468.08 L1480,1374.08 A2.5,2.5 0 0 1 1482.5,1371.58 " fill="none" style="stroke:#000000;stroke-width:1.5;"/><line style="stroke:#000000;stroke-width:1.5;" x1="1480" x2="1605.7041" y1="1394.0683" y2="1394.0683"/><text fill="#000000" font-family="sans-serif" font-size="14" font-weight="bold" lengthAdjust="spacing" textLength="112.7041" x="1484" y="1387.1152">home_repo.dart</text></g><!--cluster null--><g id="cluster_null"><path d="M1716.5,1371.58 L1744.9941,1371.58 A3.75,3.75 0 0 1 1747.4941,1374.08 L1754.4941,1394.0683 L4492.5,1394.0683 A2.5,2.5 0 0 1 4495,1396.5683 L4495,1468.08 A2.5,2.5 0 0 1 4492.5,1470.58 L1716.5,1470.58 A2.5,2.5 0 0 1 1714,1468.08 L1714,1374.08 A2.5,2.5 0 0 1 1716.5,1371.58 " fill="none" style="stroke:#000000;stroke-width:1.5;"/><line style="stroke:#000000;stroke-width:1.5;" x1="1714" x2="1754.4941" y1="1394.0683" y2="1394.0683"/><text fill="#000000" font-family="sans-serif" font-size="14" font-weight="bold" lengthAdjust="spacing" textLength="27.4941" x="1718" y="1387.1152">null</text></g><!--cluster flutter--><g id="cluster_flutter"><path d="M470.5,6 L516.9658,6 A3.75,3.75 0 0 1 519.4658,8.5 L526.4658,28.4883 L1364.5,28.4883 A2.5,2.5 0 0 1 1367,30.9883 L1367,303.5 A2.5,2.5 0 0 1 1364.5,306 L470.5,306 A2.5,2.5 0 0 1 468,303.5 L468,8.5 A2.5,2.5 0 0 1 470.5,6 " fill="none" style="stroke:#000000;stroke-width:1.5;"/><line style="stroke:#000000;stroke-width:1.5;" x1="468" x2="526.4658" y1="28.4883" y2="28.4883"/><text fill="#000000" font-family="sans-serif" font-size="14" font-weight="bold" lengthAdjust="spacing" textLength="45.4658" x="472" y="21.5352">flutter</text></g><!--cluster src--><g id="cluster_src"><path d="M494.5,49 L517.2314,49 A3.75,3.75 0 0 1 519.7314,51.5 L526.7314,71.4883 L1340.5,71.4883 A2.5,2.5 0 0 1 1343,73.9883 L1343,279.5 A2.5,2.5 0 0 1 1340.5,282 L494.5,282 A2.5,2.5 0 0 1 492,279.5 L492,51.5 A2.5,2.5 0 0 1 494.5,49 " fill="none" style="stroke:#000000;stroke-width:1.5;"/><line style="stroke:#000000;stroke-width:1.5;" x1="492" x2="526.7314" y1="71.4883" y2="71.4883"/><text fill="#000000" font-family="sans-serif" font-size="14" font-weight="bold" lengthAdjust="spacing" textLength="21.7314" x="496" y="64.5352">src</text></g><!--cluster widgets--><g id="cluster_widgets"><path d="M518.5,92 L576.4365,92 A3.75,3.75 0 0 1 578.9365,94.5 L585.9365,114.4883 L1110.5,114.4883 A2.5,2.5 0 0 1 1113,116.9883 L1113,255.5 A2.5,2.5 0 0 1 1110.5,258 L518.5,258 A2.5,2.5 0 0 1 516,255.5 L516,94.5 A2.5,2.5 0 0 1 518.5,92 " fill="none" style="stroke:#000000;stroke-width:1.5;"/><line style="stroke:#000000;stroke-width:1.5;" x1="516" x2="585.9365" y1="114.4883" y2="114.4883"/><text fill="#000000" font-family="sans-serif" font-size="14" font-weight="bold" lengthAdjust="spacing" textLength="56.9365" x="520" y="107.5352">widgets</text></g><!--cluster framework.dart--><g id="cluster_framework.dart"><path d="M542.5,135 L654.9258,135 A3.75,3.75 0 0 1 657.4258,137.5 L664.4258,157.4883 L1086.5,157.4883 A2.5,2.5 0 0 1 1089,159.9883 L1089,231.5 A2.5,2.5 0 0 1 1086.5,234 L542.5,234 A2.5,2.5 0 0 1 540,231.5 L540,137.5 A2.5,2.5 0 0 1 542.5,135 " fill="none" style="stroke:#000000;stroke-width:1.5;"/><line style="stroke:#000000;stroke-width:1.5;" x1="540" x2="664.4258" y1="157.4883" y2="157.4883"/><text fill="#000000" font-family="sans-serif" font-size="14" font-weight="bold" lengthAdjust="spacing" textLength="111.4258" x="544" y="150.5352">framework.dart</text></g><!--cluster painting--><g id="cluster_painting"><path d="M1139.5,92 L1200.4102,92 A3.75,3.75 0 0 1 1202.9102,94.5 L1209.9102,114.4883 L1316.5,114.4883 A2.5,2.5 0 0 1 1319,116.9883 L1319,255.5 A2.5,2.5 0 0 1 1316.5,258 L1139.5,258 A2.5,2.5 0 0 1 1137,255.5 L1137,94.5 A2.5,2.5 0 0 1 1139.5,92 " fill="none" style="stroke:#000000;stroke-width:1.5;"/><line style="stroke:#000000;stroke-width:1.5;" x1="1137" x2="1209.9102" y1="114.4883" y2="114.4883"/><text fill="#000000" font-family="sans-serif" font-size="14" font-weight="bold" lengthAdjust="spacing" textLength="59.9102" x="1141" y="107.5352">painting</text></g><!--cluster alignment.dart--><g id="cluster_alignment.dart"><path d="M1163.5,135 L1269.917,135 A3.75,3.75 0 0 1 1272.417,137.5 L1279.417,157.4883 L1292.5,157.4883 A2.5,2.5 0 0 1 1295,159.9883 L1295,231.5 A2.5,2.5 0 0 1 1292.5,234 L1163.5,234 A2.5,2.5 0 0 1 1161,231.5 L1161,137.5 A2.5,2.5 0 0 1 1163.5,135 " fill="none" style="stroke:#000000;stroke-width:1.5;"/><line style="stroke:#000000;stroke-width:1.5;" x1="1161" x2="1279.417" y1="157.4883" y2="157.4883"/><text fill="#000000" font-family="sans-serif" font-size="14" font-weight="bold" lengthAdjust="spacing" textLength="105.417" x="1165" y="150.5352">alignment.dart</text></g><!--cluster dart--><g id="cluster_dart"><path d="M4521.5,1328.58 L4552.0449,1328.58 A3.75,3.75 0 0 1 4554.5449,1331.08 L4561.5449,1351.0683 L4764.5,1351.0683 A2.5,2.5 0 0 1 4767,1353.5683 L4767,1492.08 A2.5,2.5 0 0 1 4764.5,1494.58 L4521.5,1494.58 A2.5,2.5 0 0 1 4519,1492.08 L4519,1331.08 A2.5,2.5 0 0 1 4521.5,1328.58 " fill="none" style="stroke:#000000;stroke-width:1.5;"/><line style="stroke:#000000;stroke-width:1.5;" x1="4519" x2="4561.5449" y1="1351.0683" y2="1351.0683"/><text fill="#000000" font-family="sans-serif" font-size="14" font-weight="bold" lengthAdjust="spacing" textLength="29.5449" x="4523" y="1344.1152">dart</text></g><!--cluster ui--><g id="cluster_ui"><path d="M4545.5,1371.58 L4560.2471,1371.58 A3.75,3.75 0 0 1 4562.7471,1374.08 L4569.7471,1394.0683 L4740.5,1394.0683 A2.5,2.5 0 0 1 4743,1396.5683 L4743,1468.08 A2.5,2.5 0 0 1 4740.5,1470.58 L4545.5,1470.58 A2.5,2.5 0 0 1 4543,1468.08 L4543,1374.08 A2.5,2.5 0 0 1 4545.5,1371.58 " fill="none" style="stroke:#000000;stroke-width:1.5;"/><line style="stroke:#000000;stroke-width:1.5;" x1="4543" x2="4569.7471" y1="1394.0683" y2="1394.0683"/><text fill="#000000" font-family="sans-serif" font-size="14" font-weight="bold" lengthAdjust="spacing" textLength="13.7471" x="4547" y="1387.1152">ui</text></g><!--class ConfigBuilder--><g id="elem_ConfigBuilder"><rect codeLine="3" fill="#F1F1F1" height="130.4414" id="ConfigBuilder" rx="2.5" ry="2.5" style="stroke:#181818;stroke-width:0.5;" width="405.9619" x="938.02" y="835.57"/><ellipse cx="1090.7143" cy="851.57" fill="#ADD1B2" rx="11" ry="11" style="stroke:#181818;stroke-width:1.0;"/><path d="M1093.1875,857.7131 Q1092.6064,858.0119 1091.9673,858.1613 Q1091.3281,858.3107 1090.6225,858.3107 Q1088.1157,858.3107 1086.7959,856.6589 Q1085.4761,855.007 1085.4761,851.8859 Q1085.4761,848.7565 1086.7959,847.1047 Q1088.1157,845.4528 1090.6225,845.4528 Q1091.3281,845.4528 1091.9756,845.6022 Q1092.623,845.7516 1093.1875,846.0505 L1093.1875,848.7731 Q1092.5566,848.1921 1091.9631,847.9223 Q1091.3696,847.6525 1090.7388,847.6525 Q1089.394,847.6525 1088.7092,848.7192 Q1088.0244,849.7858 1088.0244,851.8859 Q1088.0244,853.9777 1088.7092,855.0444 Q1089.394,856.111 1090.7388,856.111 Q1091.3696,856.111 1091.9631,855.8412 Q1092.5566,855.5715 1093.1875,854.9904 Z " fill="#000000"/><text fill="#000000" font-family="sans-serif" font-size="14" lengthAdjust="spacing" textLength="92.0732" x="1111.2143" y="856.861">ConfigBuilder</text><line style="stroke:#181818;stroke-width:0.5;" x1="939.02" x2="1342.9819" y1="867.57" y2="867.57"/><ellipse cx="949.02" cy="881.3141" fill="none" rx="3" ry="3" style="stroke:#038048;stroke-width:1.0;"/><text fill="#000000" font-family="sans-serif" font-size="14" lengthAdjust="spacing" textLength="83.7949" x="958.02" y="885.1052">Widget child</text><line style="stroke:#181818;stroke-width:0.5;" x1="939.02" x2="1342.9819" y1="892.0583" y2="892.0583"/><ellipse cx="949.02" cy="905.8024" fill="#84BE84" rx="3" ry="3" style="stroke:#038048;stroke-width:1.0;"/><text fill="#000000" font-family="sans-serif" font-size="14" lengthAdjust="spacing" textLength="379.9619" x="958.02" y="909.5934">bool Function(StackConfig, StackConfig)? shouldRebuild</text><ellipse cx="949.02" cy="922.2907" fill="#84BE84" rx="3" ry="3" style="stroke:#038048;stroke-width:1.0;"/><text fill="#000000" font-family="sans-serif" font-size="14" lengthAdjust="spacing" textLength="345.2559" x="958.02" y="926.0817">Widget Function(StackConfig, Widget)? childBuilder</text><ellipse cx="949.02" cy="938.779" fill="#84BE84" rx="3" ry="3" style="stroke:#038048;stroke-width:1.0;"/><text fill="#000000" font-family="sans-serif" font-size="14" lengthAdjust="spacing" textLength="94.541" x="958.02" y="942.57">Widget build()</text><ellipse cx="949.02" cy="955.2673" fill="#84BE84" rx="3" ry="3" style="stroke:#038048;stroke-width:1.0;"/><text fill="#000000" font-family="sans-serif" font-size="14" lengthAdjust="spacing" text-decoration="underline" textLength="119.0342" x="958.02" y="959.0583">Widget withItem()</text></g><!--class StackItemCase--><g id="elem_StackItemCase"><rect codeLine="16" fill="#F1F1F1" height="262.3477" id="StackItemCase" rx="2.5" ry="2.5" style="stroke:#181818;stroke-width:0.5;" width="449.1377" x="142.43" y="769.62"/><ellipse cx="313.5711" cy="785.62" fill="#ADD1B2" rx="11" ry="11" style="stroke:#181818;stroke-width:1.0;"/><path d="M316.0443,791.7631 Q315.4632,792.0619 314.824,792.2113 Q314.1849,792.3607 313.4793,792.3607 Q310.9725,792.3607 309.6527,790.7089 Q308.3328,789.057 308.3328,785.9359 Q308.3328,782.8065 309.6527,781.1547 Q310.9725,779.5028 313.4793,779.5028 Q314.1849,779.5028 314.8323,779.6522 Q315.4798,779.8016 316.0443,780.1005 L316.0443,782.8231 Q315.4134,782.2421 314.8199,781.9723 Q314.2264,781.7025 313.5955,781.7025 Q312.2508,781.7025 311.566,782.7692 Q310.8812,783.8358 310.8812,785.9359 Q310.8812,788.0277 311.566,789.0944 Q312.2508,790.161 313.5955,790.161 Q314.2264,790.161 314.8199,789.8912 Q315.4134,789.6215 316.0443,789.0404 Z " fill="#000000"/><text fill="#000000" font-family="sans-serif" font-size="14" lengthAdjust="spacing" textLength="98.3555" x="334.0711" y="790.911">StackItemCase</text><line style="stroke:#181818;stroke-width:0.5;" x1="143.43" x2="590.5677" y1="801.62" y2="801.62"/><ellipse cx="153.43" cy="815.3641" fill="none" rx="3" ry="3" style="stroke:#038048;stroke-width:1.0;"/><text fill="#000000" font-family="sans-serif" font-size="14" lengthAdjust="spacing" textLength="278.2227" x="162.43" y="819.1552">StackItem&lt;StackItemContent&gt; stackItem</text><ellipse cx="153.43" cy="831.8524" fill="none" rx="3" ry="3" style="stroke:#038048;stroke-width:1.0;"/><text fill="#000000" font-family="sans-serif" font-size="14" lengthAdjust="spacing" textLength="136.4043" x="162.43" y="835.6434">CaseStyle? caseStyle</text><line style="stroke:#181818;stroke-width:0.5;" x1="143.43" x2="590.5677" y1="842.5966" y2="842.5966"/><ellipse cx="153.43" cy="856.3407" fill="#84BE84" rx="3" ry="3" style="stroke:#038048;stroke-width:1.0;"/><text fill="#000000" font-family="sans-serif" font-size="14" lengthAdjust="spacing" textLength="423.1377" x="162.43" y="860.1317">Widget? Function(StackItem&lt;StackItemContent&gt;)? childBuilder</text><ellipse cx="153.43" cy="872.829" fill="#84BE84" rx="3" ry="3" style="stroke:#038048;stroke-width:1.0;"/><text fill="#000000" font-family="sans-serif" font-size="14" lengthAdjust="spacing" textLength="162.9277" x="162.43" y="876.62">void Function()? onDock</text><ellipse cx="153.43" cy="889.3173" fill="#84BE84" rx="3" ry="3" style="stroke:#038048;stroke-width:1.0;"/><text fill="#000000" font-family="sans-serif" font-size="14" lengthAdjust="spacing" textLength="150.8213" x="162.43" y="893.1083">void Function()? onDel</text><ellipse cx="153.43" cy="905.8055" fill="#84BE84" rx="3" ry="3" style="stroke:#038048;stroke-width:1.0;"/><text fill="#000000" font-family="sans-serif" font-size="14" lengthAdjust="spacing" textLength="153.8838" x="162.43" y="909.5966">void Function()? onTap</text><ellipse cx="153.43" cy="922.2938" fill="#84BE84" rx="3" ry="3" style="stroke:#038048;stroke-width:1.0;"/><text fill="#000000" font-family="sans-serif" font-size="14" lengthAdjust="spacing" textLength="250.708" x="162.43" y="926.0848">bool? Function(Size)? onSizeChanged</text><ellipse cx="153.43" cy="938.7821" fill="#84BE84" rx="3" ry="3" style="stroke:#038048;stroke-width:1.0;"/><text fill="#000000" font-family="sans-serif" font-size="14" lengthAdjust="spacing" textLength="278.5713" x="162.43" y="942.5731">bool? Function(Offset)? onOffsetChanged</text><ellipse cx="153.43" cy="955.2704" fill="#84BE84" rx="3" ry="3" style="stroke:#038048;stroke-width:1.0;"/><text fill="#000000" font-family="sans-serif" font-size="14" lengthAdjust="spacing" textLength="281.5654" x="162.43" y="959.0614">bool? Function(double)? onAngleChanged</text><ellipse cx="153.43" cy="971.7587" fill="#84BE84" rx="3" ry="3" style="stroke:#038048;stroke-width:1.0;"/><text fill="#000000" font-family="sans-serif" font-size="14" lengthAdjust="spacing" textLength="345.0234" x="162.43" y="975.5497">bool? Function(StackItemStatus)? onStatusChanged</text><ellipse cx="153.43" cy="988.247" fill="#84BE84" rx="3" ry="3" style="stroke:#038048;stroke-width:1.0;"/><text fill="#000000" font-family="sans-serif" font-size="14" lengthAdjust="spacing" textLength="405.6035" x="162.43" y="992.038">Widget Function(StackItemStatus, CaseStyle)? actionsBuilder</text><ellipse cx="153.43" cy="1004.7352" fill="#84BE84" rx="3" ry="3" style="stroke:#038048;stroke-width:1.0;"/><text fill="#000000" font-family="sans-serif" font-size="14" lengthAdjust="spacing" textLength="329.3213" x="162.43" y="1008.5262">Widget Function(StackItemStatus)? borderBuilder</text><ellipse cx="153.43" cy="1021.2235" fill="#84BE84" rx="3" ry="3" style="stroke:#038048;stroke-width:1.0;"/><text fill="#000000" font-family="sans-serif" font-size="14" lengthAdjust="spacing" textLength="242.375" x="162.43" y="1025.0145">State&lt;StatefulWidget&gt; createState()</text></g><!--class _StackItemCaseState--><g id="elem__StackItemCaseState"><rect codeLine="44" fill="#F1F1F1" height="641.5781" id="_StackItemCaseState" rx="2.5" ry="2.5" style="stroke:#181818;stroke-width:0.5;" width="255.127" x="626.44" y="580"/><ellipse cx="680.3038" cy="596" fill="#ADD1B2" rx="11" ry="11" style="stroke:#181818;stroke-width:1.0;"/><path d="M682.7769,602.1431 Q682.1959,602.4419 681.5567,602.5913 Q680.9175,602.7407 680.212,602.7407 Q677.7051,602.7407 676.3853,601.0889 Q675.0655,599.437 675.0655,596.3159 Q675.0655,593.1865 676.3853,591.5347 Q677.7051,589.8828 680.212,589.8828 Q680.9175,589.8828 681.565,590.0322 Q682.2125,590.1816 682.7769,590.4805 L682.7769,593.2031 Q682.1461,592.6221 681.5525,592.3523 Q680.959,592.0825 680.3282,592.0825 Q678.9835,592.0825 678.2986,593.1492 Q677.6138,594.2158 677.6138,596.3159 Q677.6138,598.4077 678.2986,599.4744 Q678.9835,600.541 680.3282,600.541 Q680.959,600.541 681.5525,600.2712 Q682.1461,600.0015 682.7769,599.4204 Z " fill="#000000"/><text fill="#000000" font-family="sans-serif" font-size="14" lengthAdjust="spacing" textLength="138.8994" x="700.8038" y="601.291">_StackItemCaseState</text><line style="stroke:#181818;stroke-width:0.5;" x1="627.44" x2="880.567" y1="612" y2="612"/><ellipse cx="637.44" cy="625.7441" fill="none" rx="3" ry="3" style="stroke:#038048;stroke-width:1.0;"/><text fill="#000000" font-family="sans-serif" font-size="14" lengthAdjust="spacing" textLength="122.5068" x="646.44" y="629.5352">Offset centerPoint</text><ellipse cx="637.44" cy="642.2324" fill="none" rx="3" ry="3" style="stroke:#038048;stroke-width:1.0;"/><text fill="#000000" font-family="sans-serif" font-size="14" lengthAdjust="spacing" textLength="154.5059" x="646.44" y="646.0234">Offset startGlobalPoint</text><ellipse cx="637.44" cy="658.7207" fill="none" rx="3" ry="3" style="stroke:#038048;stroke-width:1.0;"/><text fill="#000000" font-family="sans-serif" font-size="14" lengthAdjust="spacing" textLength="118.1865" x="646.44" y="662.5117">Offset startOffset</text><ellipse cx="637.44" cy="675.209" fill="none" rx="3" ry="3" style="stroke:#038048;stroke-width:1.0;"/><text fill="#000000" font-family="sans-serif" font-size="14" lengthAdjust="spacing" textLength="90.3232" x="646.44" y="679">Size startSize</text><ellipse cx="637.44" cy="691.6973" fill="none" rx="3" ry="3" style="stroke:#038048;stroke-width:1.0;"/><text fill="#000000" font-family="sans-serif" font-size="14" lengthAdjust="spacing" textLength="121.1807" x="646.44" y="695.4883">double startAngle</text><ellipse cx="637.44" cy="708.1855" fill="none" rx="3" ry="3" style="stroke:#038048;stroke-width:1.0;"/><text fill="#000000" font-family="sans-serif" font-size="14" lengthAdjust="spacing" textLength="181.3369" x="646.44" y="711.9766">Alignment? startAlignment</text><ellipse cx="637.44" cy="724.6738" fill="none" rx="3" ry="3" style="stroke:#038048;stroke-width:1.0;"/><text fill="#000000" font-family="sans-serif" font-size="14" lengthAdjust="spacing" textLength="95.5596" x="646.44" y="728.4648">double endDx</text><ellipse cx="637.44" cy="741.1621" fill="none" rx="3" ry="3" style="stroke:#038048;stroke-width:1.0;"/><text fill="#000000" font-family="sans-serif" font-size="14" lengthAdjust="spacing" textLength="94.2881" x="646.44" y="744.9531">double endDy</text><ellipse cx="637.44" cy="757.6504" fill="none" rx="3" ry="3" style="stroke:#038048;stroke-width:1.0;"/><text fill="#000000" font-family="sans-serif" font-size="14" lengthAdjust="spacing" textLength="118.1182" x="646.44" y="761.4414">Offset dragOffset</text><ellipse cx="637.44" cy="774.1387" fill="none" rx="3" ry="3" style="stroke:#038048;stroke-width:1.0;"/><text fill="#000000" font-family="sans-serif" font-size="14" lengthAdjust="spacing" textLength="90.4736" x="646.44" y="777.9297">int itemIndex</text><ellipse cx="637.44" cy="790.627" fill="none" rx="3" ry="3" style="stroke:#038048;stroke-width:1.0;"/><text fill="#000000" font-family="sans-serif" font-size="14" lengthAdjust="spacing" textLength="150.4727" x="646.44" y="794.418">HomeRepo homeRepo</text><ellipse cx="637.44" cy="807.1152" fill="none" rx="3" ry="3" style="stroke:#038048;stroke-width:1.0;"/><text fill="#000000" font-family="sans-serif" font-size="14" lengthAdjust="spacing" textLength="87.3975" x="646.44" y="810.9063">String itemId</text><line style="stroke:#181818;stroke-width:0.5;" x1="627.44" x2="880.567" y1="817.8594" y2="817.8594"/><rect fill="#F24D5C" height="6" style="stroke:#C82930;stroke-width:1.0;" width="6" x="634.44" y="828.6035"/><text fill="#000000" font-family="sans-serif" font-size="14" lengthAdjust="spacing" textLength="229.127" x="646.44" y="835.3945">StackBoardController _controller()</text><rect fill="#F24D5C" height="6" style="stroke:#C82930;stroke-width:1.0;" width="6" x="634.44" y="845.0918"/><text fill="#000000" font-family="sans-serif" font-size="14" lengthAdjust="spacing" textLength="146.6035" x="646.44" y="851.8828">CaseStyle _caseStyle()</text><rect fill="#F24D5C" height="6" style="stroke:#C82930;stroke-width:1.0;" width="6" x="634.44" y="861.5801"/><text fill="#000000" font-family="sans-serif" font-size="14" lengthAdjust="spacing" textLength="120.5107" x="646.44" y="868.3711">double _minSize()</text><ellipse cx="637.44" cy="881.0684" fill="#84BE84" rx="3" ry="3" style="stroke:#038048;stroke-width:1.0;"/><text fill="#000000" font-family="sans-serif" font-size="14" lengthAdjust="spacing" textLength="97.8018" x="646.44" y="884.8594">void initState()</text><rect fill="#F24D5C" height="6" style="stroke:#C82930;stroke-width:1.0;" width="6" x="634.44" y="894.5566"/><text fill="#000000" font-family="sans-serif" font-size="14" lengthAdjust="spacing" textLength="153.4395" x="646.44" y="901.3477">MouseCursor _cursor()</text><rect fill="#F24D5C" height="6" style="stroke:#C82930;stroke-width:1.0;" width="6" x="634.44" y="911.0449"/><text fill="#000000" font-family="sans-serif" font-size="14" lengthAdjust="spacing" textLength="91.9229" x="646.44" y="917.8359">void _onTap()</text><rect fill="#F24D5C" height="6" style="stroke:#C82930;stroke-width:1.0;" width="6" x="634.44" y="927.5332"/><text fill="#000000" font-family="sans-serif" font-size="14" lengthAdjust="spacing" textLength="92.21" x="646.44" y="934.3242">void _onEdit()</text><rect fill="#F24D5C" height="6" style="stroke:#C82930;stroke-width:1.0;" width="6" x="634.44" y="944.0215"/><text fill="#000000" font-family="sans-serif" font-size="14" lengthAdjust="spacing" textLength="122.1582" x="646.44" y="950.8125">void _onPanStart()</text><rect fill="#F24D5C" height="6" style="stroke:#C82930;stroke-width:1.0;" width="6" x="634.44" y="960.5098"/><text fill="#000000" font-family="sans-serif" font-size="14" lengthAdjust="spacing" textLength="115.7734" x="646.44" y="967.3008">void _onPanEnd()</text><rect fill="#F24D5C" height="6" style="stroke:#C82930;stroke-width:1.0;" width="6" x="634.44" y="976.998"/><text fill="#000000" font-family="sans-serif" font-size="14" lengthAdjust="spacing" textLength="138.7764" x="646.44" y="983.7891">void _onPanUpdate()</text><rect fill="#F24D5C" height="6" style="stroke:#C82930;stroke-width:1.0;" width="6" x="634.44" y="993.4863"/><text fill="#000000" font-family="sans-serif" font-size="14" lengthAdjust="spacing" textLength="174.5762" x="646.44" y="1000.2773">void _onMoveKeyUpdate()</text><rect fill="#F24D5C" height="6" style="stroke:#C82930;stroke-width:1.0;" width="6" x="634.44" y="1009.9746"/><text fill="#000000" font-family="sans-serif" font-size="14" lengthAdjust="spacing" textLength="148.9072" x="646.44" y="1016.7656">void _onScaleUpdate()</text><rect fill="#F24D5C" height="6" style="stroke:#C82930;stroke-width:1.0;" width="6" x="634.44" y="1026.4629"/><text fill="#000000" font-family="sans-serif" font-size="14" lengthAdjust="spacing" textLength="175.7656" x="646.44" y="1033.2539">void _onResizeXYUpdate()</text><rect fill="#F24D5C" height="6" style="stroke:#C82930;stroke-width:1.0;" width="6" x="634.44" y="1042.9512"/><text fill="#000000" font-family="sans-serif" font-size="14" lengthAdjust="spacing" textLength="158.0742" x="646.44" y="1049.7422">void _onRotateUpdate()</text><ellipse cx="637.44" cy="1062.4395" fill="#84BE84" rx="3" ry="3" style="stroke:#038048;stroke-width:1.0;"/><text fill="#000000" font-family="sans-serif" font-size="14" lengthAdjust="spacing" textLength="94.541" x="646.44" y="1066.2305">Widget build()</text><rect fill="#F24D5C" height="6" style="stroke:#C82930;stroke-width:1.0;" width="6" x="634.44" y="1075.9277"/><text fill="#000000" font-family="sans-serif" font-size="14" lengthAdjust="spacing" textLength="157.9785" x="646.44" y="1082.7188">Widget _childrenStack()</text><rect fill="#F24D5C" height="6" style="stroke:#C82930;stroke-width:1.0;" width="6" x="634.44" y="1092.416"/><text fill="#000000" font-family="sans-serif" font-size="14" lengthAdjust="spacing" textLength="118.5557" x="646.44" y="1099.207">Widget _content()</text><rect fill="#F24D5C" height="6" style="stroke:#C82930;stroke-width:1.0;" width="6" x="634.44" y="1108.9043"/><text fill="#000000" font-family="sans-serif" font-size="14" lengthAdjust="spacing" textLength="151.334" x="646.44" y="1115.6953">Widget _frameBorder()</text><rect fill="#F24D5C" height="6" style="stroke:#C82930;stroke-width:1.0;" width="6" x="634.44" y="1125.3926"/><text fill="#000000" font-family="sans-serif" font-size="14" lengthAdjust="spacing" textLength="155.9961" x="646.44" y="1132.1836">Widget _deleteHandle()</text><rect fill="#F24D5C" height="6" style="stroke:#C82930;stroke-width:1.0;" width="6" x="634.44" y="1141.8809"/><text fill="#000000" font-family="sans-serif" font-size="14" lengthAdjust="spacing" textLength="182.376" x="646.44" y="1148.6719">Widget _mergeTileHandle()</text><rect fill="#F24D5C" height="6" style="stroke:#C82930;stroke-width:1.0;" width="6" x="634.44" y="1158.3691"/><text fill="#000000" font-family="sans-serif" font-size="14" lengthAdjust="spacing" textLength="148.3877" x="646.44" y="1165.1602">Widget _scaleHandle()</text><rect fill="#F24D5C" height="6" style="stroke:#C82930;stroke-width:1.0;" width="6" x="634.44" y="1174.8574"/><text fill="#000000" font-family="sans-serif" font-size="14" lengthAdjust="spacing" textLength="155.0391" x="646.44" y="1181.6484">Widget _resizeHandle()</text><rect fill="#F24D5C" height="6" style="stroke:#C82930;stroke-width:1.0;" width="6" x="634.44" y="1191.3457"/><text fill="#000000" font-family="sans-serif" font-size="14" lengthAdjust="spacing" textLength="217.6973" x="646.44" y="1198.1367">Widget _rotateAndMoveHandle()</text><rect fill="#F24D5C" height="6" style="stroke:#C82930;stroke-width:1.0;" width="6" x="634.44" y="1207.834"/><text fill="#000000" font-family="sans-serif" font-size="14" lengthAdjust="spacing" textLength="125.9727" x="646.44" y="1214.625">Widget _toolCase()</text></g><!--class StackItem<StackItemContent>--><g id="elem_StackItem&lt;StackItemContent&gt;"><rect fill="#F1F1F1" height="48" id="StackItem&lt;StackItemContent&gt;" rx="2.5" ry="2.5" style="stroke:#181818;stroke-width:0.5;" width="240.1953" x="205.9" y="1406.58"/><ellipse cx="220.9" cy="1422.58" fill="#ADD1B2" rx="11" ry="11" style="stroke:#181818;stroke-width:1.0;"/><path d="M223.3731,1428.7231 Q222.7921,1429.0219 222.1529,1429.1713 Q221.5138,1429.3207 220.8082,1429.3207 Q218.3014,1429.3207 216.9815,1427.6689 Q215.6617,1426.017 215.6617,1422.8959 Q215.6617,1419.7665 216.9815,1418.1147 Q218.3014,1416.4628 220.8082,1416.4628 Q221.5138,1416.4628 222.1612,1416.6122 Q222.8087,1416.7616 223.3731,1417.0605 L223.3731,1419.7831 Q222.7423,1419.2021 222.1488,1418.9323 Q221.5553,1418.6625 220.9244,1418.6625 Q219.5797,1418.6625 218.8949,1419.7292 Q218.2101,1420.7958 218.2101,1422.8959 Q218.2101,1424.9877 218.8949,1426.0544 Q219.5797,1427.121 220.9244,1427.121 Q221.5553,1427.121 222.1488,1426.8512 Q222.7423,1426.5815 223.3731,1426.0004 Z " fill="#000000"/><text fill="#000000" font-family="sans-serif" font-size="14" lengthAdjust="spacing" textLength="208.1953" x="234.9" y="1427.871">StackItem&lt;StackItemContent&gt;</text><line style="stroke:#181818;stroke-width:0.5;" x1="206.9" x2="445.0953" y1="1438.58" y2="1438.58"/><line style="stroke:#181818;stroke-width:0.5;" x1="206.9" x2="445.0953" y1="1446.58" y2="1446.58"/></g><!--class CaseStyle--><g id="elem_CaseStyle"><rect fill="#F1F1F1" height="48" id="CaseStyle" rx="2.5" ry="2.5" style="stroke:#181818;stroke-width:0.5;" width="96.292" x="525.85" y="1406.58"/><ellipse cx="540.85" cy="1422.58" fill="#ADD1B2" rx="11" ry="11" style="stroke:#181818;stroke-width:1.0;"/><path d="M543.3231,1428.7231 Q542.7421,1429.0219 542.1029,1429.1713 Q541.4638,1429.3207 540.7582,1429.3207 Q538.2514,1429.3207 536.9315,1427.6689 Q535.6117,1426.017 535.6117,1422.8959 Q535.6117,1419.7665 536.9315,1418.1147 Q538.2514,1416.4628 540.7582,1416.4628 Q541.4638,1416.4628 542.1112,1416.6122 Q542.7587,1416.7616 543.3231,1417.0605 L543.3231,1419.7831 Q542.6923,1419.2021 542.0988,1418.9323 Q541.5053,1418.6625 540.8744,1418.6625 Q539.5297,1418.6625 538.8449,1419.7292 Q538.1601,1420.7958 538.1601,1422.8959 Q538.1601,1424.9877 538.8449,1426.0544 Q539.5297,1427.121 540.8744,1427.121 Q541.5053,1427.121 542.0988,1426.8512 Q542.6923,1426.5815 543.3231,1426.0004 Z " fill="#000000"/><text fill="#000000" font-family="sans-serif" font-size="14" lengthAdjust="spacing" textLength="64.292" x="554.85" y="1427.871">CaseStyle</text><line style="stroke:#181818;stroke-width:0.5;" x1="526.85" x2="621.142" y1="1438.58" y2="1438.58"/><line style="stroke:#181818;stroke-width:0.5;" x1="526.85" x2="621.142" y1="1446.58" y2="1446.58"/></g><!--class HomeRepo--><g id="elem_HomeRepo"><rect fill="#F1F1F1" height="48" id="HomeRepo" rx="2.5" ry="2.5" style="stroke:#181818;stroke-width:0.5;" width="105.8213" x="1496.09" y="1406.58"/><ellipse cx="1511.09" cy="1422.58" fill="#ADD1B2" rx="11" ry="11" style="stroke:#181818;stroke-width:1.0;"/><path d="M1513.5631,1428.7231 Q1512.9821,1429.0219 1512.3429,1429.1713 Q1511.7038,1429.3207 1510.9982,1429.3207 Q1508.4914,1429.3207 1507.1715,1427.6689 Q1505.8517,1426.017 1505.8517,1422.8959 Q1505.8517,1419.7665 1507.1715,1418.1147 Q1508.4914,1416.4628 1510.9982,1416.4628 Q1511.7038,1416.4628 1512.3512,1416.6122 Q1512.9987,1416.7616 1513.5631,1417.0605 L1513.5631,1419.7831 Q1512.9323,1419.2021 1512.3388,1418.9323 Q1511.7453,1418.6625 1511.1144,1418.6625 Q1509.7697,1418.6625 1509.0849,1419.7292 Q1508.4001,1420.7958 1508.4001,1422.8959 Q1508.4001,1424.9877 1509.0849,1426.0544 Q1509.7697,1427.121 1511.1144,1427.121 Q1511.7453,1427.121 1512.3388,1426.8512 Q1512.9323,1426.5815 1513.5631,1426.0004 Z " fill="#000000"/><text fill="#000000" font-family="sans-serif" font-size="14" lengthAdjust="spacing" textLength="73.8213" x="1525.09" y="1427.871">HomeRepo</text><line style="stroke:#181818;stroke-width:0.5;" x1="1497.09" x2="1600.9113" y1="1438.58" y2="1438.58"/><line style="stroke:#181818;stroke-width:0.5;" x1="1497.09" x2="1600.9113" y1="1446.58" y2="1446.58"/></g><!--class bool Function(StackConfig, StackConfig)--><g id="elem_bool Function(StackConfig, StackConfig)"><rect fill="#F1F1F1" height="48" id="bool Function(StackConfig, StackConfig)" rx="2.5" ry="2.5" style="stroke:#181818;stroke-width:0.5;" width="304.5967" x="3852.7" y="1406.58"/><ellipse cx="3867.7" cy="1422.58" fill="#ADD1B2" rx="11" ry="11" style="stroke:#181818;stroke-width:1.0;"/><path d="M3870.1731,1428.7231 Q3869.5921,1429.0219 3868.9529,1429.1713 Q3868.3138,1429.3207 3867.6082,1429.3207 Q3865.1014,1429.3207 3863.7815,1427.6689 Q3862.4617,1426.017 3862.4617,1422.8959 Q3862.4617,1419.7665 3863.7815,1418.1147 Q3865.1014,1416.4628 3867.6082,1416.4628 Q3868.3138,1416.4628 3868.9612,1416.6122 Q3869.6087,1416.7616 3870.1731,1417.0605 L3870.1731,1419.7831 Q3869.5423,1419.2021 3868.9488,1418.9323 Q3868.3553,1418.6625 3867.7244,1418.6625 Q3866.3797,1418.6625 3865.6949,1419.7292 Q3865.0101,1420.7958 3865.0101,1422.8959 Q3865.0101,1424.9877 3865.6949,1426.0544 Q3866.3797,1427.121 3867.7244,1427.121 Q3868.3553,1427.121 3868.9488,1426.8512 Q3869.5423,1426.5815 3870.1731,1426.0004 Z " fill="#000000"/><text fill="#000000" font-family="sans-serif" font-size="14" lengthAdjust="spacing" textLength="272.5967" x="3881.7" y="1427.871">bool Function(StackConfig, StackConfig)</text><line style="stroke:#181818;stroke-width:0.5;" x1="3853.7" x2="4156.2967" y1="1438.58" y2="1438.58"/><line style="stroke:#181818;stroke-width:0.5;" x1="3853.7" x2="4156.2967" y1="1446.58" y2="1446.58"/></g><!--class Widget Function(StackConfig, Widget)--><g id="elem_Widget Function(StackConfig, Widget)"><rect fill="#F1F1F1" height="48" id="Widget Function(StackConfig, Widget)" rx="2.5" ry="2.5" style="stroke:#181818;stroke-width:0.5;" width="286.9805" x="4192.51" y="1406.58"/><ellipse cx="4207.51" cy="1422.58" fill="#ADD1B2" rx="11" ry="11" style="stroke:#181818;stroke-width:1.0;"/><path d="M4209.9831,1428.7231 Q4209.4021,1429.0219 4208.7629,1429.1713 Q4208.1238,1429.3207 4207.4182,1429.3207 Q4204.9114,1429.3207 4203.5915,1427.6689 Q4202.2717,1426.017 4202.2717,1422.8959 Q4202.2717,1419.7665 4203.5915,1418.1147 Q4204.9114,1416.4628 4207.4182,1416.4628 Q4208.1238,1416.4628 4208.7712,1416.6122 Q4209.4187,1416.7616 4209.9831,1417.0605 L4209.9831,1419.7831 Q4209.3523,1419.2021 4208.7588,1418.9323 Q4208.1653,1418.6625 4207.5344,1418.6625 Q4206.1897,1418.6625 4205.5049,1419.7292 Q4204.8201,1420.7958 4204.8201,1422.8959 Q4204.8201,1424.9877 4205.5049,1426.0544 Q4206.1897,1427.121 4207.5344,1427.121 Q4208.1653,1427.121 4208.7588,1426.8512 Q4209.3523,1426.5815 4209.9831,1426.0004 Z " fill="#000000"/><text fill="#000000" font-family="sans-serif" font-size="14" lengthAdjust="spacing" textLength="254.9805" x="4221.51" y="1427.871">Widget Function(StackConfig, Widget)</text><line style="stroke:#181818;stroke-width:0.5;" x1="4193.51" x2="4478.4905" y1="1438.58" y2="1438.58"/><line style="stroke:#181818;stroke-width:0.5;" x1="4193.51" x2="4478.4905" y1="1446.58" y2="1446.58"/></g><!--class Widget Function(StackItem<StackItemContent>)--><g id="elem_Widget Function(StackItem&lt;StackItemContent&gt;)"><rect fill="#F1F1F1" height="48" id="Widget Function(StackItem&lt;StackItemContent&gt;)" rx="2.5" ry="2.5" style="stroke:#181818;stroke-width:0.5;" width="358.9561" x="3290.52" y="1406.58"/><ellipse cx="3305.52" cy="1422.58" fill="#ADD1B2" rx="11" ry="11" style="stroke:#181818;stroke-width:1.0;"/><path d="M3307.9931,1428.7231 Q3307.4121,1429.0219 3306.7729,1429.1713 Q3306.1338,1429.3207 3305.4282,1429.3207 Q3302.9214,1429.3207 3301.6015,1427.6689 Q3300.2817,1426.017 3300.2817,1422.8959 Q3300.2817,1419.7665 3301.6015,1418.1147 Q3302.9214,1416.4628 3305.4282,1416.4628 Q3306.1338,1416.4628 3306.7812,1416.6122 Q3307.4287,1416.7616 3307.9931,1417.0605 L3307.9931,1419.7831 Q3307.3623,1419.2021 3306.7688,1418.9323 Q3306.1753,1418.6625 3305.5444,1418.6625 Q3304.1997,1418.6625 3303.5149,1419.7292 Q3302.8301,1420.7958 3302.8301,1422.8959 Q3302.8301,1424.9877 3303.5149,1426.0544 Q3304.1997,1427.121 3305.5444,1427.121 Q3306.1753,1427.121 3306.7688,1426.8512 Q3307.3623,1426.5815 3307.9931,1426.0004 Z " fill="#000000"/><text fill="#000000" font-family="sans-serif" font-size="14" lengthAdjust="spacing" textLength="326.9561" x="3319.52" y="1427.871">Widget Function(StackItem&lt;StackItemContent&gt;)</text><line style="stroke:#181818;stroke-width:0.5;" x1="3291.52" x2="3648.4761" y1="1438.58" y2="1438.58"/><line style="stroke:#181818;stroke-width:0.5;" x1="3291.52" x2="3648.4761" y1="1446.58" y2="1446.58"/></g><!--class void Function()--><g id="elem_void Function()"><rect fill="#F1F1F1" height="48" id="void Function()" rx="2.5" ry="2.5" style="stroke:#181818;stroke-width:0.5;" width="132.8643" x="3684.57" y="1406.58"/><ellipse cx="3699.57" cy="1422.58" fill="#ADD1B2" rx="11" ry="11" style="stroke:#181818;stroke-width:1.0;"/><path d="M3702.0431,1428.7231 Q3701.4621,1429.0219 3700.8229,1429.1713 Q3700.1838,1429.3207 3699.4782,1429.3207 Q3696.9714,1429.3207 3695.6515,1427.6689 Q3694.3317,1426.017 3694.3317,1422.8959 Q3694.3317,1419.7665 3695.6515,1418.1147 Q3696.9714,1416.4628 3699.4782,1416.4628 Q3700.1838,1416.4628 3700.8312,1416.6122 Q3701.4787,1416.7616 3702.0431,1417.0605 L3702.0431,1419.7831 Q3701.4123,1419.2021 3700.8188,1418.9323 Q3700.2253,1418.6625 3699.5944,1418.6625 Q3698.2497,1418.6625 3697.5649,1419.7292 Q3696.8801,1420.7958 3696.8801,1422.8959 Q3696.8801,1424.9877 3697.5649,1426.0544 Q3698.2497,1427.121 3699.5944,1427.121 Q3700.2253,1427.121 3700.8188,1426.8512 Q3701.4123,1426.5815 3702.0431,1426.0004 Z " fill="#000000"/><text fill="#000000" font-family="sans-serif" font-size="14" lengthAdjust="spacing" textLength="100.8643" x="3713.57" y="1427.871">void Function()</text><line style="stroke:#181818;stroke-width:0.5;" x1="3685.57" x2="3816.4343" y1="1438.58" y2="1438.58"/><line style="stroke:#181818;stroke-width:0.5;" x1="3685.57" x2="3816.4343" y1="1446.58" y2="1446.58"/></g><!--class bool Function(Size)--><g id="elem_bool Function(Size)"><rect fill="#F1F1F1" height="48" id="bool Function(Size)" rx="2.5" ry="2.5" style="stroke:#181818;stroke-width:0.5;" width="161.6299" x="1730.19" y="1406.58"/><ellipse cx="1745.19" cy="1422.58" fill="#ADD1B2" rx="11" ry="11" style="stroke:#181818;stroke-width:1.0;"/><path d="M1747.6631,1428.7231 Q1747.0821,1429.0219 1746.4429,1429.1713 Q1745.8038,1429.3207 1745.0982,1429.3207 Q1742.5914,1429.3207 1741.2715,1427.6689 Q1739.9517,1426.017 1739.9517,1422.8959 Q1739.9517,1419.7665 1741.2715,1418.1147 Q1742.5914,1416.4628 1745.0982,1416.4628 Q1745.8038,1416.4628 1746.4512,1416.6122 Q1747.0987,1416.7616 1747.6631,1417.0605 L1747.6631,1419.7831 Q1747.0323,1419.2021 1746.4388,1418.9323 Q1745.8453,1418.6625 1745.2144,1418.6625 Q1743.8697,1418.6625 1743.1849,1419.7292 Q1742.5001,1420.7958 1742.5001,1422.8959 Q1742.5001,1424.9877 1743.1849,1426.0544 Q1743.8697,1427.121 1745.2144,1427.121 Q1745.8453,1427.121 1746.4388,1426.8512 Q1747.0323,1426.5815 1747.6631,1426.0004 Z " fill="#000000"/><text fill="#000000" font-family="sans-serif" font-size="14" lengthAdjust="spacing" textLength="129.6299" x="1759.19" y="1427.871">bool Function(Size)</text><line style="stroke:#181818;stroke-width:0.5;" x1="1731.19" x2="1890.8199" y1="1438.58" y2="1438.58"/><line style="stroke:#181818;stroke-width:0.5;" x1="1731.19" x2="1890.8199" y1="1446.58" y2="1446.58"/></g><!--class bool Function(Offset)--><g id="elem_bool Function(Offset)"><rect fill="#F1F1F1" height="48" id="bool Function(Offset)" rx="2.5" ry="2.5" style="stroke:#181818;stroke-width:0.5;" width="175.5615" x="1927.22" y="1406.58"/><ellipse cx="1942.22" cy="1422.58" fill="#ADD1B2" rx="11" ry="11" style="stroke:#181818;stroke-width:1.0;"/><path d="M1944.6931,1428.7231 Q1944.1121,1429.0219 1943.4729,1429.1713 Q1942.8338,1429.3207 1942.1282,1429.3207 Q1939.6214,1429.3207 1938.3015,1427.6689 Q1936.9817,1426.017 1936.9817,1422.8959 Q1936.9817,1419.7665 1938.3015,1418.1147 Q1939.6214,1416.4628 1942.1282,1416.4628 Q1942.8338,1416.4628 1943.4812,1416.6122 Q1944.1287,1416.7616 1944.6931,1417.0605 L1944.6931,1419.7831 Q1944.0623,1419.2021 1943.4688,1418.9323 Q1942.8753,1418.6625 1942.2444,1418.6625 Q1940.8997,1418.6625 1940.2149,1419.7292 Q1939.5301,1420.7958 1939.5301,1422.8959 Q1939.5301,1424.9877 1940.2149,1426.0544 Q1940.8997,1427.121 1942.2444,1427.121 Q1942.8753,1427.121 1943.4688,1426.8512 Q1944.0623,1426.5815 1944.6931,1426.0004 Z " fill="#000000"/><text fill="#000000" font-family="sans-serif" font-size="14" lengthAdjust="spacing" textLength="143.5615" x="1956.22" y="1427.871">bool Function(Offset)</text><line style="stroke:#181818;stroke-width:0.5;" x1="1928.22" x2="2101.7815" y1="1438.58" y2="1438.58"/><line style="stroke:#181818;stroke-width:0.5;" x1="1928.22" x2="2101.7815" y1="1446.58" y2="1446.58"/></g><!--class bool Function(double)--><g id="elem_bool Function(double)"><rect fill="#F1F1F1" height="48" id="bool Function(double)" rx="2.5" ry="2.5" style="stroke:#181818;stroke-width:0.5;" width="180.9756" x="2137.51" y="1406.58"/><ellipse cx="2152.51" cy="1422.58" fill="#ADD1B2" rx="11" ry="11" style="stroke:#181818;stroke-width:1.0;"/><path d="M2154.9831,1428.7231 Q2154.4021,1429.0219 2153.7629,1429.1713 Q2153.1238,1429.3207 2152.4182,1429.3207 Q2149.9114,1429.3207 2148.5915,1427.6689 Q2147.2717,1426.017 2147.2717,1422.8959 Q2147.2717,1419.7665 2148.5915,1418.1147 Q2149.9114,1416.4628 2152.4182,1416.4628 Q2153.1238,1416.4628 2153.7712,1416.6122 Q2154.4187,1416.7616 2154.9831,1417.0605 L2154.9831,1419.7831 Q2154.3523,1419.2021 2153.7588,1418.9323 Q2153.1653,1418.6625 2152.5344,1418.6625 Q2151.1897,1418.6625 2150.5049,1419.7292 Q2149.8201,1420.7958 2149.8201,1422.8959 Q2149.8201,1424.9877 2150.5049,1426.0544 Q2151.1897,1427.121 2152.5344,1427.121 Q2153.1653,1427.121 2153.7588,1426.8512 Q2154.3523,1426.5815 2154.9831,1426.0004 Z " fill="#000000"/><text fill="#000000" font-family="sans-serif" font-size="14" lengthAdjust="spacing" textLength="148.9756" x="2166.51" y="1427.871">bool Function(double)</text><line style="stroke:#181818;stroke-width:0.5;" x1="2138.51" x2="2317.4856" y1="1438.58" y2="1438.58"/><line style="stroke:#181818;stroke-width:0.5;" x1="2138.51" x2="2317.4856" y1="1446.58" y2="1446.58"/></g><!--class bool Function(StackItemStatus)--><g id="elem_bool Function(StackItemStatus)"><rect fill="#F1F1F1" height="48" id="bool Function(StackItemStatus)" rx="2.5" ry="2.5" style="stroke:#181818;stroke-width:0.5;" width="241.7881" x="2353.11" y="1406.58"/><ellipse cx="2368.11" cy="1422.58" fill="#ADD1B2" rx="11" ry="11" style="stroke:#181818;stroke-width:1.0;"/><path d="M2370.5831,1428.7231 Q2370.0021,1429.0219 2369.3629,1429.1713 Q2368.7238,1429.3207 2368.0182,1429.3207 Q2365.5114,1429.3207 2364.1915,1427.6689 Q2362.8717,1426.017 2362.8717,1422.8959 Q2362.8717,1419.7665 2364.1915,1418.1147 Q2365.5114,1416.4628 2368.0182,1416.4628 Q2368.7238,1416.4628 2369.3712,1416.6122 Q2370.0187,1416.7616 2370.5831,1417.0605 L2370.5831,1419.7831 Q2369.9523,1419.2021 2369.3588,1418.9323 Q2368.7653,1418.6625 2368.1344,1418.6625 Q2366.7897,1418.6625 2366.1049,1419.7292 Q2365.4201,1420.7958 2365.4201,1422.8959 Q2365.4201,1424.9877 2366.1049,1426.0544 Q2366.7897,1427.121 2368.1344,1427.121 Q2368.7653,1427.121 2369.3588,1426.8512 Q2369.9523,1426.5815 2370.5831,1426.0004 Z " fill="#000000"/><text fill="#000000" font-family="sans-serif" font-size="14" lengthAdjust="spacing" textLength="209.7881" x="2382.11" y="1427.871">bool Function(StackItemStatus)</text><line style="stroke:#181818;stroke-width:0.5;" x1="2354.11" x2="2593.8981" y1="1438.58" y2="1438.58"/><line style="stroke:#181818;stroke-width:0.5;" x1="2354.11" x2="2593.8981" y1="1446.58" y2="1446.58"/></g><!--class Widget Function(StackItemStatus, CaseStyle)--><g id="elem_Widget Function(StackItemStatus, CaseStyle)"><rect fill="#F1F1F1" height="48" id="Widget Function(StackItemStatus, CaseStyle)" rx="2.5" ry="2.5" style="stroke:#181818;stroke-width:0.5;" width="331.4824" x="2630.26" y="1406.58"/><ellipse cx="2645.26" cy="1422.58" fill="#ADD1B2" rx="11" ry="11" style="stroke:#181818;stroke-width:1.0;"/><path d="M2647.7331,1428.7231 Q2647.1521,1429.0219 2646.5129,1429.1713 Q2645.8738,1429.3207 2645.1682,1429.3207 Q2642.6614,1429.3207 2641.3415,1427.6689 Q2640.0217,1426.017 2640.0217,1422.8959 Q2640.0217,1419.7665 2641.3415,1418.1147 Q2642.6614,1416.4628 2645.1682,1416.4628 Q2645.8738,1416.4628 2646.5212,1416.6122 Q2647.1687,1416.7616 2647.7331,1417.0605 L2647.7331,1419.7831 Q2647.1023,1419.2021 2646.5088,1418.9323 Q2645.9153,1418.6625 2645.2844,1418.6625 Q2643.9397,1418.6625 2643.2549,1419.7292 Q2642.5701,1420.7958 2642.5701,1422.8959 Q2642.5701,1424.9877 2643.2549,1426.0544 Q2643.9397,1427.121 2645.2844,1427.121 Q2645.9153,1427.121 2646.5088,1426.8512 Q2647.1023,1426.5815 2647.7331,1426.0004 Z " fill="#000000"/><text fill="#000000" font-family="sans-serif" font-size="14" lengthAdjust="spacing" textLength="299.4824" x="2659.26" y="1427.871">Widget Function(StackItemStatus, CaseStyle)</text><line style="stroke:#181818;stroke-width:0.5;" x1="2631.26" x2="2960.7424" y1="1438.58" y2="1438.58"/><line style="stroke:#181818;stroke-width:0.5;" x1="2631.26" x2="2960.7424" y1="1446.58" y2="1446.58"/></g><!--class Widget Function(StackItemStatus)--><g id="elem_Widget Function(StackItemStatus)"><rect fill="#F1F1F1" height="48" id="Widget Function(StackItemStatus)" rx="2.5" ry="2.5" style="stroke:#181818;stroke-width:0.5;" width="258.3311" x="2996.83" y="1406.58"/><ellipse cx="3011.83" cy="1422.58" fill="#ADD1B2" rx="11" ry="11" style="stroke:#181818;stroke-width:1.0;"/><path d="M3014.3031,1428.7231 Q3013.7221,1429.0219 3013.0829,1429.1713 Q3012.4438,1429.3207 3011.7382,1429.3207 Q3009.2314,1429.3207 3007.9115,1427.6689 Q3006.5917,1426.017 3006.5917,1422.8959 Q3006.5917,1419.7665 3007.9115,1418.1147 Q3009.2314,1416.4628 3011.7382,1416.4628 Q3012.4438,1416.4628 3013.0912,1416.6122 Q3013.7387,1416.7616 3014.3031,1417.0605 L3014.3031,1419.7831 Q3013.6723,1419.2021 3013.0788,1418.9323 Q3012.4853,1418.6625 3011.8544,1418.6625 Q3010.5097,1418.6625 3009.8249,1419.7292 Q3009.1401,1420.7958 3009.1401,1422.8959 Q3009.1401,1424.9877 3009.8249,1426.0544 Q3010.5097,1427.121 3011.8544,1427.121 Q3012.4853,1427.121 3013.0788,1426.8512 Q3013.6723,1426.5815 3014.3031,1426.0004 Z " fill="#000000"/><text fill="#000000" font-family="sans-serif" font-size="14" lengthAdjust="spacing" textLength="226.3311" x="3025.83" y="1427.871">Widget Function(StackItemStatus)</text><line style="stroke:#181818;stroke-width:0.5;" x1="2997.83" x2="3254.1611" y1="1438.58" y2="1438.58"/><line style="stroke:#181818;stroke-width:0.5;" x1="2997.83" x2="3254.1611" y1="1446.58" y2="1446.58"/></g><!--class Widget--><g id="elem_Widget"><rect fill="#F1F1F1" height="48" id="Widget" rx="2.5" ry="2.5" style="stroke:#181818;stroke-width:0.5;" width="78.6006" x="821.7" y="170"/><ellipse cx="836.7" cy="186" fill="#ADD1B2" rx="11" ry="11" style="stroke:#181818;stroke-width:1.0;"/><path d="M839.1731,192.1431 Q838.5921,192.4419 837.9529,192.5913 Q837.3138,192.7407 836.6082,192.7407 Q834.1014,192.7407 832.7815,191.0889 Q831.4617,189.437 831.4617,186.3159 Q831.4617,183.1865 832.7815,181.5347 Q834.1014,179.8828 836.6082,179.8828 Q837.3138,179.8828 837.9612,180.0322 Q838.6087,180.1816 839.1731,180.4805 L839.1731,183.2031 Q838.5423,182.6221 837.9488,182.3523 Q837.3553,182.0825 836.7244,182.0825 Q835.3797,182.0825 834.6949,183.1492 Q834.0101,184.2158 834.0101,186.3159 Q834.0101,188.4077 834.6949,189.4744 Q835.3797,190.541 836.7244,190.541 Q837.3553,190.541 837.9488,190.2712 Q838.5423,190.0015 839.1731,189.4204 Z " fill="#000000"/><text fill="#000000" font-family="sans-serif" font-size="14" lengthAdjust="spacing" textLength="46.6006" x="850.7" y="191.291">Widget</text><line style="stroke:#181818;stroke-width:0.5;" x1="822.7" x2="899.3006" y1="202" y2="202"/><line style="stroke:#181818;stroke-width:0.5;" x1="822.7" x2="899.3006" y1="210" y2="210"/></g><!--class StatelessWidget--><g id="elem_StatelessWidget"><rect fill="#F1F1F1" height="48" id="StatelessWidget" rx="2.5" ry="2.5" style="stroke:#181818;stroke-width:0.5;" width="138.2646" x="934.87" y="170"/><ellipse cx="949.87" cy="186" fill="#ADD1B2" rx="11" ry="11" style="stroke:#181818;stroke-width:1.0;"/><path d="M952.3431,192.1431 Q951.7621,192.4419 951.1229,192.5913 Q950.4838,192.7407 949.7782,192.7407 Q947.2714,192.7407 945.9515,191.0889 Q944.6317,189.437 944.6317,186.3159 Q944.6317,183.1865 945.9515,181.5347 Q947.2714,179.8828 949.7782,179.8828 Q950.4838,179.8828 951.1312,180.0322 Q951.7787,180.1816 952.3431,180.4805 L952.3431,183.2031 Q951.7123,182.6221 951.1188,182.3523 Q950.5253,182.0825 949.8944,182.0825 Q948.5497,182.0825 947.8649,183.1492 Q947.1801,184.2158 947.1801,186.3159 Q947.1801,188.4077 947.8649,189.4744 Q948.5497,190.541 949.8944,190.541 Q950.5253,190.541 951.1188,190.2712 Q951.7123,190.0015 952.3431,189.4204 Z " fill="#000000"/><text fill="#000000" font-family="sans-serif" font-size="14" lengthAdjust="spacing" textLength="106.2646" x="963.87" y="191.291">StatelessWidget</text><line style="stroke:#181818;stroke-width:0.5;" x1="935.87" x2="1072.1346" y1="202" y2="202"/><line style="stroke:#181818;stroke-width:0.5;" x1="935.87" x2="1072.1346" y1="210" y2="210"/></g><!--class StatefulWidget--><g id="elem_StatefulWidget"><rect fill="#F1F1F1" height="48" id="StatefulWidget" rx="2.5" ry="2.5" style="stroke:#181818;stroke-width:0.5;" width="130.0273" x="555.99" y="170"/><ellipse cx="570.99" cy="186" fill="#ADD1B2" rx="11" ry="11" style="stroke:#181818;stroke-width:1.0;"/><path d="M573.4631,192.1431 Q572.8821,192.4419 572.2429,192.5913 Q571.6038,192.7407 570.8982,192.7407 Q568.3914,192.7407 567.0715,191.0889 Q565.7517,189.437 565.7517,186.3159 Q565.7517,183.1865 567.0715,181.5347 Q568.3914,179.8828 570.8982,179.8828 Q571.6038,179.8828 572.2512,180.0322 Q572.8987,180.1816 573.4631,180.4805 L573.4631,183.2031 Q572.8323,182.6221 572.2388,182.3523 Q571.6453,182.0825 571.0144,182.0825 Q569.6697,182.0825 568.9849,183.1492 Q568.3001,184.2158 568.3001,186.3159 Q568.3001,188.4077 568.9849,189.4744 Q569.6697,190.541 571.0144,190.541 Q571.6453,190.541 572.2388,190.2712 Q572.8323,190.0015 573.4631,189.4204 Z " fill="#000000"/><text fill="#000000" font-family="sans-serif" font-size="14" lengthAdjust="spacing" textLength="98.0273" x="584.99" y="191.291">StatefulWidget</text><line style="stroke:#181818;stroke-width:0.5;" x1="556.99" x2="685.0173" y1="202" y2="202"/><line style="stroke:#181818;stroke-width:0.5;" x1="556.99" x2="685.0173" y1="210" y2="210"/></g><!--class State--><g id="elem_State"><rect fill="#F1F1F1" height="48" id="State" rx="2.5" ry="2.5" style="stroke:#181818;stroke-width:0.5;" width="65.5439" x="721.23" y="170"/><ellipse cx="736.23" cy="186" fill="#ADD1B2" rx="11" ry="11" style="stroke:#181818;stroke-width:1.0;"/><path d="M738.7031,192.1431 Q738.1221,192.4419 737.4829,192.5913 Q736.8438,192.7407 736.1382,192.7407 Q733.6314,192.7407 732.3115,191.0889 Q730.9917,189.437 730.9917,186.3159 Q730.9917,183.1865 732.3115,181.5347 Q733.6314,179.8828 736.1382,179.8828 Q736.8438,179.8828 737.4912,180.0322 Q738.1387,180.1816 738.7031,180.4805 L738.7031,183.2031 Q738.0723,182.6221 737.4788,182.3523 Q736.8853,182.0825 736.2544,182.0825 Q734.9097,182.0825 734.2249,183.1492 Q733.5401,184.2158 733.5401,186.3159 Q733.5401,188.4077 734.2249,189.4744 Q734.9097,190.541 736.2544,190.541 Q736.8853,190.541 737.4788,190.2712 Q738.0723,190.0015 738.7031,189.4204 Z " fill="#000000"/><text fill="#000000" font-family="sans-serif" font-size="14" lengthAdjust="spacing" textLength="33.5439" x="750.23" y="191.291">State</text><line style="stroke:#181818;stroke-width:0.5;" x1="722.23" x2="785.7739" y1="202" y2="202"/><line style="stroke:#181818;stroke-width:0.5;" x1="722.23" x2="785.7739" y1="210" y2="210"/></g><!--class Alignment--><g id="elem_Alignment"><rect fill="#F1F1F1" height="48" id="Alignment" rx="2.5" ry="2.5" style="stroke:#181818;stroke-width:0.5;" width="101.9658" x="1177.02" y="170"/><ellipse cx="1192.02" cy="186" fill="#ADD1B2" rx="11" ry="11" style="stroke:#181818;stroke-width:1.0;"/><path d="M1194.4931,192.1431 Q1193.9121,192.4419 1193.2729,192.5913 Q1192.6338,192.7407 1191.9282,192.7407 Q1189.4214,192.7407 1188.1015,191.0889 Q1186.7817,189.437 1186.7817,186.3159 Q1186.7817,183.1865 1188.1015,181.5347 Q1189.4214,179.8828 1191.9282,179.8828 Q1192.6338,179.8828 1193.2812,180.0322 Q1193.9287,180.1816 1194.4931,180.4805 L1194.4931,183.2031 Q1193.8623,182.6221 1193.2688,182.3523 Q1192.6753,182.0825 1192.0444,182.0825 Q1190.6997,182.0825 1190.0149,183.1492 Q1189.3301,184.2158 1189.3301,186.3159 Q1189.3301,188.4077 1190.0149,189.4744 Q1190.6997,190.541 1192.0444,190.541 Q1192.6753,190.541 1193.2688,190.2712 Q1193.8623,190.0015 1194.4931,189.4204 Z " fill="#000000"/><text fill="#000000" font-family="sans-serif" font-size="14" lengthAdjust="spacing" textLength="69.9658" x="1206.02" y="191.291">Alignment</text><line style="stroke:#181818;stroke-width:0.5;" x1="1178.02" x2="1277.9858" y1="202" y2="202"/><line style="stroke:#181818;stroke-width:0.5;" x1="1178.02" x2="1277.9858" y1="210" y2="210"/></g><!--class Offset--><g id="elem_Offset"><rect fill="#F1F1F1" height="48" id="Offset" rx="2.5" ry="2.5" style="stroke:#181818;stroke-width:0.5;" width="73.3438" x="4559.33" y="1406.58"/><ellipse cx="4574.33" cy="1422.58" fill="#ADD1B2" rx="11" ry="11" style="stroke:#181818;stroke-width:1.0;"/><path d="M4576.8031,1428.7231 Q4576.2221,1429.0219 4575.5829,1429.1713 Q4574.9438,1429.3207 4574.2382,1429.3207 Q4571.7314,1429.3207 4570.4115,1427.6689 Q4569.0917,1426.017 4569.0917,1422.8959 Q4569.0917,1419.7665 4570.4115,1418.1147 Q4571.7314,1416.4628 4574.2382,1416.4628 Q4574.9438,1416.4628 4575.5912,1416.6122 Q4576.2387,1416.7616 4576.8031,1417.0605 L4576.8031,1419.7831 Q4576.1723,1419.2021 4575.5788,1418.9323 Q4574.9853,1418.6625 4574.3544,1418.6625 Q4573.0097,1418.6625 4572.3249,1419.7292 Q4571.6401,1420.7958 4571.6401,1422.8959 Q4571.6401,1424.9877 4572.3249,1426.0544 Q4573.0097,1427.121 4574.3544,1427.121 Q4574.9853,1427.121 4575.5788,1426.8512 Q4576.1723,1426.5815 4576.8031,1426.0004 Z " fill="#000000"/><text fill="#000000" font-family="sans-serif" font-size="14" lengthAdjust="spacing" textLength="41.3438" x="4588.33" y="1427.871">Offset</text><line style="stroke:#181818;stroke-width:0.5;" x1="4560.33" x2="4631.6738" y1="1438.58" y2="1438.58"/><line style="stroke:#181818;stroke-width:0.5;" x1="4560.33" x2="4631.6738" y1="1446.58" y2="1446.58"/></g><!--class Size--><g id="elem_Size"><rect fill="#F1F1F1" height="48" id="Size" rx="2.5" ry="2.5" style="stroke:#181818;stroke-width:0.5;" width="59.4121" x="4667.29" y="1406.58"/><ellipse cx="4682.29" cy="1422.58" fill="#ADD1B2" rx="11" ry="11" style="stroke:#181818;stroke-width:1.0;"/><path d="M4684.7631,1428.7231 Q4684.1821,1429.0219 4683.5429,1429.1713 Q4682.9038,1429.3207 4682.1982,1429.3207 Q4679.6914,1429.3207 4678.3715,1427.6689 Q4677.0517,1426.017 4677.0517,1422.8959 Q4677.0517,1419.7665 4678.3715,1418.1147 Q4679.6914,1416.4628 4682.1982,1416.4628 Q4682.9038,1416.4628 4683.5512,1416.6122 Q4684.1987,1416.7616 4684.7631,1417.0605 L4684.7631,1419.7831 Q4684.1323,1419.2021 4683.5388,1418.9323 Q4682.9453,1418.6625 4682.3144,1418.6625 Q4680.9697,1418.6625 4680.2849,1419.7292 Q4679.6001,1420.7958 4679.6001,1422.8959 Q4679.6001,1424.9877 4680.2849,1426.0544 Q4680.9697,1427.121 4682.3144,1427.121 Q4682.9453,1427.121 4683.5388,1426.8512 Q4684.1323,1426.5815 4684.7631,1426.0004 Z " fill="#000000"/><text fill="#000000" font-family="sans-serif" font-size="14" lengthAdjust="spacing" textLength="27.4121" x="4696.29" y="1427.871">Size</text><line style="stroke:#181818;stroke-width:0.5;" x1="4668.29" x2="4725.7021" y1="1438.58" y2="1438.58"/><line style="stroke:#181818;stroke-width:0.5;" x1="4668.29" x2="4725.7021" y1="1446.58" y2="1446.58"/></g><!--reverse link ConfigBuilder to bool Function(StackConfig, StackConfig)--><g id="link_ConfigBuilder_bool Function(StackConfig, StackConfig)"><path codeLine="11" d="M1356.0721,915.6085 C1904.1221,953.0785 3389.82,1071.21 3835,1277.58 C3900.19,1307.8 3958.4,1371.57 3986.75,1406.13 " fill="none" id="ConfigBuilder-backto-bool Function(StackConfig, StackConfig)" style="stroke:#181818;stroke-width:1.0;"/><polygon fill="none" points="1344.1,914.79,1349.8132,919.1899,1356.0721,915.6085,1350.3589,911.2086,1344.1,914.79" style="stroke:#181818;stroke-width:1.0;"/></g><!--reverse link ConfigBuilder to Widget Function(StackConfig, Widget)--><g id="link_ConfigBuilder_Widget Function(StackConfig, Widget)"><path codeLine="12" d="M1356.4266,911.1067 C1951.8666,939.2567 3668.97,1039.39 4175,1277.58 C4238.3,1307.38 4292.97,1371.63 4319.29,1406.29 " fill="none" id="ConfigBuilder-backto-Widget Function(StackConfig, Widget)" style="stroke:#181818;stroke-width:1.0;"/><polygon fill="none" points="1344.44,910.54,1350.2444,914.8189,1356.4266,911.1067,1350.6222,906.8278,1344.44,910.54" style="stroke:#181818;stroke-width:1.0;"/></g><!--reverse link ConfigBuilder to Widget--><g id="link_ConfigBuilder_Widget"><path codeLine="13" d="M1110.859,823.9181 C1050.949,673.1381 908.7,315.07 870.32,218.45 " fill="none" id="ConfigBuilder-backto-Widget" style="stroke:#181818;stroke-width:1.0;"/><polygon fill="none" points="1115.29,835.07,1116.7918,828.017,1110.859,823.9181,1109.3572,830.971,1115.29,835.07" style="stroke:#181818;stroke-width:1.0;"/></g><!--reverse link StatelessWidget to ConfigBuilder--><g id="link_StatelessWidget_ConfigBuilder"><path codeLine="14" d="M1011.9944,236.1193 C1030.7744,332.7393 1099.11,684.29 1128.42,835.07 " fill="none" id="StatelessWidget-backto-ConfigBuilder" style="stroke:#181818;stroke-width:1.0;"/><polygon fill="none" points="1008.56,218.45,1006.1046,237.2641,1017.8842,234.9745,1008.56,218.45" style="stroke:#181818;stroke-width:1.0;"/></g><!--reverse link StackItemCase to StackItem<StackItemContent>--><g id="link_StackItemCase_StackItem&lt;StackItemContent&gt;"><path codeLine="32" d="M355.9401,1044.2239 C346.0701,1171.2039 332.79,1342.17 327.81,1406.31 " fill="none" id="StackItemCase-backto-StackItem&lt;StackItemContent&gt;" style="stroke:#181818;stroke-width:1.0;"/><polygon fill="none" points="356.87,1032.26,352.4171,1037.932,355.9401,1044.2239,360.393,1038.5519,356.87,1032.26" style="stroke:#181818;stroke-width:1.0;"/></g><!--reverse link StackItemCase to Widget Function(StackItem<StackItemContent>)--><g id="link_StackItemCase_Widget Function(StackItem&lt;StackItemContent&gt;)"><path codeLine="33" d="M419.7006,1043.1076 C458.1306,1127.3476 516.23,1219.39 609,1269.58 C641.54,1287.19 3238,1265.59 3273,1277.58 C3347.99,1303.27 3416.69,1370.23 3449.59,1406.09 " fill="none" id="StackItemCase-backto-Widget Function(StackItem&lt;StackItemContent&gt;)" style="stroke:#181818;stroke-width:1.0;"/><polygon fill="none" points="414.72,1032.19,413.5711,1039.309,419.7006,1043.1076,420.8495,1035.9886,414.72,1032.19" style="stroke:#181818;stroke-width:1.0;"/></g><!--reverse link StackItemCase to CaseStyle--><g id="link_StackItemCase_CaseStyle"><path codeLine="34" d="M422.5513,1043.4316 C472.3513,1170.4116 539.72,1342.17 564.87,1406.31 " fill="none" id="StackItemCase-backto-CaseStyle" style="stroke:#181818;stroke-width:1.0;"/><polygon fill="none" points="418.17,1032.26,416.6368,1039.3062,422.5513,1043.4316,424.0845,1036.3853,418.17,1032.26" style="stroke:#181818;stroke-width:1.0;"/></g><!--reverse link StackItemCase to void Function()--><g id="link_StackItemCase_void Function()"><path codeLine="35" d="M419.6901,1043.1178 C458.1201,1127.3678 516.22,1219.41 609,1269.58 C646.36,1289.78 3630.45,1255.95 3667,1277.58 C3714.36,1305.6 3736.88,1370.92 3745.91,1406.11 " fill="none" id="StackItemCase-backto-void Function()" style="stroke:#181818;stroke-width:1.0;"/><polygon fill="none" points="414.71,1032.2,413.5608,1039.3189,419.6901,1043.1178,420.8393,1035.9989,414.71,1032.2" style="stroke:#181818;stroke-width:1.0;"/></g><!--reverse link StackItemCase to bool Function(Size)--><g id="link_StackItemCase_bool Function(Size)"><path codeLine="36" d="M419.7878,1042.9543 C458.2578,1127.1343 516.35,1219.16 609,1269.58 C633.62,1282.98 1591.55,1268.3 1618,1277.58 C1691.85,1303.5 1758.99,1370.36 1791.1,1406.15 " fill="none" id="StackItemCase-backto-bool Function(Size)" style="stroke:#181818;stroke-width:1.0;"/><polygon fill="none" points="414.8,1032.04,413.6558,1039.1597,419.7878,1042.9543,420.932,1035.8345,414.8,1032.04" style="stroke:#181818;stroke-width:1.0;"/></g><!--reverse link StackItemCase to bool Function(Offset)--><g id="link_StackItemCase_bool Function(Offset)"><path codeLine="37" d="M419.7553,1043.0055 C458.2153,1127.2155 516.31,1219.24 609,1269.58 C640.73,1286.81 1877.04,1260.78 1909,1277.58 C1961.11,1304.98 1992.89,1370.88 2006.77,1406.23 " fill="none" id="StackItemCase-backto-bool Function(Offset)" style="stroke:#181818;stroke-width:1.0;"/><polygon fill="none" points="414.77,1032.09,413.6241,1039.2095,419.7553,1043.0055,420.9011,1035.886,414.77,1032.09" style="stroke:#181818;stroke-width:1.0;"/></g><!--reverse link StackItemCase to bool Function(double)--><g id="link_StackItemCase_bool Function(double)"><path codeLine="38" d="M419.7348,1043.0357 C458.1948,1127.2557 516.28,1219.28 609,1269.58 C645.89,1289.59 2082.75,1258.23 2120,1277.58 C2172.57,1304.89 2205.17,1370.83 2219.49,1406.21 " fill="none" id="StackItemCase-backto-bool Function(double)" style="stroke:#181818;stroke-width:1.0;"/><polygon fill="none" points="414.75,1032.12,413.6038,1039.2394,419.7348,1043.0357,420.8809,1035.9163,414.75,1032.12" style="stroke:#181818;stroke-width:1.0;"/></g><!--reverse link StackItemCase to bool Function(StackItemStatus)--><g id="link_StackItemCase_bool Function(StackItemStatus)"><path codeLine="39" d="M419.7232,1043.0564 C458.1732,1127.2864 516.27,1219.31 609,1269.58 C630.09,1281.01 2314.09,1267.82 2336,1277.58 C2395.74,1304.2 2440.74,1370.75 2461.44,1406.32 " fill="none" id="StackItemCase-backto-bool Function(StackItemStatus)" style="stroke:#181818;stroke-width:1.0;"/><polygon fill="none" points="414.74,1032.14,413.5928,1039.2593,419.7232,1043.0564,420.8704,1035.9371,414.74,1032.14" style="stroke:#181818;stroke-width:1.0;"/></g><!--reverse link StackItemCase to Widget Function(StackItemStatus, CaseStyle)--><g id="link_StackItemCase_Widget Function(StackItemStatus, CaseStyle)"><path codeLine="40" d="M419.7132,1043.0764 C458.1632,1127.3064 516.25,1219.34 609,1269.58 C633.46,1282.83 2585.84,1268.11 2612,1277.58 C2683.49,1303.45 2747.03,1370.33 2777.29,1406.14 " fill="none" id="StackItemCase-backto-Widget Function(StackItemStatus, CaseStyle)" style="stroke:#181818;stroke-width:1.0;"/><polygon fill="none" points="414.73,1032.16,413.5828,1039.2793,419.7132,1043.0764,420.8604,1035.9571,414.73,1032.16" style="stroke:#181818;stroke-width:1.0;"/></g><!--reverse link StackItemCase to Widget Function(StackItemStatus)--><g id="link_StackItemCase_Widget Function(StackItemStatus)"><path codeLine="41" d="M419.7016,1043.0971 C458.1416,1127.3371 516.24,1219.37 609,1269.58 C637.95,1285.25 2948.72,1264.68 2979,1277.58 C3040.97,1303.98 3089.63,1370.63 3112.22,1406.26 " fill="none" id="StackItemCase-backto-Widget Function(StackItemStatus)" style="stroke:#181818;stroke-width:1.0;"/><polygon fill="none" points="414.72,1032.18,413.5718,1039.2991,419.7016,1043.0971,420.8499,1035.978,414.72,1032.18" style="stroke:#181818;stroke-width:1.0;"/></g><!--reverse link StatefulWidget to StackItemCase--><g id="link_StatefulWidget_StackItemCase"><path codeLine="42" d="M606.4474,235.3839 C575.9774,319.9339 476.36,596.35 414.01,769.34 " fill="none" id="StatefulWidget-backto-StackItemCase" style="stroke:#181818;stroke-width:1.0;"/><polygon fill="none" points="612.55,218.45,600.8027,233.3497,612.092,237.4181,612.55,218.45" style="stroke:#181818;stroke-width:1.0;"/></g><!--reverse link _StackItemCaseState to Offset--><g id="link__StackItemCaseState_Offset"><path codeLine="83" d="M875.774,1230.98 C891.554,1249.29 901.64,1256.46 922,1269.58 C942.86,1283.02 4473.15,1265.83 4495,1277.58 C4546.07,1305.03 4575.74,1370.91 4588.5,1406.25 " fill="none" id="_StackItemCaseState-backto-Offset" style="stroke:#181818;stroke-width:1.0;"/><polygon fill="none" points="867.94,1221.89,868.827,1229.0463,875.774,1230.98,874.887,1223.8237,867.94,1221.89" style="stroke:#181818;stroke-width:1.0;"/></g><!--reverse link _StackItemCaseState to Size--><g id="link__StackItemCaseState_Size"><path codeLine="84" d="M875.7715,1230.9821 C891.5515,1249.3021 901.64,1256.47 922,1269.58 C943.76,1283.6 4629.18,1262.19 4650,1277.58 C4690.43,1307.46 4697.13,1371.68 4697.62,1406.31 " fill="none" id="_StackItemCaseState-backto-Size" style="stroke:#181818;stroke-width:1.0;"/><polygon fill="none" points="867.94,1221.89,868.8251,1229.0466,875.7715,1230.9821,874.8865,1223.8256,867.94,1221.89" style="stroke:#181818;stroke-width:1.0;"/></g><!--reverse link _StackItemCaseState to Alignment--><g id="link__StackItemCaseState_Alignment"><path codeLine="85" d="M778.8143,568.1975 C802.0643,470.7275 842.64,384.59 922,322 C936.59,310.5 1071.73,320.86 1089,314 C1140.08,293.72 1185.6,246.51 1209.75,218.02 " fill="none" id="_StackItemCaseState-backto-Alignment" style="stroke:#181818;stroke-width:1.0;"/><polygon fill="none" points="776.03,579.87,781.313,574.9618,778.8143,568.1975,773.5313,573.1056,776.03,579.87" style="stroke:#181818;stroke-width:1.0;"/></g><!--reverse link _StackItemCaseState to HomeRepo--><g id="link__StackItemCaseState_HomeRepo"><path codeLine="86" d="M883.6103,1231.3729 C897.3703,1248.8229 905.17,1255.51 922,1269.58 C1010.58,1343.6 1360.97,1401.88 1495.77,1422 " fill="none" id="_StackItemCaseState-backto-HomeRepo" style="stroke:#181818;stroke-width:1.0;"/><polygon fill="none" points="876.18,1221.95,876.7542,1229.1382,883.6103,1231.3729,883.0361,1224.1847,876.18,1221.95" style="stroke:#181818;stroke-width:1.0;"/></g><!--reverse link State to _StackItemCaseState--><g id="link_State__StackItemCaseState"><path codeLine="87" d="M754,236.45 C754,294.31 754,431.95 754,579.88 " fill="none" id="State-backto-_StackItemCaseState" style="stroke:#181818;stroke-width:1.0;"/><polygon fill="none" points="754,218.45,748,236.45,760,236.45,754,218.45" style="stroke:#181818;stroke-width:1.0;"/></g><!--SRC=[nLTDJnin4BtdLrWvWKfwwD5280Yqe0eL0LNRqygn9uaLnuviBvHI_dljyUvcizdGW99m0Uzxy-LXPZmuy4IpARWPut0BCsQPDvPGskbmnPmZNJUJ4yZkFr7gBATqO9WLnTbvnYUPz33DE7D0AJTwA4VP89TAWFqecFMKzX4yJLYNF7K8-J0mHf7FkUPU6hrt6-qaiGDI-zW_9cviSYLk04r6pHzIZ4BCxRg936fy7CGBbpKjX6lVQ7LlFo1FuIvUykUAUf1-V1bk5jZdJcVZMJ2z7kdgNAbeQwrSTBSQn3fftLO4GvLx3xQmyu3E7AL36-homTX9ePgY246iAH-ku461SuKYEVmRlMtu2c_gamOm3vXFOitr0rOqIeKTpbcZFMX_H5o9p2lwkF4NRDTiQP3eyjO_AWXKUOpulP5YRZCe6drc-6GL1Me5SyTcPT_NOvH_0Ebuw8-P7e5e4Vis73fiQwFJSRMeCFb09PidUgHUC5fb9TP9xb8OUApfjBR5NEc0L7aB-WnbtFBOUS7dmDWWMrF1gZt4dyDS9GD7X5i80A9l64XhbPlvJtDmOojJYAF1kl6ctUN2wsuhxXU6s8eMwBvR2gD-vcBDb0EbhA4jfwVHbblsrdZMOgVlr6CnD7RgivW-kyriOwQyLuyjJyJtZMJ_bPj2DMtViYYi4_i6DuLimJA6N-mBgUe93pCExBMHsjVGOCpwByeCc6gbqXbVeT2k2OkdYAJIJXY-h14yKNAafy7NSK6KtpKDqEBiT-FxiUPPM3QQEmvHaNZRIoq0jIxC56vWPiYuEAH7qaezIeBndUvXFavZ8kE0jqOfi2JZrHbt_5vLcYIhbfp45B5bKuch289fZP5Q-lBT3O9N9dVGpwqpqJx-JWGAPxZeB0BdGlf5v9h5HSCke-TQB67VPw9oNi9NvXw-mcCRTSkPWZRY1bousCzVhPo95wmno_yVzGeamyNHWiQCDwZqjYw2s6kdkEKi4YBivXukc1Rb7w5afc17S2TLA-dY1Ti8YnTiPV1w9rh4lBK9-31GOsriRBLgxKySNOdF9QMfvhkxSXVBUilE5gVjZ8LU3brAAIkdGc6XcX9RZgTXsuRXGMaS8ray5khbV7dbQx6vHw8j_axd7m00]--></g></svg>